<svg width="131" height="46" viewBox="0 0 131 46" fill="none" xmlns="http://www.w3.org/2000/svg">
<mask id="path-1-outside-1_394_82" maskUnits="userSpaceOnUse" x="-1" y="-1" width="133" height="48" fill="black">
<rect fill="white" x="-1" y="-1" width="133" height="48"/>
<path d="M0.87248 45V38.3523L16.4052 23.9702C17.7262 22.6918 18.8341 21.5412 19.729 20.5185C20.6381 19.4957 21.327 18.4943 21.7958 17.5142C22.2645 16.5199 22.4989 15.4474 22.4989 14.2969C22.4989 13.0185 22.2077 11.9176 21.6253 10.9943C21.0429 10.0568 20.2475 9.33949 19.239 8.84233C18.2304 8.33097 17.087 8.07528 15.8086 8.07528C14.4733 8.07528 13.3086 8.34517 12.3142 8.88494C11.3199 9.42472 10.5529 10.1989 10.0131 11.2074C9.47333 12.2159 9.20345 13.4162 9.20345 14.8082H0.446344C0.446344 11.9531 1.09265 9.47443 2.38526 7.37216C3.67788 5.26989 5.48896 3.64347 7.8185 2.4929C10.148 1.34233 12.8327 0.767044 15.8725 0.767044C18.9975 0.767044 21.7177 1.32102 24.033 2.42898C26.3625 3.52273 28.1736 5.04261 29.4662 6.98864C30.7588 8.93466 31.4052 11.1648 31.4052 13.679C31.4052 15.3267 31.0784 16.9531 30.425 18.5582C29.7858 20.1634 28.6424 21.946 26.9946 23.9062C25.3469 25.8523 23.0245 28.1889 20.0273 30.9162L13.6566 37.1591V37.4574H31.9804V45H0.87248ZM52.1748 45.9588C48.5101 45.9446 45.3566 45.0426 42.7146 43.2528C40.0868 41.4631 38.0626 38.8707 36.6422 35.4759C35.2359 32.081 34.5399 27.9972 34.5541 23.2244C34.5541 18.4659 35.2572 14.4105 36.6635 11.0582C38.0839 7.70596 40.1081 5.15625 42.7359 3.40909C45.378 1.64773 48.5243 0.767044 52.1748 0.767044C55.8254 0.767044 58.9646 1.64773 61.5924 3.40909C64.2345 5.17045 66.2657 7.72727 67.6862 11.0795C69.1066 14.4176 69.8098 18.4659 69.7956 23.2244C69.7956 28.0114 69.0853 32.1023 67.6649 35.4972C66.2586 38.892 64.2416 41.4844 61.6137 43.2741C58.9859 45.0639 55.8396 45.9588 52.1748 45.9588ZM52.1748 38.3097C54.6748 38.3097 56.6706 37.0526 58.162 34.5384C59.6535 32.0241 60.3922 28.2528 60.378 23.2244C60.378 19.9148 60.037 17.1591 59.3552 14.9574C58.6876 12.7557 57.7359 11.1009 56.5001 9.9929C55.2785 8.88494 53.8368 8.33097 52.1748 8.33097C49.689 8.33097 47.7004 9.57386 46.2089 12.0597C44.7174 14.5455 43.9646 18.267 43.9504 23.2244C43.9504 26.5767 44.2842 29.375 44.9518 31.6193C45.6336 33.8494 46.5924 35.5256 47.8282 36.6477C49.064 37.7557 50.5129 38.3097 52.1748 38.3097ZM91.7584 1.36364V45H82.5326V10.1207H82.2769L72.284 16.3849V8.20312L83.0865 1.36364H91.7584ZM114.467 45.5966C111.456 45.5966 108.771 45.0426 106.413 43.9347C104.069 42.8267 102.208 41.2997 100.831 39.3537C99.4528 37.4077 98.7355 35.1776 98.6787 32.6634H107.628C107.727 34.3537 108.437 35.7244 109.758 36.7756C111.079 37.8267 112.649 38.3523 114.467 38.3523C115.916 38.3523 117.194 38.0327 118.302 37.3935C119.424 36.7401 120.298 35.8381 120.923 34.6875C121.562 33.5227 121.882 32.1875 121.882 30.6818C121.882 29.1477 121.555 27.7983 120.902 26.6335C120.262 25.4687 119.375 24.5597 118.238 23.9062C117.102 23.2528 115.802 22.919 114.339 22.9048C113.061 22.9048 111.818 23.1676 110.61 23.6932C109.417 24.2187 108.487 24.9361 107.819 25.8452L99.6162 24.375L101.683 1.36364H128.359V8.90625H109.289L108.16 19.8366H108.416C109.183 18.7571 110.341 17.8622 111.889 17.152C113.437 16.4418 115.17 16.0866 117.088 16.0866C119.716 16.0866 122.059 16.7045 124.119 17.9403C126.179 19.1761 127.805 20.8736 128.998 23.0327C130.191 25.1776 130.781 27.6491 130.767 30.4474C130.781 33.3878 130.099 36.0014 128.721 38.2884C127.358 40.5611 125.447 42.3509 122.99 43.6577C120.547 44.9503 117.706 45.5966 114.467 45.5966Z"/>
</mask>
<path d="M0.87248 45H-0.12752V46H0.87248V45ZM0.87248 38.3523L0.193072 37.6185L-0.12752 37.9154V38.3523H0.87248ZM16.4052 23.9702L17.0846 24.7039L17.0926 24.6964L17.1006 24.6888L16.4052 23.9702ZM19.729 20.5185L18.9816 19.8541L18.9764 19.86L19.729 20.5185ZM21.7958 17.5142L22.6979 17.9457L22.7003 17.9406L21.7958 17.5142ZM21.6253 10.9943L20.7759 11.522L20.7795 11.5278L21.6253 10.9943ZM19.239 8.84233L18.7867 9.73429L18.7968 9.73927L19.239 8.84233ZM10.0131 11.2074L10.8948 11.6793L10.0131 11.2074ZM9.20345 14.8082V15.8082H10.2034V14.8082H9.20345ZM0.446344 14.8082H-0.553656V15.8082H0.446344V14.8082ZM2.38526 7.37216L3.23712 7.89594L2.38526 7.37216ZM7.8185 2.4929L7.37567 1.59629L7.37567 1.59629L7.8185 2.4929ZM24.033 2.42898L23.6013 3.33104L23.608 3.33417L24.033 2.42898ZM29.4662 6.98864L28.6332 7.54193L28.6332 7.54193L29.4662 6.98864ZM30.425 18.5582L29.4988 18.1812L29.496 18.1883L30.425 18.5582ZM26.9946 23.9062L27.7578 24.5524L27.7601 24.5497L26.9946 23.9062ZM20.0273 30.9162L19.3543 30.1766L19.3406 30.189L19.3274 30.202L20.0273 30.9162ZM13.6566 37.1591L12.9567 36.4449L12.6566 36.7389V37.1591H13.6566ZM13.6566 37.4574H12.6566V38.4574H13.6566V37.4574ZM31.9804 37.4574H32.9804V36.4574H31.9804V37.4574ZM31.9804 45V46H32.9804V45H31.9804ZM1.87248 45V38.3523H-0.12752V45H1.87248ZM1.55189 39.086L17.0846 24.7039L15.7257 23.2364L0.193072 37.6185L1.55189 39.086ZM17.1006 24.6888C18.4351 23.3973 19.5634 22.2263 20.4816 21.177L18.9764 19.86C18.1048 20.8561 17.0173 21.9862 15.7097 23.2516L17.1006 24.6888ZM20.4764 21.1828C21.4324 20.1074 22.1799 19.0288 22.6979 17.9457L20.8936 17.0827C20.4742 17.9598 19.8438 18.8841 18.9816 19.8541L20.4764 21.1828ZM22.7003 17.9406C23.2349 16.8067 23.4989 15.5878 23.4989 14.2969H21.4989C21.4989 15.3071 21.2942 16.2331 20.8913 17.0878L22.7003 17.9406ZM23.4989 14.2969C23.4989 12.8625 23.1704 11.5695 22.4711 10.4608L20.7795 11.5278C21.245 12.2657 21.4989 13.1744 21.4989 14.2969H23.4989ZM22.4748 10.4666C21.7918 9.3673 20.8539 8.52353 19.6811 7.94539L18.7968 9.73927C19.6411 10.1554 20.294 10.7463 20.7759 11.522L22.4748 10.4666ZM19.6912 7.95043C18.5251 7.3592 17.2234 7.07528 15.8086 7.07528V9.07528C16.9505 9.07528 17.9357 9.30273 18.7867 9.73423L19.6912 7.95043ZM15.8086 7.07528C14.3367 7.07528 13.0022 7.37361 11.8371 8.00609L12.7913 9.7638C13.6149 9.31673 14.6099 9.07528 15.8086 9.07528V7.07528ZM11.8371 8.00609C10.6691 8.64017 9.76233 9.55674 9.13144 10.7355L10.8948 11.6793C11.3434 10.841 11.9707 10.2093 12.7913 9.7638L11.8371 8.00609ZM9.13144 10.7355C8.49885 11.9175 8.20345 13.2869 8.20345 14.8082H10.2034C10.2034 13.5455 10.4478 12.5144 10.8948 11.6793L9.13144 10.7355ZM9.20345 13.8082H0.446344V15.8082H9.20345V13.8082ZM1.44634 14.8082C1.44634 12.1085 2.05576 9.81727 3.23712 7.89594L1.53341 6.84838C0.129545 9.13159 -0.553656 11.7977 -0.553656 14.8082H1.44634ZM3.23712 7.89594C4.42587 5.96259 6.09116 4.46136 8.26134 3.3895L7.37567 1.59629C4.88676 2.82557 2.92989 4.57719 1.53341 6.84838L3.23712 7.89594ZM8.26134 3.3895C10.4316 2.3176 12.9603 1.76704 15.8725 1.76704V-0.232956C12.7051 -0.232956 9.86449 0.367055 7.37567 1.59629L8.26134 3.3895ZM15.8725 1.76704C18.88 1.76704 21.4469 2.30004 23.6013 3.33102L24.4646 1.52694C21.9884 0.342006 19.115 -0.232956 15.8725 -0.232956V1.76704ZM23.608 3.33417C25.7893 4.3583 27.452 5.76354 28.6332 7.54193L30.2992 6.43534C28.8953 4.32168 26.9358 2.68715 24.458 1.52378L23.608 3.33417ZM28.6332 7.54193C29.8086 9.31137 30.4052 11.3459 30.4052 13.679H32.4052C32.4052 10.9836 31.7091 8.55795 30.2992 6.43534L28.6332 7.54193ZM30.4052 13.679C30.4052 15.1908 30.1061 16.6895 29.4988 18.1812L31.3512 18.9353C32.0508 17.2167 32.4052 15.4626 32.4052 13.679H30.4052ZM29.496 18.1883C28.9105 19.6586 27.838 21.3489 26.2292 23.2628L27.7601 24.5497C29.4468 22.5432 30.6612 20.6681 31.3541 18.9282L29.496 18.1883ZM26.2315 23.2601C24.6231 25.1596 22.3357 27.4636 19.3543 30.1766L20.7003 31.6558C23.7132 28.9142 26.0708 26.5449 27.7578 24.5524L26.2315 23.2601ZM19.3274 30.202L12.9567 36.4449L14.3565 37.8733L20.7272 31.6304L19.3274 30.202ZM12.6566 37.1591V37.4574H14.6566V37.1591H12.6566ZM13.6566 38.4574H31.9804V36.4574H13.6566V38.4574ZM30.9804 37.4574V45H32.9804V37.4574H30.9804ZM31.9804 44H0.87248V46H31.9804V44ZM52.1748 45.9588L52.171 46.9588H52.1748V45.9588ZM42.7146 43.2528L42.1517 44.0794L42.1538 44.0808L42.7146 43.2528ZM36.6422 35.4759L35.7183 35.8585L35.7197 35.8618L36.6422 35.4759ZM34.5541 23.2244L35.5541 23.2274V23.2244H34.5541ZM36.6635 11.0582L35.7427 10.6681L35.7413 10.6714L36.6635 11.0582ZM42.7359 3.40909L43.2896 4.24183L43.2906 4.24114L42.7359 3.40909ZM61.5924 3.40909L61.0357 4.23976L61.0377 4.24114L61.5924 3.40909ZM67.6862 11.0795L66.7654 11.4697L66.766 11.4711L67.6862 11.0795ZM69.7956 23.2244L68.7956 23.2214V23.2244H69.7956ZM67.6649 35.4972L66.7424 35.1112L66.741 35.1145L67.6649 35.4972ZM61.6137 43.2741L62.1767 44.1007L61.6137 43.2741ZM58.162 34.5384L59.0221 35.0486L58.162 34.5384ZM60.378 23.2244H59.3779L59.378 23.2273L60.378 23.2244ZM59.3552 14.9574L58.3982 15.2476L58.4 15.2532L59.3552 14.9574ZM56.5001 9.9929L55.8283 10.7336L55.8326 10.7375L56.5001 9.9929ZM46.2089 12.0597L45.3514 11.5452L46.2089 12.0597ZM43.9504 23.2244L42.9504 23.2216V23.2244H43.9504ZM44.9518 31.6193L43.9933 31.9044L43.9955 31.9117L44.9518 31.6193ZM47.8282 36.6477L47.156 37.3881L47.1607 37.3923L47.8282 36.6477ZM52.1787 44.9588C48.6822 44.9453 45.7296 44.0874 43.2754 42.4249L42.1538 44.0808C44.9837 45.9978 48.3379 46.9439 52.171 46.9588L52.1787 44.9588ZM43.2775 42.4263C40.8336 40.7618 38.9225 38.335 37.5647 35.0899L35.7197 35.8618C37.2028 39.4065 39.3399 42.1643 42.1517 44.0794L43.2775 42.4263ZM37.566 35.0932C36.2231 31.8511 35.5402 27.9055 35.5541 23.2274L33.5541 23.2215C33.5396 28.0888 34.2487 32.3108 35.7183 35.8585L37.566 35.0932ZM35.5541 23.2244C35.5541 18.5597 36.244 14.6433 37.5856 11.4451L35.7413 10.6714C34.2705 14.1777 33.5541 18.3721 33.5541 23.2244H35.5541ZM37.5842 11.4484C38.9403 8.24796 40.8487 5.86466 43.2896 4.24183L42.1822 2.57635C39.3674 4.44784 37.2275 7.16397 35.7427 10.6681L37.5842 11.4484ZM43.2906 4.24114C45.7448 2.60501 48.6913 1.76704 52.1748 1.76704V-0.232956C48.3572 -0.232956 45.0111 0.690445 42.1812 2.57704L43.2906 4.24114ZM52.1748 1.76704C55.6585 1.76704 58.5968 2.60505 61.0357 4.23976L62.1492 2.57843C59.3324 0.690407 55.9923 -0.232956 52.1748 -0.232956V1.76704ZM61.0377 4.24114C63.4943 5.87888 65.4097 8.27022 66.7654 11.4697L68.6069 10.6894C67.1217 7.18432 64.9746 4.46203 62.1471 2.57704L61.0377 4.24114ZM66.766 11.4711C68.1196 14.6521 68.8095 18.5582 68.7956 23.2214L70.7956 23.2274C70.8101 18.3736 70.0937 14.1831 68.6063 10.688L66.766 11.4711ZM68.7956 23.2244C68.7956 27.9169 68.0988 31.8693 66.7424 35.1112L68.5874 35.8831C70.0719 32.3352 70.7956 28.1059 70.7956 23.2244H68.7956ZM66.741 35.1145C65.3974 38.3581 63.4938 40.7838 61.0508 42.4476L62.1767 44.1007C64.9894 42.185 67.1199 39.426 68.5888 35.8799L66.741 35.1145ZM61.0508 42.4476C58.6133 44.1078 55.6704 44.9588 52.1748 44.9588V46.9588C56.0088 46.9588 59.3586 46.02 62.1767 44.1007L61.0508 42.4476ZM52.1748 39.3097C55.0934 39.3097 57.3866 37.8055 59.0221 35.0486L57.302 34.0281C55.9545 36.2996 54.2563 37.3097 52.1748 37.3097V39.3097ZM59.0221 35.0486C60.6503 32.3039 61.3923 28.3165 61.3779 23.2216L59.378 23.2273C59.392 28.1892 58.6568 31.7444 57.302 34.0281L59.0221 35.0486ZM61.378 23.2244C61.378 19.8542 61.0318 16.9908 60.3105 14.6616L58.4 15.2532C59.0423 17.3274 59.378 19.9753 59.378 23.2244H61.378ZM60.3122 14.6672C59.6111 12.3552 58.5825 10.5168 57.1677 9.24833L55.8326 10.7375C56.8893 11.6849 57.7641 13.1562 58.3983 15.2476L60.3122 14.6672ZM57.1719 9.25218C55.7648 7.97594 54.083 7.33097 52.1748 7.33097V9.33097C53.5905 9.33097 54.7922 9.79394 55.8283 10.7336L57.1719 9.25218ZM52.1748 7.33097C49.2738 7.33097 46.9881 8.81737 45.3514 11.5452L47.0664 12.5742C48.4127 10.3304 50.1042 9.33097 52.1748 9.33097V7.33097ZM45.3514 11.5452C43.7227 14.2597 42.9648 18.1965 42.9504 23.2216L44.9504 23.2273C44.9644 18.3376 45.7122 14.8312 47.0664 12.5742L45.3514 11.5452ZM42.9504 23.2244C42.9504 26.6353 43.2891 29.5372 43.9933 31.9044L45.9103 31.3342C45.2793 29.2128 44.9504 26.5181 44.9504 23.2244H42.9504ZM43.9955 31.9117C44.71 34.2488 45.7442 36.1061 47.156 37.3881L48.5005 35.9074C47.4407 34.9451 46.5572 33.4501 45.9081 31.3269L43.9955 31.9117ZM47.1607 37.3923C48.5802 38.665 50.2669 39.3097 52.1748 39.3097V37.3097C50.7589 37.3097 49.5479 36.8464 48.4958 35.9032L47.1607 37.3923ZM91.7584 1.36364H92.7584V0.363635H91.7584V1.36364ZM91.7584 45V46H92.7584V45H91.7584ZM82.5326 45H81.5326V46H82.5326V45ZM82.5326 10.1207H83.5326V9.12074H82.5326V10.1207ZM82.2769 10.1207V9.12074H81.9894L81.7458 9.27345L82.2769 10.1207ZM72.284 16.3849H71.284V18.192L72.8151 17.2322L72.284 16.3849ZM72.284 8.20312L71.7491 7.35823L71.284 7.65268V8.20312H72.284ZM83.0865 1.36364V0.363635H82.7966L82.5516 0.518741L83.0865 1.36364ZM90.7584 1.36364V45H92.7584V1.36364H90.7584ZM91.7584 44H82.5326V46H91.7584V44ZM83.5326 45V10.1207H81.5326V45H83.5326ZM82.5326 9.12074H82.2769V11.1207H82.5326V9.12074ZM81.7458 9.27345L71.7529 15.5377L72.8151 17.2322L82.808 10.968L81.7458 9.27345ZM73.284 16.3849V8.20312H71.284V16.3849H73.284ZM72.8189 9.04802L83.6215 2.20853L82.5516 0.518741L71.7491 7.35823L72.8189 9.04802ZM83.0865 2.36364H91.7584V0.363635H83.0865V2.36364ZM106.413 43.9347L105.986 44.8387L105.988 44.8397L106.413 43.9347ZM100.831 39.3537L101.647 38.7758L100.831 39.3537ZM98.6787 32.6634V31.6634H97.6558L97.6789 32.6859L98.6787 32.6634ZM107.628 32.6634L108.626 32.6046L108.57 31.6634H107.628V32.6634ZM109.758 36.7756L110.381 35.9931L109.758 36.7756ZM118.302 37.3935L118.802 38.2597L118.805 38.2576L118.302 37.3935ZM120.923 34.6875L120.046 34.2064L120.044 34.2102L120.923 34.6875ZM120.902 26.6335L120.025 27.1146L120.03 27.1228L120.902 26.6335ZM118.238 23.9062L117.74 24.7732V24.7732L118.238 23.9062ZM114.339 22.9048L114.349 21.9048H114.339V22.9048ZM110.61 23.6932L110.211 22.7763L110.207 22.778L110.61 23.6932ZM107.819 25.8452L107.643 26.8295L108.256 26.9394L108.625 26.4371L107.819 25.8452ZM99.6162 24.375L98.6202 24.2855L98.5382 25.1977L99.4397 25.3593L99.6162 24.375ZM101.683 1.36364V0.363635H100.769L100.687 1.27418L101.683 1.36364ZM128.359 1.36364H129.359V0.363635H128.359V1.36364ZM128.359 8.90625V9.90625H129.359V8.90625H128.359ZM109.289 8.90625V7.90625H108.387L108.295 8.80348L109.289 8.90625ZM108.16 19.8366L107.165 19.7339L107.052 20.8366H108.16V19.8366ZM108.416 19.8366V20.8366H108.932L109.231 20.4159L108.416 19.8366ZM111.889 17.152L112.306 18.0609L111.889 17.152ZM124.119 17.9403L124.633 17.0828V17.0828L124.119 17.9403ZM128.998 23.0327L128.123 23.5164L128.124 23.5188L128.998 23.0327ZM130.767 30.4474L129.767 30.4424L129.767 30.4523L130.767 30.4474ZM128.721 38.2884L127.865 37.7723L127.864 37.7739L128.721 38.2884ZM122.99 43.6577L123.457 44.5416L123.459 44.5406L122.99 43.6577ZM114.467 44.5966C111.58 44.5966 109.044 44.066 106.838 43.0296L105.988 44.8397C108.498 46.0192 111.331 46.5966 114.467 46.5966V44.5966ZM106.84 43.0306C104.638 41.9895 102.917 40.5694 101.647 38.7758L100.015 39.9315C101.5 42.03 103.5 43.6639 105.986 44.8387L106.84 43.0306ZM101.647 38.7758C100.391 37.0016 99.731 34.9672 99.6784 32.6408L97.6789 32.6859C97.74 35.3879 98.515 37.8137 100.015 39.9315L101.647 38.7758ZM98.6787 33.6634H107.628V31.6634H98.6787V33.6634ZM106.629 32.7221C106.745 34.6951 107.591 36.3294 109.136 37.5581L110.381 35.9931C109.283 35.1195 108.709 34.0123 108.626 32.6046L106.629 32.7221ZM109.136 37.5581C110.648 38.7612 112.441 39.3523 114.467 39.3523V37.3523C112.856 37.3523 111.511 36.8922 110.381 35.9931L109.136 37.5581ZM114.467 39.3523C116.068 39.3523 117.523 38.9977 118.802 38.2597L117.803 36.5273C116.866 37.0677 115.764 37.3523 114.467 37.3523V39.3523ZM118.805 38.2576C120.087 37.5113 121.09 36.4749 121.802 35.1648L120.044 34.2102C119.506 35.2013 118.762 35.9688 117.799 36.5293L118.805 38.2576ZM121.8 35.1686C122.53 33.8377 122.882 32.333 122.882 30.6818H120.882C120.882 32.042 120.594 33.2078 120.046 34.2064L121.8 35.1686ZM122.882 30.6818C122.882 29.0022 122.523 27.4795 121.774 26.1443L120.03 27.1228C120.587 28.1171 120.882 29.2933 120.882 30.6818H122.882ZM121.778 26.1524C121.052 24.8291 120.034 23.7855 118.737 23.0393L117.74 24.7732C118.715 25.3338 119.473 26.1084 120.025 27.1146L121.778 26.1524ZM118.737 23.0393C117.435 22.2908 115.963 21.9205 114.349 21.9049L114.329 23.9048C115.641 23.9175 116.769 24.2149 117.74 24.7732L118.737 23.0393ZM114.339 21.9048C112.919 21.9048 111.541 22.1976 110.211 22.7763L111.01 24.6101C112.095 24.1376 113.202 23.9048 114.339 23.9048V21.9048ZM110.207 22.778C108.879 23.3631 107.8 24.1823 107.013 25.2533L108.625 26.4371C109.174 25.6899 109.955 25.0744 111.014 24.6083L110.207 22.778ZM107.996 24.8609L99.7926 23.3907L99.4397 25.3593L107.643 26.8295L107.996 24.8609ZM100.612 24.4645L102.679 1.45309L100.687 1.27418L98.6202 24.2855L100.612 24.4645ZM101.683 2.36364H128.359V0.363635H101.683V2.36364ZM127.359 1.36364V8.90625H129.359V1.36364H127.359ZM128.359 7.90625H109.289V9.90625H128.359V7.90625ZM108.295 8.80348L107.165 19.7339L109.155 19.9394L110.284 9.00902L108.295 8.80348ZM108.16 20.8366H108.416V18.8366H108.16V20.8366ZM109.231 20.4159C109.871 19.5145 110.872 18.7185 112.306 18.0609L111.472 16.2431C109.809 17.0059 108.494 17.9997 107.601 19.2574L109.231 20.4159ZM112.306 18.0609C113.708 17.4178 115.296 17.0866 117.088 17.0866V15.0866C115.044 15.0866 113.167 15.4657 111.472 16.2431L112.306 18.0609ZM117.088 17.0866C119.552 17.0866 121.715 17.6639 123.604 18.7978L124.633 17.0828C122.404 15.7451 119.879 15.0866 117.088 15.0866V17.0866ZM123.604 18.7978C125.509 19.9405 127.013 21.5071 128.123 23.5164L129.874 22.549C128.598 20.24 126.848 18.4118 124.633 17.0828L123.604 18.7978ZM128.124 23.5188C129.223 25.4935 129.78 27.7915 129.767 30.4424L131.767 30.4525C131.782 27.5068 131.16 24.8616 129.872 22.5465L128.124 23.5188ZM129.767 30.4523C129.78 33.2283 129.138 35.6582 127.865 37.7723L129.578 38.8044C131.06 36.3446 131.782 33.5473 131.767 30.4426L129.767 30.4523ZM127.864 37.7739C126.598 39.8829 124.826 41.5488 122.52 42.7748L123.459 44.5406C126.069 43.1529 128.117 41.2393 129.579 38.8028L127.864 37.7739ZM122.522 42.7738C120.246 43.978 117.571 44.5966 114.467 44.5966V46.5966C117.841 46.5966 120.847 45.9225 123.457 44.5416L122.522 42.7738Z" fill="#D3A60D" mask="url(#path-1-outside-1_394_82)"/>
</svg>
