<svg width="132" height="46" viewBox="0 0 132 46" fill="none" xmlns="http://www.w3.org/2000/svg">
<mask id="path-1-outside-1_394_61" maskUnits="userSpaceOnUse" x="-1" y="-1" width="134" height="48" fill="black">
<rect fill="white" x="-1" y="-1" width="134" height="48"/>
<path d="M0.90373 45V38.3523L16.4364 23.9702C17.7574 22.6918 18.8654 21.5412 19.7603 20.5185C20.6694 19.4957 21.3583 18.4943 21.827 17.5142C22.2958 16.5199 22.5302 15.4474 22.5302 14.2969C22.5302 13.0185 22.239 11.9176 21.6566 10.9943C21.0742 10.0568 20.2787 9.33949 19.2702 8.84233C18.2617 8.33097 17.1182 8.07528 15.8398 8.07528C14.5046 8.07528 13.3398 8.34517 12.3455 8.88494C11.3512 9.42472 10.5841 10.1989 10.0444 11.2074C9.50458 12.2159 9.2347 13.4162 9.2347 14.8082H0.477594C0.477594 11.9531 1.1239 9.47443 2.41651 7.37216C3.70913 5.26989 5.52021 3.64347 7.84975 2.4929C10.1793 1.34233 12.864 0.767044 15.9037 0.767044C19.0287 0.767044 21.7489 1.32102 24.0642 2.42898C26.3938 3.52273 28.2049 5.04261 29.4975 6.98864C30.7901 8.93466 31.4364 11.1648 31.4364 13.679C31.4364 15.3267 31.1097 16.9531 30.4563 18.5582C29.8171 20.1634 28.6736 21.946 27.0259 23.9062C25.3782 25.8523 23.0557 28.1889 20.0586 30.9162L13.6878 37.1591V37.4574H32.0117V45H0.90373ZM52.2061 45.9588C48.5413 45.9446 45.3879 45.0426 42.7458 43.2528C40.118 41.4631 38.0939 38.8707 36.6734 35.4759C35.2672 32.081 34.5711 27.9972 34.5853 23.2244C34.5853 18.4659 35.2885 14.4105 36.6947 11.0582C38.1152 7.70596 40.1393 5.15625 42.7672 3.40909C45.4092 1.64773 48.5555 0.767044 52.2061 0.767044C55.8566 0.767044 58.9958 1.64773 61.6237 3.40909C64.2657 5.17045 66.297 7.72727 67.7174 11.0795C69.1379 14.4176 69.841 18.4659 69.8268 23.2244C69.8268 28.0114 69.1166 32.1023 67.6961 35.4972C66.2899 38.892 64.2728 41.4844 61.645 43.2741C59.0172 45.0639 55.8708 45.9588 52.2061 45.9588ZM52.2061 38.3097C54.7061 38.3097 56.7018 37.0526 58.1933 34.5384C59.6848 32.0241 60.4234 28.2528 60.4092 23.2244C60.4092 19.9148 60.0683 17.1591 59.3865 14.9574C58.7189 12.7557 57.7672 11.1009 56.5314 9.9929C55.3098 8.88494 53.868 8.33097 52.2061 8.33097C49.7203 8.33097 47.7316 9.57386 46.2402 12.0597C44.7487 14.5455 43.9958 18.267 43.9816 23.2244C43.9816 26.5767 44.3155 29.375 44.9831 31.6193C45.6649 33.8494 46.6237 35.5256 47.8595 36.6477C49.0953 37.7557 50.5441 38.3097 52.2061 38.3097ZM91.7897 1.36364V45H82.5638V10.1207H82.3081L72.3152 16.3849V8.20312L83.1178 1.36364H91.7897ZM115.308 45.5966C113.064 45.5824 110.897 45.206 108.809 44.4673C106.735 43.7287 104.875 42.5284 103.227 40.8665C101.579 39.2045 100.272 37.0028 99.3065 34.2614C98.3548 31.5199 97.8789 28.1534 97.8789 24.1619C97.8931 20.4972 98.3122 17.223 99.136 14.3395C99.9741 11.4418 101.167 8.98437 102.716 6.96733C104.278 4.95028 106.146 3.41619 108.319 2.36505C110.493 1.29971 112.929 0.767044 115.628 0.767044C118.539 0.767044 121.11 1.33523 123.341 2.47159C125.571 3.59375 127.36 5.12074 128.71 7.05256C130.074 8.98438 130.897 11.1506 131.181 13.5511H122.083C121.728 12.0313 120.983 10.8381 119.846 9.97159C118.71 9.10511 117.304 8.67188 115.628 8.67188C112.787 8.67188 110.628 9.90767 109.15 12.3793C107.687 14.8509 106.941 18.2102 106.913 22.4574H107.211C107.865 21.1648 108.745 20.0639 109.853 19.1548C110.976 18.2315 112.247 17.5284 113.667 17.0455C115.102 16.5483 116.615 16.2997 118.206 16.2997C120.791 16.2997 123.092 16.9105 125.109 18.1321C127.126 19.3395 128.717 21.0014 129.882 23.1179C131.047 25.2344 131.629 27.6562 131.629 30.3835C131.629 33.3381 130.94 35.9659 129.562 38.267C128.199 40.5682 126.288 42.3722 123.831 43.679C121.387 44.9716 118.547 45.6108 115.308 45.5966ZM115.265 38.3523C116.686 38.3523 117.957 38.0114 119.079 37.3295C120.201 36.6477 121.082 35.7244 121.721 34.5597C122.36 33.3949 122.68 32.0881 122.68 30.6392C122.68 29.1903 122.36 27.8906 121.721 26.7401C121.096 25.5895 120.23 24.6733 119.122 23.9915C118.014 23.3097 116.75 22.9688 115.329 22.9688C114.264 22.9688 113.277 23.1676 112.368 23.5653C111.473 23.9631 110.684 24.517 110.003 25.2273C109.335 25.9375 108.809 26.7614 108.426 27.6989C108.042 28.6222 107.851 29.6094 107.851 30.6605C107.851 32.0668 108.17 33.3523 108.809 34.517C109.463 35.6818 110.343 36.6122 111.451 37.3082C112.574 38.0043 113.845 38.3523 115.265 38.3523Z"/>
</mask>
<path d="M0.90373 45H-0.0962696V46H0.90373V45ZM0.90373 38.3523L0.224322 37.6185L-0.0962696 37.9154V38.3523H0.90373ZM16.4364 23.9702L17.1158 24.7039L17.1239 24.6964L17.1318 24.6888L16.4364 23.9702ZM19.7603 20.5185L19.0128 19.8541L19.0077 19.86L19.7603 20.5185ZM21.827 17.5142L22.7292 17.9457L22.7316 17.9406L21.827 17.5142ZM21.6566 10.9943L20.8071 11.522L20.8108 11.5278L21.6566 10.9943ZM19.2702 8.84233L18.8179 9.73429L18.8281 9.73927L19.2702 8.84233ZM10.0444 11.2074L10.926 11.6793L10.0444 11.2074ZM9.2347 14.8082V15.8082H10.2347V14.8082H9.2347ZM0.477594 14.8082H-0.522406V15.8082H0.477594V14.8082ZM2.41651 7.37216L3.26837 7.89594L2.41651 7.37216ZM7.84975 2.4929L7.40692 1.59629L7.40692 1.59629L7.84975 2.4929ZM24.0642 2.42898L23.6326 3.33104L23.6392 3.33417L24.0642 2.42898ZM29.4975 6.98864L28.6645 7.54193L28.6645 7.54193L29.4975 6.98864ZM30.4563 18.5582L29.5301 18.1812L29.5272 18.1883L30.4563 18.5582ZM27.0259 23.9062L27.7891 24.5524L27.7914 24.5497L27.0259 23.9062ZM20.0586 30.9162L19.3855 30.1766L19.3719 30.189L19.3587 30.202L20.0586 30.9162ZM13.6878 37.1591L12.9879 36.4449L12.6878 36.7389V37.1591H13.6878ZM13.6878 37.4574H12.6878V38.4574H13.6878V37.4574ZM32.0117 37.4574H33.0117V36.4574H32.0117V37.4574ZM32.0117 45V46H33.0117V45H32.0117ZM1.90373 45V38.3523H-0.0962696V45H1.90373ZM1.58314 39.086L17.1158 24.7039L15.757 23.2364L0.224322 37.6185L1.58314 39.086ZM17.1318 24.6888C18.4663 23.3973 19.5947 22.2263 20.5128 21.177L19.0077 19.86C18.1361 20.8561 17.0485 21.9862 15.741 23.2516L17.1318 24.6888ZM20.5077 21.1828C21.4637 20.1074 22.2111 19.0288 22.7292 17.9457L20.9249 17.0827C20.5054 17.9598 19.8751 18.8841 19.0129 19.8541L20.5077 21.1828ZM22.7316 17.9406C23.2661 16.8067 23.5302 15.5878 23.5302 14.2969H21.5302C21.5302 15.3071 21.3254 16.2331 20.9225 17.0878L22.7316 17.9406ZM23.5302 14.2969C23.5302 12.8625 23.2017 11.5695 22.5024 10.4608L20.8108 11.5278C21.2762 12.2657 21.5302 13.1744 21.5302 14.2969H23.5302ZM22.506 10.4666C21.8231 9.3673 20.8852 8.52353 19.7124 7.94539L18.8281 9.73927C19.6723 10.1554 20.3253 10.7463 20.8071 11.522L22.506 10.4666ZM19.7224 7.95043C18.5564 7.3592 17.2547 7.07528 15.8398 7.07528V9.07528C16.9818 9.07528 17.967 9.30273 18.818 9.73423L19.7224 7.95043ZM15.8398 7.07528C14.368 7.07528 13.0335 7.37361 11.8684 8.00609L12.8226 9.7638C13.6461 9.31673 14.6412 9.07528 15.8398 9.07528V7.07528ZM11.8684 8.00609C10.7004 8.64017 9.79358 9.55674 9.16269 10.7355L10.926 11.6793C11.3747 10.841 12.002 10.2093 12.8226 9.7638L11.8684 8.00609ZM9.16269 10.7355C8.5301 11.9175 8.2347 13.2869 8.2347 14.8082H10.2347C10.2347 13.5455 10.4791 12.5144 10.926 11.6793L9.16269 10.7355ZM9.2347 13.8082H0.477594V15.8082H9.2347V13.8082ZM1.47759 14.8082C1.47759 12.1085 2.08701 9.81727 3.26837 7.89594L1.56466 6.84838C0.160795 9.13159 -0.522406 11.7977 -0.522406 14.8082H1.47759ZM3.26837 7.89594C4.45712 5.96259 6.12241 4.46136 8.29259 3.3895L7.40692 1.59629C4.91801 2.82557 2.96114 4.57719 1.56466 6.84838L3.26837 7.89594ZM8.29259 3.3895C10.4629 2.3176 12.9915 1.76704 15.9037 1.76704V-0.232956C12.7364 -0.232956 9.89574 0.367055 7.40692 1.59629L8.29259 3.3895ZM15.9037 1.76704C18.9113 1.76704 21.4781 2.30004 23.6326 3.33102L24.4959 1.52694C22.0197 0.342006 19.1462 -0.232956 15.9037 -0.232956V1.76704ZM23.6392 3.33417C25.8205 4.3583 27.4832 5.76354 28.6645 7.54193L30.3305 6.43534C28.9265 4.32168 26.9671 2.68715 24.4892 1.52378L23.6392 3.33417ZM28.6645 7.54193C29.8398 9.31137 30.4364 11.3459 30.4364 13.679H32.4364C32.4364 10.9836 31.7404 8.55795 30.3305 6.43534L28.6645 7.54193ZM30.4364 13.679C30.4364 15.1908 30.1373 16.6895 29.5301 18.1812L31.3825 18.9353C32.0821 17.2167 32.4364 15.4626 32.4364 13.679H30.4364ZM29.5272 18.1883C28.9417 19.6586 27.8692 21.3489 26.2604 23.2628L27.7914 24.5497C29.478 22.5432 30.6924 20.6681 31.3853 18.9282L29.5272 18.1883ZM26.2627 23.2601C24.6543 25.1596 22.3669 27.4636 19.3855 30.1766L20.7316 31.6558C23.7445 28.9142 26.102 26.5449 27.7891 24.5524L26.2627 23.2601ZM19.3587 30.202L12.9879 36.4449L14.3877 37.8733L20.7585 31.6304L19.3587 30.202ZM12.6878 37.1591V37.4574H14.6878V37.1591H12.6878ZM13.6878 38.4574H32.0117V36.4574H13.6878V38.4574ZM31.0117 37.4574V45H33.0117V37.4574H31.0117ZM32.0117 44H0.90373V46H32.0117V44ZM52.2061 45.9588L52.2022 46.9588H52.2061V45.9588ZM42.7458 43.2528L42.1829 44.0794L42.185 44.0808L42.7458 43.2528ZM36.6734 35.4759L35.7495 35.8585L35.7509 35.8618L36.6734 35.4759ZM34.5853 23.2244L35.5853 23.2274V23.2244H34.5853ZM36.6947 11.0582L35.774 10.6681L35.7726 10.6714L36.6947 11.0582ZM42.7672 3.40909L43.3208 4.24183L43.3219 4.24114L42.7672 3.40909ZM61.6237 3.40909L61.0669 4.23976L61.069 4.24114L61.6237 3.40909ZM67.7174 11.0795L66.7967 11.4697L66.7973 11.4711L67.7174 11.0795ZM69.8268 23.2244L68.8268 23.2214V23.2244H69.8268ZM67.6961 35.4972L66.7736 35.1112L66.7723 35.1145L67.6961 35.4972ZM61.645 43.2741L62.2079 44.1007L61.645 43.2741ZM58.1933 34.5384L59.0533 35.0486L58.1933 34.5384ZM60.4092 23.2244H59.4092L59.4092 23.2273L60.4092 23.2244ZM59.3865 14.9574L58.4295 15.2476L58.4312 15.2532L59.3865 14.9574ZM56.5314 9.9929L55.8595 10.7336L55.8638 10.7375L56.5314 9.9929ZM46.2402 12.0597L45.3827 11.5452L46.2402 12.0597ZM43.9816 23.2244L42.9816 23.2216V23.2244H43.9816ZM44.9831 31.6193L44.0245 31.9044L44.0268 31.9117L44.9831 31.6193ZM47.8595 36.6477L47.1872 37.3881L47.1919 37.3923L47.8595 36.6477ZM52.21 44.9588C48.7135 44.9453 45.7608 44.0874 43.3067 42.4249L42.185 44.0808C45.0149 45.9978 48.3691 46.9439 52.2022 46.9588L52.21 44.9588ZM43.3088 42.4263C40.8649 40.7618 38.9537 38.335 37.5959 35.0899L35.7509 35.8618C37.234 39.4065 39.3712 42.1643 42.1829 44.0794L43.3088 42.4263ZM37.5973 35.0932C36.2543 31.8511 35.5714 27.9055 35.5853 23.2274L33.5853 23.2215C33.5709 28.0888 34.28 32.3108 35.7495 35.8585L37.5973 35.0932ZM35.5853 23.2244C35.5853 18.5597 36.2752 14.6433 37.6169 11.4451L35.7726 10.6714C34.3017 14.1777 33.5853 18.3721 33.5853 23.2244H35.5853ZM37.6155 11.4484C38.9716 8.24796 40.88 5.86466 43.3208 4.24183L42.2135 2.57635C39.3986 4.44784 37.2588 7.16397 35.774 10.6681L37.6155 11.4484ZM43.3219 4.24114C45.7761 2.60501 48.7225 1.76704 52.2061 1.76704V-0.232956C48.3885 -0.232956 45.0423 0.690445 42.2125 2.57704L43.3219 4.24114ZM52.2061 1.76704C55.6897 1.76704 58.628 2.60505 61.0669 4.23976L62.1805 2.57843C59.3637 0.690407 56.0235 -0.232956 52.2061 -0.232956V1.76704ZM61.069 4.24114C63.5256 5.87888 65.441 8.27022 66.7967 11.4697L68.6382 10.6894C67.153 7.18432 65.0059 4.46203 62.1784 2.57704L61.069 4.24114ZM66.7973 11.4711C68.1509 14.6521 68.8407 18.5582 68.8268 23.2214L70.8268 23.2274C70.8413 18.3736 70.1249 14.1831 68.6376 10.688L66.7973 11.4711ZM68.8268 23.2244C68.8268 27.9169 68.1301 31.8693 66.7736 35.1112L68.6186 35.8831C70.1031 32.3352 70.8268 28.1059 70.8268 23.2244H68.8268ZM66.7723 35.1145C65.4286 38.3581 63.525 40.7838 61.0821 42.4476L62.2079 44.1007C65.0206 42.185 67.1511 39.426 68.62 35.8799L66.7723 35.1145ZM61.0821 42.4476C58.6445 44.1078 55.7016 44.9588 52.2061 44.9588V46.9588C56.0401 46.9588 59.3898 46.02 62.2079 44.1007L61.0821 42.4476ZM52.2061 39.3097C55.1246 39.3097 57.4179 37.8055 59.0533 35.0486L57.3332 34.0281C55.9858 36.2996 54.2876 37.3097 52.2061 37.3097V39.3097ZM59.0533 35.0486C60.6815 32.3039 61.4236 28.3165 61.4092 23.2216L59.4092 23.2273C59.4232 28.1892 58.688 31.7444 57.3332 34.0281L59.0533 35.0486ZM61.4092 23.2244C61.4092 19.8542 61.063 16.9908 60.3417 14.6616L58.4312 15.2532C59.0735 17.3274 59.4092 19.9753 59.4092 23.2244H61.4092ZM60.3434 14.6672C59.6424 12.3552 58.6138 10.5168 57.1989 9.24833L55.8638 10.7375C56.9205 11.6849 57.7953 13.1562 58.4295 15.2476L60.3434 14.6672ZM57.2032 9.25218C55.796 7.97594 54.1142 7.33097 52.2061 7.33097V9.33097C53.6218 9.33097 54.8235 9.79394 55.8595 10.7336L57.2032 9.25218ZM52.2061 7.33097C49.3051 7.33097 47.0194 8.81737 45.3827 11.5452L47.0977 12.5742C48.4439 10.3304 50.1355 9.33097 52.2061 9.33097V7.33097ZM45.3827 11.5452C43.7539 14.2597 42.996 18.1965 42.9816 23.2216L44.9816 23.2273C44.9957 18.3376 45.7435 14.8312 47.0977 12.5742L45.3827 11.5452ZM42.9816 23.2244C42.9816 26.6353 43.3204 29.5372 44.0246 31.9044L45.9416 31.3342C45.3105 29.2128 44.9816 26.5181 44.9816 23.2244H42.9816ZM44.0268 31.9117C44.7413 34.2488 45.7754 36.1061 47.1872 37.3881L48.5317 35.9074C47.472 34.9451 46.5885 33.4501 45.9394 31.3269L44.0268 31.9117ZM47.1919 37.3923C48.6115 38.665 50.2981 39.3097 52.2061 39.3097V37.3097C50.7902 37.3097 49.5791 36.8464 48.527 35.9032L47.1919 37.3923ZM91.7897 1.36364H92.7897V0.363635H91.7897V1.36364ZM91.7897 45V46H92.7897V45H91.7897ZM82.5638 45H81.5638V46H82.5638V45ZM82.5638 10.1207H83.5638V9.12074H82.5638V10.1207ZM82.3081 10.1207V9.12074H82.0206L81.777 9.27345L82.3081 10.1207ZM72.3152 16.3849H71.3152V18.192L72.8464 17.2322L72.3152 16.3849ZM72.3152 8.20312L71.7803 7.35823L71.3152 7.65268V8.20312H72.3152ZM83.1178 1.36364V0.363635H82.8278L82.5829 0.518741L83.1178 1.36364ZM90.7897 1.36364V45H92.7897V1.36364H90.7897ZM91.7897 44H82.5638V46H91.7897V44ZM83.5638 45V10.1207H81.5638V45H83.5638ZM82.5638 9.12074H82.3081V11.1207H82.5638V9.12074ZM81.777 9.27345L71.7841 15.5377L72.8464 17.2322L82.8393 10.968L81.777 9.27345ZM73.3152 16.3849V8.20312H71.3152V16.3849H73.3152ZM72.8502 9.04802L83.6527 2.20853L82.5829 0.518741L71.7803 7.35823L72.8502 9.04802ZM83.1178 2.36364H91.7897V0.363635H83.1178V2.36364ZM115.308 45.5966L115.302 46.5966L115.304 46.5966L115.308 45.5966ZM108.809 44.4673L108.474 45.4094L108.476 45.4101L108.809 44.4673ZM103.227 40.8665L102.517 41.5705L103.227 40.8665ZM99.3065 34.2614L98.3618 34.5893L98.3633 34.5937L99.3065 34.2614ZM97.8789 24.1619L96.8789 24.1581V24.1619H97.8789ZM99.136 14.3395L98.1754 14.0617L98.1745 14.0648L99.136 14.3395ZM102.716 6.96733L101.925 6.35492L101.922 6.35843L102.716 6.96733ZM108.319 2.36505L108.755 3.2653L108.759 3.26297L108.319 2.36505ZM123.341 2.47159L122.887 3.3626L122.891 3.36488L123.341 2.47159ZM128.71 7.05256L127.89 7.62522L127.893 7.62924L128.71 7.05256ZM131.182 13.5511V14.5511H132.307L132.175 13.4336L131.182 13.5511ZM122.083 13.5511L121.11 13.7787L121.29 14.5511H122.083V13.5511ZM109.15 12.3793L108.292 11.8662L108.29 11.8699L109.15 12.3793ZM106.913 22.4574L105.913 22.4507L105.906 23.4574H106.913V22.4574ZM107.211 22.4574V23.4574H107.826L108.104 22.9085L107.211 22.4574ZM109.853 19.1548L110.488 19.9279L110.489 19.927L109.853 19.1548ZM113.667 17.0455L113.989 17.9922L113.995 17.9903L113.667 17.0455ZM125.109 18.1321L124.591 18.9875L124.595 18.9901L125.109 18.1321ZM129.562 38.267L128.704 37.7533L128.702 37.7572L129.562 38.267ZM123.831 43.679L124.298 44.5629L124.3 44.5619L123.831 43.679ZM119.079 37.3295L119.598 38.1842L119.079 37.3295ZM121.721 34.5597L122.598 35.0408L121.721 34.5597ZM121.721 26.7401L120.843 27.2174L120.847 27.2257L121.721 26.7401ZM119.122 23.9915L119.646 23.1398L119.122 23.9915ZM112.368 23.5653L111.967 22.6492L111.961 22.6515L112.368 23.5653ZM110.003 25.2273L109.281 24.5347L109.274 24.5424L110.003 25.2273ZM108.426 27.6989L109.349 28.0825L109.351 28.0775L108.426 27.6989ZM108.809 34.517L107.933 34.9982L107.937 35.0063L108.809 34.517ZM111.451 37.3082L110.919 38.155L110.924 38.158L111.451 37.3082ZM115.314 44.5966C113.18 44.5831 111.124 44.2255 109.143 43.5246L108.476 45.4101C110.67 46.1864 112.947 46.5817 115.302 46.5966L115.314 44.5966ZM109.145 43.5253C107.221 42.8401 105.486 41.7248 103.937 40.1624L102.517 41.5705C104.263 43.332 106.25 44.6173 108.474 45.4094L109.145 43.5253ZM103.937 40.1624C102.416 38.6279 101.178 36.5639 100.25 33.9291L98.3633 34.5937C99.3668 37.4418 100.743 39.7812 102.517 41.5705L103.937 40.1624ZM100.251 33.9334C99.347 31.3287 98.8789 28.0806 98.8789 24.1619H96.8789C96.8789 28.2262 97.3626 31.711 98.3618 34.5893L100.251 33.9334ZM98.8789 24.1658C98.8929 20.5732 99.3037 17.3927 100.098 14.6142L98.1745 14.0648C97.3206 17.0533 96.8934 20.4212 96.8789 24.1581L98.8789 24.1658ZM100.097 14.6173C100.906 11.8176 102.049 9.47775 103.509 7.57623L101.922 6.35843C100.285 8.491 99.0418 11.066 98.1754 14.0617L100.097 14.6173ZM103.506 7.57973C104.98 5.67763 106.728 4.24537 108.755 3.26529L107.884 1.46482C105.564 2.58701 103.577 4.22293 101.925 6.35493L103.506 7.57973ZM108.759 3.26297C110.781 2.27219 113.064 1.76704 115.628 1.76704V-0.232956C112.794 -0.232956 110.205 0.327238 107.879 1.46713L108.759 3.26297ZM115.628 1.76704C118.407 1.76704 120.818 2.30873 122.887 3.36259L123.795 1.5806C121.403 0.361718 118.671 -0.232956 115.628 -0.232956V1.76704ZM122.891 3.36488C124.982 4.41708 126.641 5.83742 127.89 7.62521L129.53 6.47991C128.08 4.40406 126.159 2.77042 123.79 1.5783L122.891 3.36488ZM127.893 7.62924C129.158 9.42192 129.923 11.4296 130.188 13.6687L132.175 13.4336C131.871 10.8716 130.989 8.54682 129.527 6.47587L127.893 7.62924ZM131.182 12.5511H122.083V14.5511H131.182V12.5511ZM123.057 13.3236C122.655 11.5999 121.791 10.197 120.453 9.17639L119.24 10.7668C120.174 11.4791 120.802 12.4626 121.11 13.7787L123.057 13.3236ZM120.453 9.17639C119.113 8.15505 117.483 7.67188 115.628 7.67188V9.67188C117.124 9.67188 118.307 10.0552 119.24 10.7668L120.453 9.17639ZM115.628 7.67188C112.429 7.67188 109.947 9.09764 108.292 11.8662L110.009 12.8923C111.308 10.7177 113.144 9.67188 115.628 9.67188V7.67188ZM108.29 11.8699C106.703 14.5497 105.942 18.1055 105.913 22.4507L107.913 22.4641C107.941 18.3149 108.671 15.152 110.011 12.8887L108.29 11.8699ZM106.913 23.4574H107.211V21.4574H106.913V23.4574ZM108.104 22.9085C108.695 21.7386 109.488 20.7478 110.488 19.9279L109.219 18.3818C108.002 19.38 107.034 20.5909 106.319 22.0063L108.104 22.9085ZM110.489 19.927C111.515 19.0828 112.679 18.4376 113.989 17.9922L113.345 16.0987C111.815 16.6192 110.436 17.3802 109.218 18.3826L110.489 19.927ZM113.995 17.9903C115.319 17.5314 116.721 17.2997 118.206 17.2997V15.2997C116.509 15.2997 114.885 15.5652 113.34 16.1006L113.995 17.9903ZM118.206 17.2997C120.626 17.2997 122.745 17.8695 124.591 18.9875L125.627 17.2767C123.439 15.9515 120.955 15.2997 118.206 15.2997V17.2997ZM124.595 18.9901C126.456 20.1039 127.924 21.6343 129.006 23.6L130.758 22.6358C129.51 20.3686 127.796 18.575 125.623 17.2741L124.595 18.9901ZM129.006 23.6C130.079 25.5506 130.629 27.8028 130.629 30.3835H132.629C132.629 27.5097 132.014 24.9181 130.758 22.6358L129.006 23.6ZM130.629 30.3835C130.629 33.1761 129.98 35.6229 128.704 37.7533L130.42 38.7808C131.9 36.3089 132.629 33.5001 132.629 30.3835H130.629ZM128.702 37.7572C127.436 39.8939 125.663 41.5717 123.361 42.7961L124.3 44.5619C126.913 43.1726 128.961 41.2424 130.422 38.7768L128.702 37.7572ZM123.363 42.7951C121.088 43.9985 118.415 44.6102 115.312 44.5966L115.304 46.5966C118.678 46.6114 121.687 45.9447 124.298 44.5629L123.363 42.7951ZM115.265 39.3523C116.853 39.3523 118.307 38.9688 119.598 38.1842L118.56 36.4749C117.607 37.0539 116.518 37.3523 115.265 37.3523V39.3523ZM119.598 38.1842C120.872 37.4102 121.875 36.3573 122.598 35.0408L120.845 34.0786C120.289 35.0916 119.53 35.8853 118.56 36.4749L119.598 38.1842ZM122.598 35.0408C123.325 33.7154 123.68 32.2407 123.68 30.6392H121.68C121.68 31.9355 121.396 33.0743 120.845 34.0786L122.598 35.0408ZM123.68 30.6392C123.68 29.0379 123.325 27.5681 122.595 26.2544L120.847 27.2257C121.396 28.2131 121.68 29.3428 121.68 30.6392H123.68ZM122.6 26.2627C121.892 24.9596 120.904 23.9139 119.646 23.1398L118.598 24.8431C119.556 25.4327 120.3 26.2194 120.843 27.2174L122.6 26.2627ZM119.646 23.1398C118.366 22.3522 116.917 21.9688 115.329 21.9688V23.9688C116.582 23.9688 117.662 24.2671 118.598 24.8431L119.646 23.1398ZM115.329 21.9688C114.136 21.9688 113.011 22.1922 111.967 22.6492L112.768 24.4815C113.542 24.143 114.392 23.9688 115.329 23.9688V21.9688ZM111.961 22.6515C110.947 23.1022 110.052 23.7315 109.281 24.5347L110.724 25.9198C111.316 25.3026 111.998 24.824 112.774 24.4792L111.961 22.6515ZM109.274 24.5424C108.519 25.3452 107.928 26.274 107.5 27.3202L109.351 28.0775C109.69 27.2488 110.151 26.5298 110.731 25.9122L109.274 24.5424ZM107.502 27.3153C107.066 28.3663 106.851 29.4846 106.851 30.6605H108.851C108.851 29.7342 109.019 28.878 109.349 28.0825L107.502 27.3153ZM106.851 30.6605C106.851 32.2248 107.208 33.6773 107.933 34.9981L109.686 34.0359C109.132 33.0273 108.851 31.9087 108.851 30.6605H106.851ZM107.937 35.0063C108.671 36.3136 109.667 37.3682 110.919 38.155L111.983 36.4615C111.02 35.8562 110.255 35.05 109.681 34.0278L107.937 35.0063ZM110.924 38.158C112.217 38.9597 113.673 39.3523 115.265 39.3523V37.3523C114.016 37.3523 112.93 37.0488 111.978 36.4584L110.924 38.158Z" fill="#D3A60D" mask="url(#path-1-outside-1_394_61)"/>
</svg>
