<svg width="128" height="46" viewBox="0 0 128 46" fill="none" xmlns="http://www.w3.org/2000/svg">
<mask id="path-1-outside-1_394_67" maskUnits="userSpaceOnUse" x="-1" y="-1" width="130" height="48" fill="black">
<rect fill="white" x="-1" y="-1" width="130" height="48"/>
<path d="M0.866621 45V38.3523L16.3993 23.9702C17.7203 22.6918 18.8283 21.5412 19.7232 20.5185C20.6322 19.4957 21.3212 18.4943 21.7899 17.5142C22.2587 16.5199 22.493 15.4474 22.493 14.2969C22.493 13.0185 22.2018 11.9176 21.6195 10.9943C21.0371 10.0568 20.2416 9.33949 19.2331 8.84233C18.2246 8.33097 17.0811 8.07528 15.8027 8.07528C14.4675 8.07528 13.3027 8.34517 12.3084 8.88494C11.3141 9.42472 10.547 10.1989 10.0072 11.2074C9.46747 12.2159 9.19759 13.4162 9.19759 14.8082H0.440485C0.440485 11.9531 1.08679 9.47443 2.37941 7.37216C3.67202 5.26989 5.4831 3.64347 7.81264 2.4929C10.1422 1.34233 12.8268 0.767044 15.8666 0.767044C18.9916 0.767044 21.7118 1.32102 24.0271 2.42898C26.3567 3.52273 28.1678 5.04261 29.4604 6.98864C30.753 8.93466 31.3993 11.1648 31.3993 13.679C31.3993 15.3267 31.0726 16.9531 30.4192 18.5582C29.78 20.1634 28.6365 21.946 26.9888 23.9062C25.3411 25.8523 23.0186 28.1889 20.0215 30.9162L13.6507 37.1591V37.4574H31.9746V45H0.866621ZM52.169 45.9588C48.5042 45.9446 45.3508 45.0426 42.7087 43.2528C40.0809 41.4631 38.0568 38.8707 36.6363 35.4759C35.23 32.081 34.534 27.9972 34.5482 23.2244C34.5482 18.4659 35.2514 14.4105 36.6576 11.0582C38.0781 7.70596 40.1022 5.15625 42.73 3.40909C45.3721 1.64773 48.5184 0.767044 52.169 0.767044C55.8195 0.767044 58.9587 1.64773 61.5866 3.40909C64.2286 5.17045 66.2599 7.72727 67.6803 11.0795C69.1008 14.4176 69.8039 18.4659 69.7897 23.2244C69.7897 28.0114 69.0795 32.1023 67.659 35.4972C66.2528 38.892 64.2357 41.4844 61.6079 43.2741C58.98 45.0639 55.8337 45.9588 52.169 45.9588ZM52.169 38.3097C54.669 38.3097 56.6647 37.0526 58.1562 34.5384C59.6477 32.0241 60.3863 28.2528 60.3721 23.2244C60.3721 19.9148 60.0312 17.1591 59.3494 14.9574C58.6818 12.7557 57.73 11.1009 56.4943 9.9929C55.2727 8.88494 53.8309 8.33097 52.169 8.33097C49.6832 8.33097 47.6945 9.57386 46.2031 12.0597C44.7116 14.5455 43.9587 18.267 43.9445 23.2244C43.9445 26.5767 44.2783 29.375 44.946 31.6193C45.6278 33.8494 46.5866 35.5256 47.8224 36.6477C49.0582 37.7557 50.507 38.3097 52.169 38.3097ZM91.7526 1.36364V45H82.5267V10.1207H82.271L72.2781 16.3849V8.20312L83.0807 1.36364H91.7526ZM100.25 45L118.339 9.20454V8.90625H97.2665V1.36364H127.884V9.01278L109.774 45H100.25Z"/>
</mask>
<path d="M0.866621 45H-0.133379V46H0.866621V45ZM0.866621 38.3523L0.187213 37.6185L-0.133379 37.9154V38.3523H0.866621ZM16.3993 23.9702L17.0787 24.7039L17.0868 24.6964L17.0947 24.6888L16.3993 23.9702ZM19.7232 20.5185L18.9757 19.8541L18.9706 19.86L19.7232 20.5185ZM21.7899 17.5142L22.6921 17.9457L22.6944 17.9406L21.7899 17.5142ZM21.6195 10.9943L20.77 11.522L20.7737 11.5278L21.6195 10.9943ZM19.2331 8.84233L18.7808 9.73429L18.7909 9.73927L19.2331 8.84233ZM10.0072 11.2074L10.8889 11.6793L10.0072 11.2074ZM9.19759 14.8082V15.8082H10.1976V14.8082H9.19759ZM0.440485 14.8082H-0.559515V15.8082H0.440485V14.8082ZM2.37941 7.37216L3.23126 7.89594L2.37941 7.37216ZM7.81264 2.4929L7.36981 1.59629L7.36981 1.59629L7.81264 2.4929ZM24.0271 2.42898L23.5955 3.33104L23.6021 3.33417L24.0271 2.42898ZM29.4604 6.98864L28.6274 7.54193L28.6274 7.54193L29.4604 6.98864ZM30.4192 18.5582L29.493 18.1812L29.4901 18.1883L30.4192 18.5582ZM26.9888 23.9062L27.752 24.5524L27.7543 24.5497L26.9888 23.9062ZM20.0215 30.9162L19.3484 30.1766L19.3348 30.189L19.3215 30.202L20.0215 30.9162ZM13.6507 37.1591L12.9508 36.4449L12.6507 36.7389V37.1591H13.6507ZM13.6507 37.4574H12.6507V38.4574H13.6507V37.4574ZM31.9746 37.4574H32.9746V36.4574H31.9746V37.4574ZM31.9746 45V46H32.9746V45H31.9746ZM1.86662 45V38.3523H-0.133379V45H1.86662ZM1.54603 39.086L17.0787 24.7039L15.7199 23.2364L0.187213 37.6185L1.54603 39.086ZM17.0947 24.6888C18.4292 23.3973 19.5576 22.2263 20.4757 21.177L18.9706 19.86C18.099 20.8561 17.0114 21.9862 15.7039 23.2516L17.0947 24.6888ZM20.4706 21.1828C21.4265 20.1074 22.174 19.0288 22.6921 17.9457L20.8878 17.0827C20.4683 17.9598 19.8379 18.8841 18.9757 19.8541L20.4706 21.1828ZM22.6944 17.9406C23.229 16.8067 23.493 15.5878 23.493 14.2969H21.493C21.493 15.3071 21.2883 16.2331 20.8854 17.0878L22.6944 17.9406ZM23.493 14.2969C23.493 12.8625 23.1646 11.5695 22.4653 10.4608L20.7737 11.5278C21.2391 12.2657 21.493 13.1744 21.493 14.2969H23.493ZM22.4689 10.4666C21.786 9.3673 20.848 8.52353 19.6753 7.94539L18.7909 9.73927C19.6352 10.1554 20.2882 10.7463 20.77 11.522L22.4689 10.4666ZM19.6853 7.95043C18.5193 7.3592 17.2176 7.07528 15.8027 7.07528V9.07528C16.9447 9.07528 17.9299 9.30273 18.7809 9.73423L19.6853 7.95043ZM15.8027 7.07528C14.3309 7.07528 12.9964 7.37361 11.8313 8.00609L12.7855 9.7638C13.609 9.31673 14.6041 9.07528 15.8027 9.07528V7.07528ZM11.8313 8.00609C10.6632 8.64017 9.75647 9.55674 9.12558 10.7355L10.8889 11.6793C11.3376 10.841 11.9649 10.2093 12.7855 9.7638L11.8313 8.00609ZM9.12558 10.7355C8.49299 11.9175 8.19759 13.2869 8.19759 14.8082H10.1976C10.1976 13.5455 10.442 12.5144 10.8889 11.6793L9.12558 10.7355ZM9.19759 13.8082H0.440485V15.8082H9.19759V13.8082ZM1.44048 14.8082C1.44048 12.1085 2.0499 9.81727 3.23126 7.89594L1.52755 6.84838C0.123686 9.13159 -0.559515 11.7977 -0.559515 14.8082H1.44048ZM3.23126 7.89594C4.42001 5.96259 6.0853 4.46136 8.25548 3.3895L7.36981 1.59629C4.8809 2.82557 2.92403 4.57719 1.52755 6.84838L3.23126 7.89594ZM8.25548 3.3895C10.4257 2.3176 12.9544 1.76704 15.8666 1.76704V-0.232956C12.6993 -0.232956 9.85863 0.367055 7.36981 1.59629L8.25548 3.3895ZM15.8666 1.76704C18.8741 1.76704 21.441 2.30004 23.5955 3.33102L24.4588 1.52694C21.9826 0.342006 19.1091 -0.232956 15.8666 -0.232956V1.76704ZM23.6021 3.33417C25.7834 4.3583 27.4461 5.76354 28.6274 7.54193L30.2934 6.43534C28.8894 4.32168 26.93 2.68715 24.4521 1.52378L23.6021 3.33417ZM28.6274 7.54193C29.8027 9.31137 30.3993 11.3459 30.3993 13.679H32.3993C32.3993 10.9836 31.7033 8.55795 30.2934 6.43534L28.6274 7.54193ZM30.3993 13.679C30.3993 15.1908 30.1002 16.6895 29.493 18.1812L31.3454 18.9353C32.045 17.2167 32.3993 15.4626 32.3993 13.679H30.3993ZM29.4901 18.1883C28.9046 19.6586 27.8321 21.3489 26.2233 23.2628L27.7543 24.5497C29.4409 22.5432 30.6553 20.6681 31.3482 18.9282L29.4901 18.1883ZM26.2256 23.2601C24.6172 25.1596 22.3298 27.4636 19.3484 30.1766L20.6945 31.6558C23.7074 28.9142 26.0649 26.5449 27.752 24.5524L26.2256 23.2601ZM19.3215 30.202L12.9508 36.4449L14.3506 37.8733L20.7214 31.6304L19.3215 30.202ZM12.6507 37.1591V37.4574H14.6507V37.1591H12.6507ZM13.6507 38.4574H31.9746V36.4574H13.6507V38.4574ZM30.9746 37.4574V45H32.9746V37.4574H30.9746ZM31.9746 44H0.866621V46H31.9746V44ZM52.169 45.9588L52.1651 46.9588H52.169V45.9588ZM42.7087 43.2528L42.1458 44.0794L42.1479 44.0808L42.7087 43.2528ZM36.6363 35.4759L35.7124 35.8585L35.7138 35.8618L36.6363 35.4759ZM34.5482 23.2244L35.5482 23.2274V23.2244H34.5482ZM36.6576 11.0582L35.7368 10.6681L35.7355 10.6714L36.6576 11.0582ZM42.73 3.40909L43.2837 4.24183L43.2847 4.24114L42.73 3.40909ZM61.5866 3.40909L61.0298 4.23976L61.0319 4.24114L61.5866 3.40909ZM67.6803 11.0795L66.7596 11.4697L66.7602 11.4711L67.6803 11.0795ZM69.7897 23.2244L68.7897 23.2214V23.2244H69.7897ZM67.659 35.4972L66.7365 35.1112L66.7351 35.1145L67.659 35.4972ZM61.6079 43.2741L62.1708 44.1007L61.6079 43.2741ZM58.1562 34.5384L59.0162 35.0486L58.1562 34.5384ZM60.3721 23.2244H59.3721L59.3721 23.2273L60.3721 23.2244ZM59.3494 14.9574L58.3924 15.2476L58.3941 15.2532L59.3494 14.9574ZM56.4943 9.9929L55.8224 10.7336L55.8267 10.7375L56.4943 9.9929ZM46.2031 12.0597L45.3456 11.5452L46.2031 12.0597ZM43.9445 23.2244L42.9445 23.2216V23.2244H43.9445ZM44.946 31.6193L43.9874 31.9044L43.9897 31.9117L44.946 31.6193ZM47.8224 36.6477L47.1501 37.3881L47.1548 37.3923L47.8224 36.6477ZM52.1728 44.9588C48.6763 44.9453 45.7237 44.0874 43.2696 42.4249L42.1479 44.0808C44.9778 45.9978 48.332 46.9439 52.1651 46.9588L52.1728 44.9588ZM43.2717 42.4263C40.8278 40.7618 38.9166 38.335 37.5588 35.0899L35.7138 35.8618C37.1969 39.4065 39.334 42.1643 42.1458 44.0794L43.2717 42.4263ZM37.5602 35.0932C36.2172 31.8511 35.5343 27.9055 35.5482 23.2274L33.5482 23.2215C33.5337 28.0888 34.2429 32.3108 35.7124 35.8585L37.5602 35.0932ZM35.5482 23.2244C35.5482 18.5597 36.2381 14.6433 37.5798 11.4451L35.7355 10.6714C34.2646 14.1777 33.5482 18.3721 33.5482 23.2244H35.5482ZM37.5784 11.4484C38.9345 8.24796 40.8429 5.86466 43.2837 4.24183L42.1764 2.57635C39.3615 4.44784 37.2216 7.16397 35.7369 10.6681L37.5784 11.4484ZM43.2847 4.24114C45.7389 2.60501 48.6854 1.76704 52.169 1.76704V-0.232956C48.3514 -0.232956 45.0052 0.690445 42.1753 2.57704L43.2847 4.24114ZM52.169 1.76704C55.6526 1.76704 58.5909 2.60505 61.0298 4.23976L62.1434 2.57843C59.3266 0.690407 55.9864 -0.232956 52.169 -0.232956V1.76704ZM61.0319 4.24114C63.4885 5.87888 65.4039 8.27022 66.7596 11.4697L68.6011 10.6894C67.1159 7.18432 64.9688 4.46203 62.1413 2.57704L61.0319 4.24114ZM66.7602 11.4711C68.1138 14.6521 68.8036 18.5582 68.7897 23.2214L70.7897 23.2274C70.8042 18.3736 70.0878 14.1831 68.6005 10.688L66.7602 11.4711ZM68.7897 23.2244C68.7897 27.9169 68.0929 31.8693 66.7365 35.1112L68.5815 35.8831C70.066 32.3352 70.7897 28.1059 70.7897 23.2244H68.7897ZM66.7351 35.1145C65.3915 38.3581 63.4879 40.7838 61.045 42.4476L62.1708 44.1007C64.9835 42.185 67.114 39.426 68.5829 35.8799L66.7351 35.1145ZM61.045 42.4476C58.6074 44.1078 55.6645 44.9588 52.169 44.9588V46.9588C56.003 46.9588 59.3527 46.02 62.1708 44.1007L61.045 42.4476ZM52.169 39.3097C55.0875 39.3097 57.3808 37.8055 59.0162 35.0486L57.2961 34.0281C55.9487 36.2996 54.2504 37.3097 52.169 37.3097V39.3097ZM59.0162 35.0486C60.6444 32.3039 61.3865 28.3165 61.3721 23.2216L59.3721 23.2273C59.3861 28.1892 58.6509 31.7444 57.2961 34.0281L59.0162 35.0486ZM61.3721 23.2244C61.3721 19.8542 61.0259 16.9908 60.3046 14.6616L58.3941 15.2532C59.0364 17.3274 59.3721 19.9753 59.3721 23.2244H61.3721ZM60.3063 14.6672C59.6053 12.3552 58.5767 10.5168 57.1618 9.24833L55.8267 10.7375C56.8834 11.6849 57.7582 13.1562 58.3924 15.2476L60.3063 14.6672ZM57.1661 9.25218C55.7589 7.97594 54.0771 7.33097 52.169 7.33097V9.33097C53.5847 9.33097 54.7864 9.79394 55.8224 10.7336L57.1661 9.25218ZM52.169 7.33097C49.268 7.33097 46.9822 8.81737 45.3456 11.5452L47.0606 12.5742C48.4068 10.3304 50.0984 9.33097 52.169 9.33097V7.33097ZM45.3456 11.5452C43.7168 14.2597 42.9589 18.1965 42.9445 23.2216L44.9445 23.2273C44.9585 18.3376 45.7063 14.8312 47.0606 12.5742L45.3456 11.5452ZM42.9445 23.2244C42.9445 26.6353 43.2833 29.5372 43.9875 31.9044L45.9044 31.3342C45.2734 29.2128 44.9445 26.5181 44.9445 23.2244H42.9445ZM43.9897 31.9117C44.7042 34.2488 45.7383 36.1061 47.1501 37.3881L48.4946 35.9074C47.4348 34.9451 46.5514 33.4501 45.9023 31.3269L43.9897 31.9117ZM47.1548 37.3923C48.5743 38.665 50.261 39.3097 52.169 39.3097V37.3097C50.7531 37.3097 49.542 36.8464 48.4899 35.9032L47.1548 37.3923ZM91.7526 1.36364H92.7526V0.363635H91.7526V1.36364ZM91.7526 45V46H92.7526V45H91.7526ZM82.5267 45H81.5267V46H82.5267V45ZM82.5267 10.1207H83.5267V9.12074H82.5267V10.1207ZM82.271 10.1207V9.12074H81.9835L81.7399 9.27345L82.271 10.1207ZM72.2781 16.3849H71.2781V18.192L72.8093 17.2322L72.2781 16.3849ZM72.2781 8.20312L71.7432 7.35823L71.2781 7.65268V8.20312H72.2781ZM83.0807 1.36364V0.363635H82.7907L82.5458 0.518741L83.0807 1.36364ZM90.7526 1.36364V45H92.7526V1.36364H90.7526ZM91.7526 44H82.5267V46H91.7526V44ZM83.5267 45V10.1207H81.5267V45H83.5267ZM82.5267 9.12074H82.271V11.1207H82.5267V9.12074ZM81.7399 9.27345L71.747 15.5377L72.8093 17.2322L82.8022 10.968L81.7399 9.27345ZM73.2781 16.3849V8.20312H71.2781V16.3849H73.2781ZM72.8131 9.04802L83.6156 2.20853L82.5458 0.518741L71.7432 7.35823L72.8131 9.04802ZM83.0807 2.36364H91.7526V0.363635H83.0807V2.36364ZM100.25 45L99.357 44.549L98.6237 46H100.25V45ZM118.339 9.20454L119.231 9.65558L119.339 9.44287V9.20454H118.339ZM118.339 8.90625H119.339V7.90625H118.339V8.90625ZM97.2665 8.90625H96.2665V9.90625H97.2665V8.90625ZM97.2665 1.36364V0.363635H96.2665V1.36364H97.2665ZM127.884 1.36364H128.884V0.363635H127.884V1.36364ZM127.884 9.01278L128.778 9.46232L128.884 9.25023V9.01278H127.884ZM109.774 45V46H110.39L110.667 45.4495L109.774 45ZM101.142 45.451L119.231 9.65558L117.446 8.75351L99.357 44.549L101.142 45.451ZM119.339 9.20454V8.90625H117.339V9.20454H119.339ZM118.339 7.90625H97.2665V9.90625H118.339V7.90625ZM98.2665 8.90625V1.36364H96.2665V8.90625H98.2665ZM97.2665 2.36364H127.884V0.363635H97.2665V2.36364ZM126.884 1.36364V9.01278H128.884V1.36364H126.884ZM126.991 8.56324L108.88 44.5505L110.667 45.4495L128.778 9.46232L126.991 8.56324ZM109.774 44H100.25V46H109.774V44Z" fill="#D3A60D" mask="url(#path-1-outside-1_394_67)"/>
</svg>
