<svg width="132" height="46" viewBox="0 0 132 46" fill="none" xmlns="http://www.w3.org/2000/svg">
<mask id="path-1-outside-1_394_73" maskUnits="userSpaceOnUse" x="-1" y="-1" width="134" height="48" fill="black">
<rect fill="white" x="-1" y="-1" width="134" height="48"/>
<path d="M0.90373 45V38.3523L16.4364 23.9702C17.7574 22.6918 18.8654 21.5412 19.7603 20.5185C20.6694 19.4957 21.3583 18.4943 21.827 17.5142C22.2958 16.5199 22.5302 15.4474 22.5302 14.2969C22.5302 13.0185 22.239 11.9176 21.6566 10.9943C21.0742 10.0568 20.2787 9.33949 19.2702 8.84233C18.2617 8.33097 17.1182 8.07528 15.8398 8.07528C14.5046 8.07528 13.3398 8.34517 12.3455 8.88494C11.3512 9.42472 10.5841 10.1989 10.0444 11.2074C9.50458 12.2159 9.2347 13.4162 9.2347 14.8082H0.477594C0.477594 11.9531 1.1239 9.47443 2.41651 7.37216C3.70913 5.26989 5.52021 3.64347 7.84975 2.4929C10.1793 1.34233 12.864 0.767044 15.9037 0.767044C19.0287 0.767044 21.7489 1.32102 24.0642 2.42898C26.3938 3.52273 28.2049 5.04261 29.4975 6.98864C30.7901 8.93466 31.4364 11.1648 31.4364 13.679C31.4364 15.3267 31.1097 16.9531 30.4563 18.5582C29.8171 20.1634 28.6736 21.946 27.0259 23.9062C25.3782 25.8523 23.0557 28.1889 20.0586 30.9162L13.6878 37.1591V37.4574H32.0117V45H0.90373ZM52.2061 45.9588C48.5413 45.9446 45.3879 45.0426 42.7458 43.2528C40.118 41.4631 38.0939 38.8707 36.6734 35.4759C35.2672 32.081 34.5711 27.9972 34.5853 23.2244C34.5853 18.4659 35.2885 14.4105 36.6947 11.0582C38.1152 7.70596 40.1393 5.15625 42.7672 3.40909C45.4092 1.64773 48.5555 0.767044 52.2061 0.767044C55.8566 0.767044 58.9958 1.64773 61.6237 3.40909C64.2657 5.17045 66.297 7.72727 67.7174 11.0795C69.1379 14.4176 69.841 18.4659 69.8268 23.2244C69.8268 28.0114 69.1166 32.1023 67.6961 35.4972C66.2899 38.892 64.2728 41.4844 61.645 43.2741C59.0172 45.0639 55.8708 45.9588 52.2061 45.9588ZM52.2061 38.3097C54.7061 38.3097 56.7018 37.0526 58.1933 34.5384C59.6848 32.0241 60.4234 28.2528 60.4092 23.2244C60.4092 19.9148 60.0683 17.1591 59.3865 14.9574C58.7189 12.7557 57.7672 11.1009 56.5314 9.9929C55.3098 8.88494 53.868 8.33097 52.2061 8.33097C49.7203 8.33097 47.7316 9.57386 46.2402 12.0597C44.7487 14.5455 43.9958 18.267 43.9816 23.2244C43.9816 26.5767 44.3155 29.375 44.9831 31.6193C45.6649 33.8494 46.6237 35.5256 47.8595 36.6477C49.0953 37.7557 50.5441 38.3097 52.2061 38.3097ZM91.7897 1.36364V45H82.5638V10.1207H82.3081L72.3152 16.3849V8.20312L83.1178 1.36364H91.7897ZM114.349 0.767044C116.593 0.767044 118.753 1.14346 120.826 1.8963C122.914 2.64915 124.775 3.84943 126.409 5.49716C128.056 7.14489 129.356 9.33239 130.308 12.0597C131.274 14.7727 131.764 18.1037 131.778 22.0526C131.778 25.7599 131.359 29.0696 130.521 31.9815C129.697 34.8793 128.511 37.3438 126.963 39.375C125.414 41.4062 123.547 42.9545 121.359 44.0199C119.172 45.071 116.728 45.5966 114.03 45.5966C111.118 45.5966 108.547 45.0355 106.316 43.9134C104.086 42.777 102.289 41.2358 100.926 39.2898C99.5764 37.3295 98.7596 35.1278 98.4755 32.6847H107.574C107.929 34.2756 108.674 35.5114 109.811 36.392C110.947 37.2585 112.353 37.6918 114.03 37.6918C116.87 37.6918 119.03 36.456 120.507 33.9844C121.984 31.4986 122.73 28.0966 122.744 23.7784H122.446C121.792 25.0568 120.912 26.1577 119.804 27.081C118.696 27.9901 117.424 28.6932 115.99 29.1903C114.569 29.6875 113.056 29.9361 111.451 29.9361C108.88 29.9361 106.586 29.3324 104.569 28.125C102.552 26.9176 100.961 25.2557 99.7966 23.1392C98.6318 21.0227 98.0494 18.608 98.0494 15.8949C98.0352 12.9688 98.7099 10.3622 100.074 8.07528C101.437 5.78835 103.341 3.99858 105.784 2.70597C108.241 1.39915 111.096 0.752839 114.349 0.767044ZM114.413 8.01136C112.978 8.01136 111.7 8.35227 110.578 9.03409C109.47 9.71591 108.589 10.6321 107.936 11.7827C107.297 12.9332 106.984 14.2187 106.998 15.6392C106.998 17.0739 107.311 18.3665 107.936 19.517C108.575 20.6534 109.441 21.5625 110.535 22.2443C111.643 22.9119 112.907 23.2457 114.328 23.2457C115.393 23.2457 116.38 23.0469 117.289 22.6491C118.199 22.2514 118.987 21.7045 119.655 21.0085C120.336 20.2983 120.869 19.4815 121.253 18.5582C121.636 17.6349 121.828 16.6548 121.828 15.6179C121.814 14.2401 121.487 12.9759 120.848 11.8253C120.208 10.6747 119.328 9.75142 118.206 9.0554C117.083 8.35937 115.819 8.01136 114.413 8.01136Z"/>
</mask>
<path d="M0.90373 45H-0.0962696V46H0.90373V45ZM0.90373 38.3523L0.224322 37.6185L-0.0962696 37.9154V38.3523H0.90373ZM16.4364 23.9702L17.1158 24.7039L17.1239 24.6964L17.1318 24.6888L16.4364 23.9702ZM19.7603 20.5185L19.0128 19.8541L19.0077 19.86L19.7603 20.5185ZM21.827 17.5142L22.7292 17.9457L22.7316 17.9406L21.827 17.5142ZM21.6566 10.9943L20.8071 11.522L20.8108 11.5278L21.6566 10.9943ZM19.2702 8.84233L18.8179 9.73429L18.8281 9.73927L19.2702 8.84233ZM10.0444 11.2074L10.926 11.6793L10.0444 11.2074ZM9.2347 14.8082V15.8082H10.2347V14.8082H9.2347ZM0.477594 14.8082H-0.522406V15.8082H0.477594V14.8082ZM2.41651 7.37216L3.26837 7.89594L2.41651 7.37216ZM7.84975 2.4929L7.40692 1.59629L7.40692 1.59629L7.84975 2.4929ZM24.0642 2.42898L23.6326 3.33104L23.6392 3.33417L24.0642 2.42898ZM29.4975 6.98864L28.6645 7.54193L28.6645 7.54193L29.4975 6.98864ZM30.4563 18.5582L29.5301 18.1812L29.5272 18.1883L30.4563 18.5582ZM27.0259 23.9062L27.7891 24.5524L27.7914 24.5497L27.0259 23.9062ZM20.0586 30.9162L19.3855 30.1766L19.3719 30.189L19.3587 30.202L20.0586 30.9162ZM13.6878 37.1591L12.9879 36.4449L12.6878 36.7389V37.1591H13.6878ZM13.6878 37.4574H12.6878V38.4574H13.6878V37.4574ZM32.0117 37.4574H33.0117V36.4574H32.0117V37.4574ZM32.0117 45V46H33.0117V45H32.0117ZM1.90373 45V38.3523H-0.0962696V45H1.90373ZM1.58314 39.086L17.1158 24.7039L15.757 23.2364L0.224322 37.6185L1.58314 39.086ZM17.1318 24.6888C18.4663 23.3973 19.5947 22.2263 20.5128 21.177L19.0077 19.86C18.1361 20.8561 17.0485 21.9862 15.741 23.2516L17.1318 24.6888ZM20.5077 21.1828C21.4637 20.1074 22.2111 19.0288 22.7292 17.9457L20.9249 17.0827C20.5054 17.9598 19.8751 18.8841 19.0129 19.8541L20.5077 21.1828ZM22.7316 17.9406C23.2661 16.8067 23.5302 15.5878 23.5302 14.2969H21.5302C21.5302 15.3071 21.3254 16.2331 20.9225 17.0878L22.7316 17.9406ZM23.5302 14.2969C23.5302 12.8625 23.2017 11.5695 22.5024 10.4608L20.8108 11.5278C21.2762 12.2657 21.5302 13.1744 21.5302 14.2969H23.5302ZM22.506 10.4666C21.8231 9.3673 20.8852 8.52353 19.7124 7.94539L18.8281 9.73927C19.6723 10.1554 20.3253 10.7463 20.8071 11.522L22.506 10.4666ZM19.7224 7.95043C18.5564 7.3592 17.2547 7.07528 15.8398 7.07528V9.07528C16.9818 9.07528 17.967 9.30273 18.818 9.73423L19.7224 7.95043ZM15.8398 7.07528C14.368 7.07528 13.0335 7.37361 11.8684 8.00609L12.8226 9.7638C13.6461 9.31673 14.6412 9.07528 15.8398 9.07528V7.07528ZM11.8684 8.00609C10.7004 8.64017 9.79358 9.55674 9.16269 10.7355L10.926 11.6793C11.3747 10.841 12.002 10.2093 12.8226 9.7638L11.8684 8.00609ZM9.16269 10.7355C8.5301 11.9175 8.2347 13.2869 8.2347 14.8082H10.2347C10.2347 13.5455 10.4791 12.5144 10.926 11.6793L9.16269 10.7355ZM9.2347 13.8082H0.477594V15.8082H9.2347V13.8082ZM1.47759 14.8082C1.47759 12.1085 2.08701 9.81727 3.26837 7.89594L1.56466 6.84838C0.160795 9.13159 -0.522406 11.7977 -0.522406 14.8082H1.47759ZM3.26837 7.89594C4.45712 5.96259 6.12241 4.46136 8.29259 3.3895L7.40692 1.59629C4.91801 2.82557 2.96114 4.57719 1.56466 6.84838L3.26837 7.89594ZM8.29259 3.3895C10.4629 2.3176 12.9915 1.76704 15.9037 1.76704V-0.232956C12.7364 -0.232956 9.89574 0.367055 7.40692 1.59629L8.29259 3.3895ZM15.9037 1.76704C18.9113 1.76704 21.4781 2.30004 23.6326 3.33102L24.4959 1.52694C22.0197 0.342006 19.1462 -0.232956 15.9037 -0.232956V1.76704ZM23.6392 3.33417C25.8205 4.3583 27.4832 5.76354 28.6645 7.54193L30.3305 6.43534C28.9265 4.32168 26.9671 2.68715 24.4892 1.52378L23.6392 3.33417ZM28.6645 7.54193C29.8398 9.31137 30.4364 11.3459 30.4364 13.679H32.4364C32.4364 10.9836 31.7404 8.55795 30.3305 6.43534L28.6645 7.54193ZM30.4364 13.679C30.4364 15.1908 30.1373 16.6895 29.5301 18.1812L31.3825 18.9353C32.0821 17.2167 32.4364 15.4626 32.4364 13.679H30.4364ZM29.5272 18.1883C28.9417 19.6586 27.8692 21.3489 26.2604 23.2628L27.7914 24.5497C29.478 22.5432 30.6924 20.6681 31.3853 18.9282L29.5272 18.1883ZM26.2627 23.2601C24.6543 25.1596 22.3669 27.4636 19.3855 30.1766L20.7316 31.6558C23.7445 28.9142 26.102 26.5449 27.7891 24.5524L26.2627 23.2601ZM19.3587 30.202L12.9879 36.4449L14.3877 37.8733L20.7585 31.6304L19.3587 30.202ZM12.6878 37.1591V37.4574H14.6878V37.1591H12.6878ZM13.6878 38.4574H32.0117V36.4574H13.6878V38.4574ZM31.0117 37.4574V45H33.0117V37.4574H31.0117ZM32.0117 44H0.90373V46H32.0117V44ZM52.2061 45.9588L52.2022 46.9588H52.2061V45.9588ZM42.7458 43.2528L42.1829 44.0794L42.185 44.0808L42.7458 43.2528ZM36.6734 35.4759L35.7495 35.8585L35.7509 35.8618L36.6734 35.4759ZM34.5853 23.2244L35.5853 23.2274V23.2244H34.5853ZM36.6947 11.0582L35.774 10.6681L35.7726 10.6714L36.6947 11.0582ZM42.7672 3.40909L43.3208 4.24183L43.3219 4.24114L42.7672 3.40909ZM61.6237 3.40909L61.0669 4.23976L61.069 4.24114L61.6237 3.40909ZM67.7174 11.0795L66.7967 11.4697L66.7973 11.4711L67.7174 11.0795ZM69.8268 23.2244L68.8268 23.2214V23.2244H69.8268ZM67.6961 35.4972L66.7736 35.1112L66.7723 35.1145L67.6961 35.4972ZM61.645 43.2741L62.2079 44.1007L61.645 43.2741ZM58.1933 34.5384L59.0533 35.0486L58.1933 34.5384ZM60.4092 23.2244H59.4092L59.4092 23.2273L60.4092 23.2244ZM59.3865 14.9574L58.4295 15.2476L58.4312 15.2532L59.3865 14.9574ZM56.5314 9.9929L55.8595 10.7336L55.8638 10.7375L56.5314 9.9929ZM46.2402 12.0597L45.3827 11.5452L46.2402 12.0597ZM43.9816 23.2244L42.9816 23.2216V23.2244H43.9816ZM44.9831 31.6193L44.0245 31.9044L44.0268 31.9117L44.9831 31.6193ZM47.8595 36.6477L47.1872 37.3881L47.1919 37.3923L47.8595 36.6477ZM52.21 44.9588C48.7135 44.9453 45.7608 44.0874 43.3067 42.4249L42.185 44.0808C45.0149 45.9978 48.3691 46.9439 52.2022 46.9588L52.21 44.9588ZM43.3088 42.4263C40.8649 40.7618 38.9537 38.335 37.5959 35.0899L35.7509 35.8618C37.234 39.4065 39.3712 42.1643 42.1829 44.0794L43.3088 42.4263ZM37.5973 35.0932C36.2543 31.8511 35.5714 27.9055 35.5853 23.2274L33.5853 23.2215C33.5709 28.0888 34.28 32.3108 35.7495 35.8585L37.5973 35.0932ZM35.5853 23.2244C35.5853 18.5597 36.2752 14.6433 37.6169 11.4451L35.7726 10.6714C34.3017 14.1777 33.5853 18.3721 33.5853 23.2244H35.5853ZM37.6155 11.4484C38.9716 8.24796 40.88 5.86466 43.3208 4.24183L42.2135 2.57635C39.3986 4.44784 37.2588 7.16397 35.774 10.6681L37.6155 11.4484ZM43.3219 4.24114C45.7761 2.60501 48.7225 1.76704 52.2061 1.76704V-0.232956C48.3885 -0.232956 45.0423 0.690445 42.2125 2.57704L43.3219 4.24114ZM52.2061 1.76704C55.6897 1.76704 58.628 2.60505 61.0669 4.23976L62.1805 2.57843C59.3637 0.690407 56.0235 -0.232956 52.2061 -0.232956V1.76704ZM61.069 4.24114C63.5256 5.87888 65.441 8.27022 66.7967 11.4697L68.6382 10.6894C67.153 7.18432 65.0059 4.46203 62.1784 2.57704L61.069 4.24114ZM66.7973 11.4711C68.1509 14.6521 68.8407 18.5582 68.8268 23.2214L70.8268 23.2274C70.8413 18.3736 70.1249 14.1831 68.6376 10.688L66.7973 11.4711ZM68.8268 23.2244C68.8268 27.9169 68.1301 31.8693 66.7736 35.1112L68.6186 35.8831C70.1031 32.3352 70.8268 28.1059 70.8268 23.2244H68.8268ZM66.7723 35.1145C65.4286 38.3581 63.525 40.7838 61.0821 42.4476L62.2079 44.1007C65.0206 42.185 67.1511 39.426 68.62 35.8799L66.7723 35.1145ZM61.0821 42.4476C58.6445 44.1078 55.7016 44.9588 52.2061 44.9588V46.9588C56.0401 46.9588 59.3898 46.02 62.2079 44.1007L61.0821 42.4476ZM52.2061 39.3097C55.1246 39.3097 57.4179 37.8055 59.0533 35.0486L57.3332 34.0281C55.9858 36.2996 54.2876 37.3097 52.2061 37.3097V39.3097ZM59.0533 35.0486C60.6815 32.3039 61.4236 28.3165 61.4092 23.2216L59.4092 23.2273C59.4232 28.1892 58.688 31.7444 57.3332 34.0281L59.0533 35.0486ZM61.4092 23.2244C61.4092 19.8542 61.063 16.9908 60.3417 14.6616L58.4312 15.2532C59.0735 17.3274 59.4092 19.9753 59.4092 23.2244H61.4092ZM60.3434 14.6672C59.6424 12.3552 58.6138 10.5168 57.1989 9.24833L55.8638 10.7375C56.9205 11.6849 57.7953 13.1562 58.4295 15.2476L60.3434 14.6672ZM57.2032 9.25218C55.796 7.97594 54.1142 7.33097 52.2061 7.33097V9.33097C53.6218 9.33097 54.8235 9.79394 55.8595 10.7336L57.2032 9.25218ZM52.2061 7.33097C49.3051 7.33097 47.0194 8.81737 45.3827 11.5452L47.0977 12.5742C48.4439 10.3304 50.1355 9.33097 52.2061 9.33097V7.33097ZM45.3827 11.5452C43.7539 14.2597 42.996 18.1965 42.9816 23.2216L44.9816 23.2273C44.9957 18.3376 45.7435 14.8312 47.0977 12.5742L45.3827 11.5452ZM42.9816 23.2244C42.9816 26.6353 43.3204 29.5372 44.0246 31.9044L45.9416 31.3342C45.3105 29.2128 44.9816 26.5181 44.9816 23.2244H42.9816ZM44.0268 31.9117C44.7413 34.2488 45.7754 36.1061 47.1872 37.3881L48.5317 35.9074C47.472 34.9451 46.5885 33.4501 45.9394 31.3269L44.0268 31.9117ZM47.1919 37.3923C48.6115 38.665 50.2981 39.3097 52.2061 39.3097V37.3097C50.7902 37.3097 49.5791 36.8464 48.527 35.9032L47.1919 37.3923ZM91.7897 1.36364H92.7897V0.363635H91.7897V1.36364ZM91.7897 45V46H92.7897V45H91.7897ZM82.5638 45H81.5638V46H82.5638V45ZM82.5638 10.1207H83.5638V9.12074H82.5638V10.1207ZM82.3081 10.1207V9.12074H82.0206L81.777 9.27345L82.3081 10.1207ZM72.3152 16.3849H71.3152V18.192L72.8464 17.2322L72.3152 16.3849ZM72.3152 8.20312L71.7803 7.35823L71.3152 7.65268V8.20312H72.3152ZM83.1178 1.36364V0.363635H82.8278L82.5829 0.518741L83.1178 1.36364ZM90.7897 1.36364V45H92.7897V1.36364H90.7897ZM91.7897 44H82.5638V46H91.7897V44ZM83.5638 45V10.1207H81.5638V45H83.5638ZM82.5638 9.12074H82.3081V11.1207H82.5638V9.12074ZM81.777 9.27345L71.7841 15.5377L72.8464 17.2322L82.8393 10.968L81.777 9.27345ZM73.3152 16.3849V8.20312H71.3152V16.3849H73.3152ZM72.8502 9.04802L83.6527 2.20853L82.5829 0.518741L71.7803 7.35823L72.8502 9.04802ZM83.1178 2.36364H91.7897V0.363635H83.1178V2.36364ZM114.349 0.767044L114.345 1.76704H114.349V0.767044ZM120.826 1.8963L120.485 2.83629L120.487 2.83703L120.826 1.8963ZM126.409 5.49716L125.699 6.2012L125.702 6.20427L126.409 5.49716ZM130.308 12.0597L129.364 12.3891L129.366 12.3951L130.308 12.0597ZM131.778 22.0526H132.778L132.778 22.049L131.778 22.0526ZM130.521 31.9815L129.56 31.705L129.559 31.7081L130.521 31.9815ZM126.963 39.375L127.758 39.9812V39.9812L126.963 39.375ZM121.359 44.0199L121.792 44.9212L121.797 44.9189L121.359 44.0199ZM106.316 43.9134L105.862 44.8044L105.867 44.8066L106.316 43.9134ZM100.926 39.2898L100.102 39.8568L100.107 39.8636L100.926 39.2898ZM98.4755 32.6847V31.6847H97.3525L97.4822 32.8002L98.4755 32.6847ZM107.574 32.6847L108.55 32.4668L108.375 31.6847H107.574V32.6847ZM109.811 36.392L109.198 37.1825L109.204 37.1872L109.811 36.392ZM120.507 33.9844L121.365 34.4974L121.366 34.4953L120.507 33.9844ZM122.744 23.7784L123.744 23.7817L123.747 22.7784H122.744V23.7784ZM122.446 23.7784V22.7784H121.834L121.555 23.3233L122.446 23.7784ZM119.804 27.081L120.438 27.8541L120.444 27.8492L119.804 27.081ZM115.99 29.1903L115.662 28.2455L115.659 28.2465L115.99 29.1903ZM104.569 28.125L104.056 28.983L104.569 28.125ZM99.7966 23.1392L98.9205 23.6213L99.7966 23.1392ZM98.0494 15.8949L99.0494 15.8949L99.0494 15.89L98.0494 15.8949ZM100.074 8.07528L100.932 8.58742L100.074 8.07528ZM105.784 2.70597L106.251 3.58988L106.253 3.58888L105.784 2.70597ZM110.578 9.03409L110.059 8.17946L110.054 8.18243L110.578 9.03409ZM107.936 11.7827L107.066 11.2888L107.062 11.297L107.936 11.7827ZM106.998 15.6392H107.998L107.998 15.6292L106.998 15.6392ZM107.936 19.517L107.057 19.9944L107.061 20.0009L107.064 20.0073L107.936 19.517ZM110.535 22.2443L110.006 23.0929L110.013 23.0969L110.019 23.1008L110.535 22.2443ZM117.289 22.6491L116.889 21.733L117.289 22.6491ZM119.655 21.0085L118.933 20.316L118.933 20.3163L119.655 21.0085ZM121.253 18.5582L122.176 18.9418L121.253 18.5582ZM121.828 15.6179H122.828L122.828 15.6076L121.828 15.6179ZM120.848 11.8253L121.722 11.3396V11.3396L120.848 11.8253ZM118.206 9.0554L118.733 8.20559V8.20559L118.206 9.0554ZM114.349 1.76704C116.479 1.76704 118.523 2.12384 120.485 2.83629L121.168 0.956323C118.982 0.163084 116.708 -0.232956 114.349 -0.232956V1.76704ZM120.487 2.83703C122.429 3.53721 124.165 4.65403 125.699 6.2012L127.119 4.79312C125.386 3.04483 123.4 1.76108 121.166 0.95558L120.487 2.83703ZM125.702 6.20427C127.221 7.72317 128.45 9.7707 129.364 12.3891L131.252 11.7302C130.262 8.89407 128.892 6.5666 127.116 4.79005L125.702 6.20427ZM129.366 12.3951C130.283 14.9702 130.764 18.1814 130.778 22.0562L132.778 22.049C132.764 18.026 132.265 14.5753 131.25 11.7243L129.366 12.3951ZM130.778 22.0526C130.778 25.6864 130.367 28.9004 129.56 31.705L131.482 32.2581C132.351 29.2388 132.778 25.8335 132.778 22.0526H130.778ZM129.559 31.7081C128.763 34.5066 127.628 36.8532 126.167 38.7688L127.758 39.9812C129.395 37.8343 130.631 35.2519 131.483 32.255L129.559 31.7081ZM126.167 38.7688C124.709 40.6822 122.961 42.1273 120.921 43.1208L121.797 44.9189C124.132 43.7818 126.12 42.1303 127.758 39.9812L126.167 38.7688ZM120.926 43.1185C118.888 44.0978 116.595 44.5966 114.03 44.5966V46.5966C116.861 46.5966 119.455 46.0443 121.792 44.9212L120.926 43.1185ZM114.03 44.5966C111.248 44.5966 108.835 44.0613 106.766 43.0201L105.867 44.8066C108.258 46.0098 110.987 46.5966 114.03 46.5966V44.5966ZM106.77 43.0224C104.678 41.9562 103.009 40.5208 101.745 38.7159L100.107 39.8636C101.569 41.9508 103.495 43.5978 105.862 44.8043L106.77 43.0224ZM101.75 38.7227C100.496 36.9015 99.7347 34.8559 99.4688 32.5692L97.4822 32.8002C97.7845 35.3998 98.657 37.7576 100.102 39.8568L101.75 38.7227ZM98.4755 33.6847H107.574V31.6847H98.4755V33.6847ZM106.598 32.9025C106.996 34.6885 107.853 36.1401 109.198 37.1825L110.423 35.6016C109.496 34.8827 108.861 33.8626 108.55 32.4668L106.598 32.9025ZM109.204 37.1872C110.544 38.2086 112.174 38.6918 114.03 38.6918V36.6918C112.533 36.6918 111.35 36.3085 110.417 35.5968L109.204 37.1872ZM114.03 38.6918C117.228 38.6918 119.71 37.266 121.365 34.4974L119.648 33.4713C118.349 35.6459 116.513 36.6918 114.03 36.6918V38.6918ZM121.366 34.4953C122.969 31.7981 123.729 28.1967 123.744 23.7817L121.744 23.7751C121.73 27.9965 120.999 31.1991 119.647 33.4735L121.366 34.4953ZM122.744 22.7784H122.446V24.7784H122.744V22.7784ZM121.555 23.3233C120.964 24.481 120.168 25.4755 119.163 26.3127L120.444 27.8492C121.655 26.8399 122.621 25.6327 123.336 24.2335L121.555 23.3233ZM119.169 26.3079C118.158 27.1377 116.992 27.7847 115.662 28.2455L116.317 30.1352C117.857 29.6017 119.233 28.8424 120.438 27.854L119.169 26.3079ZM115.659 28.2465C114.352 28.7041 112.952 28.9361 111.451 28.9361V30.9361C113.161 30.9361 114.787 30.6709 116.32 30.1342L115.659 28.2465ZM111.451 28.9361C109.044 28.9361 106.93 28.3729 105.083 27.267L104.056 28.983C106.242 30.2919 108.717 30.9361 111.451 30.9361V28.9361ZM105.083 27.267C103.222 26.1532 101.754 24.6228 100.673 22.6571L98.9205 23.6213C100.168 25.8885 101.882 27.6821 104.056 28.983L105.083 27.267ZM100.673 22.6571C99.5988 20.7057 99.0494 18.4605 99.0494 15.8949H97.0494C97.0494 18.7554 97.6648 21.3397 98.9205 23.6213L100.673 22.6571ZM99.0494 15.89C99.036 13.1273 99.6711 10.7029 100.932 8.58742L99.2146 7.56314C97.7487 10.0216 97.0344 12.8102 97.0494 15.8997L99.0494 15.89ZM100.932 8.58742C102.199 6.4641 103.964 4.80019 106.251 3.58988L105.316 1.82205C102.717 3.19697 100.676 5.1126 99.2146 7.56314L100.932 8.58742ZM106.253 3.58888C108.542 2.37178 111.229 1.75343 114.345 1.76703L114.353 -0.232947C110.963 -0.247751 107.94 0.42651 105.314 1.82305L106.253 3.58888ZM114.413 7.01136C112.813 7.01136 111.352 7.39385 110.059 8.17948L111.097 9.88871C112.048 9.31069 113.144 9.01136 114.413 9.01136V7.01136ZM110.054 8.18243C108.8 8.95409 107.801 9.99442 107.066 11.2888L108.805 12.2765C109.377 11.2698 110.14 10.4777 111.102 9.88575L110.054 8.18243ZM107.062 11.297C106.332 12.611 105.983 14.0696 105.998 15.6492L107.998 15.6292C107.986 14.3679 108.262 13.2554 108.81 12.2683L107.062 11.297ZM105.998 15.6392C105.998 17.2243 106.345 18.6836 107.057 19.9944L108.814 19.0397C108.277 18.0494 107.998 16.9235 107.998 15.6392H105.998ZM107.064 20.0073C107.785 21.2882 108.768 22.3212 110.006 23.0929L111.064 21.3957C110.115 20.8038 109.365 20.0186 108.807 19.0268L107.064 20.0073ZM110.019 23.1008C111.298 23.8714 112.744 24.2457 114.328 24.2457V22.2457C113.071 22.2457 111.988 21.9525 111.051 21.3878L110.019 23.1008ZM114.328 24.2457C115.521 24.2457 116.646 24.0223 117.69 23.5653L116.889 21.733C116.115 22.0714 115.265 22.2457 114.328 22.2457V24.2457ZM117.69 23.5653C118.716 23.1163 119.615 22.4946 120.376 21.7007L118.933 20.3163C118.359 20.9145 117.681 21.3865 116.889 21.733L117.69 23.5653ZM120.376 21.7011C121.145 20.8999 121.746 19.9779 122.176 18.9418L120.329 18.1746C119.992 18.9851 119.528 19.6967 118.933 20.316L120.376 21.7011ZM122.176 18.9418C122.612 17.8924 122.828 16.7815 122.828 15.6179H120.828C120.828 16.5282 120.66 17.3774 120.329 18.1746L122.176 18.9418ZM122.828 15.6076C122.812 14.0714 122.446 12.6426 121.722 11.3396L119.974 12.3109C120.528 13.3091 120.815 14.4087 120.828 15.6282L122.828 15.6076ZM121.722 11.3396C121 10.0396 119.999 8.99114 118.733 8.20559L117.679 9.9052C118.656 10.5117 119.417 11.3098 119.974 12.3109L121.722 11.3396ZM118.733 8.20559C117.442 7.40495 115.993 7.01136 114.413 7.01136V9.01136C115.646 9.01136 116.725 9.3138 117.679 9.9052L118.733 8.20559Z" fill="#D3A60D" mask="url(#path-1-outside-1_394_73)"/>
</svg>
