<svg width="138" height="46" viewBox="0 0 138 46" fill="none" xmlns="http://www.w3.org/2000/svg">
<mask id="path-1-outside-1_394_20" maskUnits="userSpaceOnUse" x="-1" y="-1" width="140" height="48" fill="black">
<rect fill="white" x="-1" y="-1" width="140" height="48"/>
<path d="M0.593184 45V38.3523L16.1259 23.9702C17.4469 22.6918 18.5548 21.5412 19.4497 20.5185C20.3588 19.4957 21.0477 18.4943 21.5165 17.5142C21.9852 16.5199 22.2196 15.4474 22.2196 14.2969C22.2196 13.0185 21.9284 11.9176 21.346 10.9943C20.7636 10.0568 19.9682 9.33949 18.9597 8.84233C17.9511 8.33097 16.8077 8.07528 15.5293 8.07528C14.194 8.07528 13.0293 8.34517 12.0349 8.88494C11.0406 9.42472 10.2736 10.1989 9.73381 11.2074C9.19404 12.2159 8.92415 13.4162 8.92415 14.8082H0.167047C0.167047 11.9531 0.813354 9.47443 2.10597 7.37216C3.39858 5.26989 5.20966 3.64347 7.53921 2.4929C9.86875 1.34233 12.5534 0.767044 15.5932 0.767044C18.7182 0.767044 21.4384 1.32102 23.7537 2.42898C26.0832 3.52273 27.8943 5.04261 29.1869 6.98864C30.4795 8.93466 31.1259 11.1648 31.1259 13.679C31.1259 15.3267 30.7992 16.9531 30.1457 18.5582C29.5065 20.1634 28.3631 21.946 26.7153 23.9062C25.0676 25.8523 22.7452 28.1889 19.748 30.9162L13.3773 37.1591V37.4574H31.7011V45H0.593184ZM51.8955 45.9588C48.2308 45.9446 45.0773 45.0426 42.4353 43.2528C39.8075 41.4631 37.7833 38.8707 36.3629 35.4759C34.9566 32.081 34.2606 27.9972 34.2748 23.2244C34.2748 18.4659 34.9779 14.4105 36.3842 11.0582C37.8046 7.70596 39.8288 5.15625 42.4566 3.40909C45.0987 1.64773 48.245 0.767044 51.8955 0.767044C55.5461 0.767044 58.6853 1.64773 61.3131 3.40909C63.9552 5.17045 65.9864 7.72727 67.4069 11.0795C68.8273 14.4176 69.5305 18.4659 69.5163 23.2244C69.5163 28.0114 68.806 32.1023 67.3856 35.4972C65.9793 38.892 63.9623 41.4844 61.3345 43.2741C58.7066 45.0639 55.5603 45.9588 51.8955 45.9588ZM51.8955 38.3097C54.3955 38.3097 56.3913 37.0526 57.8827 34.5384C59.3742 32.0241 60.1129 28.2528 60.0987 23.2244C60.0987 19.9148 59.7577 17.1591 59.0759 14.9574C58.4083 12.7557 57.4566 11.1009 56.2208 9.9929C54.9992 8.88494 53.5575 8.33097 51.8955 8.33097C49.4097 8.33097 47.4211 9.57386 45.9296 12.0597C44.4381 14.5455 43.6853 18.267 43.6711 23.2244C43.6711 26.5767 44.0049 29.375 44.6725 31.6193C45.3543 33.8494 46.3131 35.5256 47.5489 36.6477C48.7847 37.7557 50.2336 38.3097 51.8955 38.3097ZM72.4947 45V38.3523L88.0274 23.9702C89.3484 22.6918 90.4564 21.5412 91.3513 20.5185C92.2604 19.4957 92.9493 18.4943 93.418 17.5142C93.8868 16.5199 94.1212 15.4474 94.1212 14.2969C94.1212 13.0185 93.83 11.9176 93.2476 10.9943C92.6652 10.0568 91.8698 9.33949 90.8612 8.84233C89.8527 8.33097 88.7092 8.07528 87.4308 8.07528C86.0956 8.07528 84.9308 8.34517 83.9365 8.88494C82.9422 9.42472 82.1751 10.1989 81.6354 11.2074C81.0956 12.2159 80.8257 13.4162 80.8257 14.8082H72.0686C72.0686 11.9531 72.7149 9.47443 74.0075 7.37216C75.3001 5.26989 77.1112 3.64347 79.4408 2.4929C81.7703 1.34233 84.455 0.767044 87.4947 0.767044C90.6197 0.767044 93.3399 1.32102 95.6553 2.42898C97.9848 3.52273 99.7959 5.04261 101.088 6.98864C102.381 8.93466 103.027 11.1648 103.027 13.679C103.027 15.3267 102.701 16.9531 102.047 18.5582C101.408 20.1634 100.265 21.946 98.6169 23.9062C96.9692 25.8523 94.6467 28.1889 91.6496 30.9162L85.2788 37.1591V37.4574H103.603V45H72.4947ZM106.688 45V38.3523L122.22 23.9702C123.541 22.6918 124.649 21.5412 125.544 20.5185C126.453 19.4957 127.142 18.4943 127.611 17.5142C128.08 16.5199 128.314 15.4474 128.314 14.2969C128.314 13.0185 128.023 11.9176 127.441 10.9943C126.858 10.0568 126.063 9.33949 125.054 8.84233C124.046 8.33097 122.902 8.07528 121.624 8.07528C120.289 8.07528 119.124 8.34517 118.129 8.88494C117.135 9.42472 116.368 10.1989 115.828 11.2074C115.289 12.2159 115.019 13.4162 115.019 14.8082H106.262C106.262 11.9531 106.908 9.47443 108.2 7.37216C109.493 5.26989 111.304 3.64347 113.634 2.4929C115.963 1.34233 118.648 0.767044 121.688 0.767044C124.813 0.767044 127.533 1.32102 129.848 2.42898C132.178 3.52273 133.989 5.04261 135.281 6.98864C136.574 8.93466 137.22 11.1648 137.22 13.679C137.22 15.3267 136.894 16.9531 136.24 18.5582C135.601 20.1634 134.458 21.946 132.81 23.9062C131.162 25.8523 128.84 28.1889 125.843 30.9162L119.472 37.1591V37.4574H137.796V45H106.688Z"/>
</mask>
<path d="M0.593184 45H-0.406816V46H0.593184V45ZM0.593184 38.3523L-0.0862246 37.6185L-0.406816 37.9154V38.3523H0.593184ZM16.1259 23.9702L16.8053 24.7039L16.8134 24.6964L16.8213 24.6888L16.1259 23.9702ZM19.4497 20.5185L18.7023 19.8541L18.6971 19.86L19.4497 20.5185ZM21.5165 17.5142L22.4186 17.9457L22.421 17.9406L21.5165 17.5142ZM21.346 10.9943L20.4966 11.522L20.5002 11.5278L21.346 10.9943ZM18.9597 8.84233L18.5074 9.73429L18.5175 9.73927L18.9597 8.84233ZM9.73381 11.2074L10.6155 11.6793L9.73381 11.2074ZM8.92415 14.8082V15.8082H9.92415V14.8082H8.92415ZM0.167047 14.8082H-0.832953V15.8082H0.167047V14.8082ZM2.10597 7.37216L2.95782 7.89594L2.10597 7.37216ZM7.53921 2.4929L7.09637 1.59629L7.09637 1.59629L7.53921 2.4929ZM23.7537 2.42898L23.322 3.33104L23.3287 3.33417L23.7537 2.42898ZM29.1869 6.98864L28.3539 7.54193L28.354 7.54193L29.1869 6.98864ZM30.1457 18.5582L29.2195 18.1812L29.2167 18.1883L30.1457 18.5582ZM26.7153 23.9062L27.4785 24.5524L27.4808 24.5497L26.7153 23.9062ZM19.748 30.9162L19.075 30.1766L19.0613 30.189L19.0481 30.202L19.748 30.9162ZM13.3773 37.1591L12.6774 36.4449L12.3773 36.7389V37.1591H13.3773ZM13.3773 37.4574H12.3773V38.4574H13.3773V37.4574ZM31.7011 37.4574H32.7011V36.4574H31.7011V37.4574ZM31.7011 45V46H32.7011V45H31.7011ZM1.59318 45V38.3523H-0.406816V45H1.59318ZM1.27259 39.086L16.8053 24.7039L15.4464 23.2364L-0.0862246 37.6185L1.27259 39.086ZM16.8213 24.6888C18.1558 23.3973 19.2841 22.2263 20.2023 21.177L18.6971 19.86C17.8255 20.8561 16.738 21.9862 15.4304 23.2516L16.8213 24.6888ZM20.1971 21.1828C21.1531 20.1074 21.9006 19.0288 22.4186 17.9457L20.6143 17.0827C20.1949 17.9598 19.5645 18.8841 18.7023 19.8541L20.1971 21.1828ZM22.421 17.9406C22.9556 16.8067 23.2196 15.5878 23.2196 14.2969H21.2196C21.2196 15.3071 21.0149 16.2331 20.612 17.0878L22.421 17.9406ZM23.2196 14.2969C23.2196 12.8625 22.8911 11.5695 22.1918 10.4608L20.5002 11.5278C20.9657 12.2657 21.2196 13.1744 21.2196 14.2969H23.2196ZM22.1955 10.4666C21.5125 9.3673 20.5746 8.52353 19.4018 7.94539L18.5175 9.73927C19.3618 10.1554 20.0147 10.7463 20.4966 11.522L22.1955 10.4666ZM19.4119 7.95043C18.2459 7.3592 16.9441 7.07528 15.5293 7.07528V9.07528C16.6712 9.07528 17.6564 9.30273 18.5074 9.73423L19.4119 7.95043ZM15.5293 7.07528C14.0574 7.07528 12.7229 7.37361 11.5579 8.00609L12.512 9.7638C13.3356 9.31673 14.3306 9.07528 15.5293 9.07528V7.07528ZM11.5579 8.00609C10.3898 8.64017 9.48303 9.55674 8.85214 10.7355L10.6155 11.6793C11.0641 10.841 11.6914 10.2093 12.512 9.7638L11.5579 8.00609ZM8.85214 10.7355C8.21955 11.9175 7.92415 13.2869 7.92415 14.8082H9.92415C9.92415 13.5455 10.1685 12.5144 10.6155 11.6793L8.85214 10.7355ZM8.92415 13.8082H0.167047V15.8082H8.92415V13.8082ZM1.16705 14.8082C1.16705 12.1085 1.77646 9.81727 2.95782 7.89594L1.25411 6.84838C-0.149752 9.13159 -0.832953 11.7977 -0.832953 14.8082H1.16705ZM2.95782 7.89594C4.14657 5.96259 5.81186 4.46136 7.98204 3.3895L7.09637 1.59629C4.60746 2.82557 2.65059 4.57719 1.25411 6.84838L2.95782 7.89594ZM7.98204 3.3895C10.1523 2.3176 12.681 1.76704 15.5932 1.76704V-0.232956C12.4258 -0.232956 9.5852 0.367055 7.09637 1.59629L7.98204 3.3895ZM15.5932 1.76704C18.6007 1.76704 21.1676 2.30004 23.322 3.33102L24.1853 1.52694C21.7091 0.342006 18.8357 -0.232956 15.5932 -0.232956V1.76704ZM23.3287 3.33417C25.51 4.3583 27.1727 5.76354 28.3539 7.54193L30.0199 6.43534C28.616 4.32168 26.6565 2.68715 24.1787 1.52378L23.3287 3.33417ZM28.354 7.54193C29.5293 9.31137 30.1259 11.3459 30.1259 13.679H32.1259C32.1259 10.9836 31.4298 8.55795 30.0199 6.43534L28.354 7.54193ZM30.1259 13.679C30.1259 15.1908 29.8268 16.6895 29.2195 18.1812L31.0719 18.9353C31.7715 17.2167 32.1259 15.4626 32.1259 13.679H30.1259ZM29.2167 18.1883C28.6312 19.6586 27.5587 21.3489 25.9499 23.2628L27.4808 24.5497C29.1675 22.5432 30.3819 20.6681 31.0748 18.9282L29.2167 18.1883ZM25.9522 23.2601C24.3438 25.1596 22.0564 27.4636 19.075 30.1766L20.421 31.6558C23.4339 28.9142 25.7915 26.5449 27.4785 24.5524L25.9522 23.2601ZM19.0481 30.202L12.6774 36.4449L14.0772 37.8733L20.4479 31.6304L19.0481 30.202ZM12.3773 37.1591V37.4574H14.3773V37.1591H12.3773ZM13.3773 38.4574H31.7011V36.4574H13.3773V38.4574ZM30.7011 37.4574V45H32.7011V37.4574H30.7011ZM31.7011 44H0.593184V46H31.7011V44ZM51.8955 45.9588L51.8917 46.9588H51.8955V45.9588ZM42.4353 43.2528L41.8724 44.0794L41.8745 44.0808L42.4353 43.2528ZM36.3629 35.4759L35.439 35.8585L35.4404 35.8618L36.3629 35.4759ZM34.2748 23.2244L35.2748 23.2274V23.2244H34.2748ZM36.3842 11.0582L35.4634 10.6681L35.462 10.6714L36.3842 11.0582ZM42.4566 3.40909L43.0103 4.24183L43.0113 4.24114L42.4566 3.40909ZM61.3131 3.40909L60.7564 4.23976L60.7584 4.24114L61.3131 3.40909ZM67.4069 11.0795L66.4861 11.4697L66.4867 11.4711L67.4069 11.0795ZM69.5163 23.2244L68.5163 23.2214V23.2244H69.5163ZM67.3856 35.4972L66.4631 35.1112L66.4617 35.1145L67.3856 35.4972ZM61.3344 43.2741L61.8974 44.1007L61.3344 43.2741ZM57.8827 34.5384L58.7428 35.0486L57.8827 34.5384ZM60.0987 23.2244H59.0987L59.0987 23.2273L60.0987 23.2244ZM59.0759 14.9574L58.1189 15.2476L58.1207 15.2532L59.0759 14.9574ZM56.2208 9.9929L55.549 10.7336L55.5533 10.7375L56.2208 9.9929ZM45.9296 12.0597L45.0721 11.5452L45.9296 12.0597ZM43.6711 23.2244L42.6711 23.2216V23.2244H43.6711ZM44.6725 31.6193L43.714 31.9044L43.7162 31.9117L44.6725 31.6193ZM47.5489 36.6477L46.8767 37.3881L46.8814 37.3923L47.5489 36.6477ZM51.8994 44.9588C48.4029 44.9453 45.4503 44.0874 42.9962 42.4249L41.8745 44.0808C44.7044 45.9978 48.0586 46.9439 51.8917 46.9588L51.8994 44.9588ZM42.9982 42.4263C40.5543 40.7618 38.6432 38.335 37.2854 35.0899L35.4404 35.8618C36.9235 39.4065 39.0606 42.1643 41.8724 44.0794L42.9982 42.4263ZM37.2867 35.0932C35.9438 31.8511 35.2609 27.9055 35.2748 23.2274L33.2748 23.2215C33.2603 28.0888 33.9694 32.3108 35.439 35.8585L37.2867 35.0932ZM35.2748 23.2244C35.2748 18.5597 35.9647 14.6433 37.3063 11.4451L35.462 10.6714C33.9912 14.1777 33.2748 18.3721 33.2748 23.2244H35.2748ZM37.3049 11.4484C38.661 8.24796 40.5694 5.86466 43.0103 4.24183L41.9029 2.57635C39.0881 4.44784 36.9482 7.16397 35.4634 10.6681L37.3049 11.4484ZM43.0113 4.24114C45.4655 2.60501 48.412 1.76704 51.8955 1.76704V-0.232956C48.0779 -0.232956 44.7318 0.690445 41.9019 2.57704L43.0113 4.24114ZM51.8955 1.76704C55.3792 1.76704 58.3175 2.60505 60.7564 4.23976L61.8699 2.57843C59.0531 0.690407 55.713 -0.232956 51.8955 -0.232956V1.76704ZM60.7584 4.24114C63.215 5.87888 65.1304 8.27022 66.4861 11.4697L68.3276 10.6894C66.8424 7.18432 64.6953 4.46203 61.8678 2.57704L60.7584 4.24114ZM66.4867 11.4711C67.8403 14.6521 68.5302 18.5582 68.5163 23.2214L70.5163 23.2274C70.5308 18.3736 69.8144 14.1831 68.327 10.688L66.4867 11.4711ZM68.5163 23.2244C68.5163 27.9169 67.8195 31.8693 66.4631 35.1112L68.3081 35.8831C69.7926 32.3352 70.5163 28.1059 70.5163 23.2244H68.5163ZM66.4617 35.1145C65.1181 38.3581 63.2145 40.7838 60.7715 42.4476L61.8974 44.1007C64.7101 42.185 66.8406 39.426 68.3095 35.8799L66.4617 35.1145ZM60.7715 42.4476C58.334 44.1078 55.3911 44.9588 51.8955 44.9588V46.9588C55.7295 46.9588 59.0793 46.02 61.8974 44.1007L60.7715 42.4476ZM51.8955 39.3097C54.8141 39.3097 57.1073 37.8055 58.7428 35.0486L57.0227 34.0281C55.6752 36.2996 53.977 37.3097 51.8955 37.3097V39.3097ZM58.7428 35.0486C60.371 32.3039 61.113 28.3165 61.0986 23.2216L59.0987 23.2273C59.1127 28.1892 58.3775 31.7444 57.0227 34.0281L58.7428 35.0486ZM61.0987 23.2244C61.0987 19.8542 60.7525 16.9908 60.0312 14.6616L58.1207 15.2532C58.763 17.3274 59.0987 19.9753 59.0987 23.2244H61.0987ZM60.0329 14.6672C59.3318 12.3552 58.3032 10.5168 56.8884 9.24833L55.5533 10.7375C56.61 11.6849 57.4848 13.1562 58.119 15.2476L60.0329 14.6672ZM56.8926 9.25218C55.4855 7.97594 53.8037 7.33097 51.8955 7.33097V9.33097C53.3112 9.33097 54.5129 9.79394 55.549 10.7336L56.8926 9.25218ZM51.8955 7.33097C48.9945 7.33097 46.7088 8.81737 45.0721 11.5452L46.7871 12.5742C48.1334 10.3304 49.8249 9.33097 51.8955 9.33097V7.33097ZM45.0721 11.5452C43.4434 14.2597 42.6855 18.1965 42.6711 23.2216L44.6711 23.2273C44.6851 18.3376 45.4329 14.8312 46.7871 12.5742L45.0721 11.5452ZM42.6711 23.2244C42.6711 26.6353 43.0098 29.5372 43.714 31.9044L45.631 31.3342C45 29.2128 44.6711 26.5181 44.6711 23.2244H42.6711ZM43.7162 31.9117C44.4307 34.2488 45.4649 36.1061 46.8767 37.3881L48.2212 35.9074C47.1614 34.9451 46.2779 33.4501 45.6288 31.3269L43.7162 31.9117ZM46.8814 37.3923C48.3009 38.665 49.9876 39.3097 51.8955 39.3097V37.3097C50.4796 37.3097 49.2686 36.8464 48.2165 35.9032L46.8814 37.3923ZM72.4948 45H71.4948V46H72.4948V45ZM72.4948 38.3523L71.8153 37.6185L71.4948 37.9154V38.3523H72.4948ZM88.0274 23.9702L88.7068 24.7039L88.7149 24.6964L88.7228 24.6888L88.0274 23.9702ZM91.3513 20.5185L90.6039 19.8541L90.5987 19.86L91.3513 20.5185ZM93.418 17.5142L94.3202 17.9457L94.3226 17.9406L93.418 17.5142ZM93.2476 10.9943L92.3981 11.522L92.4018 11.5278L93.2476 10.9943ZM90.8612 8.84233L90.409 9.73429L90.4191 9.73927L90.8612 8.84233ZM81.6354 11.2074L82.517 11.6793L81.6354 11.2074ZM80.8257 14.8082V15.8082H81.8257V14.8082H80.8257ZM72.0686 14.8082H71.0686V15.8082H72.0686V14.8082ZM74.0075 7.37216L74.8594 7.89594L74.0075 7.37216ZM79.4408 2.4929L78.9979 1.59629V1.59629L79.4408 2.4929ZM95.6553 2.42898L95.2236 3.33104L95.2303 3.33417L95.6553 2.42898ZM101.089 6.98864L100.256 7.54193V7.54193L101.089 6.98864ZM102.047 18.5582L101.121 18.1812L101.118 18.1883L102.047 18.5582ZM98.6169 23.9062L99.3801 24.5524L99.3824 24.5497L98.6169 23.9062ZM91.6496 30.9162L90.9766 30.1766L90.9629 30.189L90.9497 30.202L91.6496 30.9162ZM85.2788 37.1591L84.5789 36.4449L84.2788 36.7389V37.1591H85.2788ZM85.2788 37.4574H84.2788V38.4574H85.2788V37.4574ZM103.603 37.4574H104.603V36.4574H103.603V37.4574ZM103.603 45V46H104.603V45H103.603ZM73.4948 45V38.3523H71.4948V45H73.4948ZM73.1742 39.086L88.7068 24.7039L87.348 23.2364L71.8153 37.6185L73.1742 39.086ZM88.7228 24.6888C90.0573 23.3973 91.1857 22.2263 92.1039 21.177L90.5987 19.86C89.7271 20.8561 88.6396 21.9862 87.332 23.2516L88.7228 24.6888ZM92.0987 21.1828C93.0547 20.1074 93.8021 19.0288 94.3202 17.9457L92.5159 17.0827C92.0965 17.9598 91.4661 18.8841 90.6039 19.8541L92.0987 21.1828ZM94.3226 17.9406C94.8571 16.8067 95.1212 15.5878 95.1212 14.2969H93.1212C93.1212 15.3071 92.9165 16.2331 92.5135 17.0878L94.3226 17.9406ZM95.1212 14.2969C95.1212 12.8625 94.7927 11.5695 94.0934 10.4608L92.4018 11.5278C92.8672 12.2657 93.1212 13.1744 93.1212 14.2969H95.1212ZM94.097 10.4666C93.4141 9.3673 92.4762 8.52353 91.3034 7.94539L90.4191 9.73927C91.2633 10.1554 91.9163 10.7463 92.3981 11.522L94.097 10.4666ZM91.3135 7.95043C90.1474 7.3592 88.8457 7.07528 87.4308 7.07528V9.07528C88.5728 9.07528 89.558 9.30273 90.409 9.73423L91.3135 7.95043ZM87.4308 7.07528C85.959 7.07528 84.6245 7.37361 83.4594 8.00609L84.4136 9.7638C85.2372 9.31673 86.2322 9.07528 87.4308 9.07528V7.07528ZM83.4594 8.00609C82.2914 8.64017 81.3846 9.55674 80.7537 10.7355L82.517 11.6793C82.9657 10.841 83.593 10.2093 84.4136 9.7638L83.4594 8.00609ZM80.7537 10.7355C80.1211 11.9175 79.8257 13.2869 79.8257 14.8082H81.8257C81.8257 13.5455 82.0701 12.5144 82.517 11.6793L80.7537 10.7355ZM80.8257 13.8082H72.0686V15.8082H80.8257V13.8082ZM73.0686 14.8082C73.0686 12.1085 73.678 9.81727 74.8594 7.89594L73.1557 6.84838C71.7518 9.13159 71.0686 11.7977 71.0686 14.8082H73.0686ZM74.8594 7.89594C76.0481 5.96259 77.7134 4.46136 79.8836 3.3895L78.9979 1.59629C76.509 2.82557 74.5522 4.57719 73.1557 6.84838L74.8594 7.89594ZM79.8836 3.3895C82.0539 2.3176 84.5826 1.76704 87.4948 1.76704V-0.232956C84.3274 -0.232956 81.4868 0.367055 78.9979 1.59629L79.8836 3.3895ZM87.4948 1.76704C90.5023 1.76704 93.0691 2.30004 95.2236 3.33102L96.0869 1.52694C93.6107 0.342006 90.7372 -0.232956 87.4948 -0.232956V1.76704ZM95.2303 3.33417C97.4115 4.3583 99.0742 5.76354 100.256 7.54193L101.921 6.43534C100.518 4.32168 98.5581 2.68715 96.0803 1.52378L95.2303 3.33417ZM100.256 7.54193C101.431 9.31137 102.027 11.3459 102.027 13.679H104.027C104.027 10.9836 103.331 8.55795 101.921 6.43534L100.256 7.54193ZM102.027 13.679C102.027 15.1908 101.728 16.6895 101.121 18.1812L102.974 18.9353C103.673 17.2167 104.027 15.4626 104.027 13.679H102.027ZM101.118 18.1883C100.533 19.6586 99.4602 21.3489 97.8514 23.2628L99.3824 24.5497C101.069 22.5432 102.283 20.6681 102.976 18.9282L101.118 18.1883ZM97.8537 23.2601C96.2453 25.1596 93.958 27.4636 90.9766 30.1766L92.3226 31.6558C95.3355 28.9142 97.693 26.5449 99.3801 24.5524L97.8537 23.2601ZM90.9497 30.202L84.5789 36.4449L85.9787 37.8733L92.3495 31.6304L90.9497 30.202ZM84.2788 37.1591V37.4574H86.2788V37.1591H84.2788ZM85.2788 38.4574H103.603V36.4574H85.2788V38.4574ZM102.603 37.4574V45H104.603V37.4574H102.603ZM103.603 44H72.4948V46H103.603V44ZM106.688 45H105.688V46H106.688V45ZM106.688 38.3523L106.008 37.6185L105.688 37.9154V38.3523H106.688ZM122.22 23.9702L122.9 24.7039L122.908 24.6964L122.916 24.6888L122.22 23.9702ZM125.544 20.5185L124.797 19.8541L124.792 19.86L125.544 20.5185ZM127.611 17.5142L128.513 17.9457L128.516 17.9406L127.611 17.5142ZM127.441 10.9943L126.591 11.522L126.595 11.5278L127.441 10.9943ZM125.054 8.84233L124.602 9.73429L124.612 9.73927L125.054 8.84233ZM115.828 11.2074L116.71 11.6793L115.828 11.2074ZM115.019 14.8082V15.8082H116.019V14.8082H115.019ZM106.262 14.8082H105.262V15.8082H106.262V14.8082ZM108.2 7.37216L109.052 7.89594L108.2 7.37216ZM113.634 2.4929L113.191 1.59629V1.59629L113.634 2.4929ZM129.848 2.42898L129.417 3.33104L129.423 3.33417L129.848 2.42898ZM135.281 6.98864L134.448 7.54193V7.54193L135.281 6.98864ZM136.24 18.5582L135.314 18.1812L135.311 18.1883L136.24 18.5582ZM132.81 23.9062L133.573 24.5524L133.575 24.5497L132.81 23.9062ZM125.843 30.9162L125.17 30.1766L125.156 30.189L125.143 30.202L125.843 30.9162ZM119.472 37.1591L118.772 36.4449L118.472 36.7389V37.1591H119.472ZM119.472 37.4574H118.472V38.4574H119.472V37.4574ZM137.796 37.4574H138.796V36.4574H137.796V37.4574ZM137.796 45V46H138.796V45H137.796ZM107.688 45V38.3523H105.688V45H107.688ZM107.367 39.086L122.9 24.7039L121.541 23.2364L106.008 37.6185L107.367 39.086ZM122.916 24.6888C124.25 23.3973 125.379 22.2263 126.297 21.177L124.792 19.86C123.92 20.8561 122.833 21.9862 121.525 23.2516L122.916 24.6888ZM126.292 21.1828C127.248 20.1074 127.995 19.0288 128.513 17.9457L126.709 17.0827C126.289 17.9598 125.659 18.8841 124.797 19.8541L126.292 21.1828ZM128.516 17.9406C129.05 16.8067 129.314 15.5878 129.314 14.2969H127.314C127.314 15.3071 127.109 16.2331 126.706 17.0878L128.516 17.9406ZM129.314 14.2969C129.314 12.8625 128.986 11.5695 128.286 10.4608L126.595 11.5278C127.06 12.2657 127.314 13.1744 127.314 14.2969H129.314ZM128.29 10.4666C127.607 9.3673 126.669 8.52353 125.496 7.94539L124.612 9.73927C125.456 10.1554 126.109 10.7463 126.591 11.522L128.29 10.4666ZM125.506 7.95043C124.34 7.3592 123.039 7.07528 121.624 7.07528V9.07528C122.766 9.07528 123.751 9.30273 124.602 9.73423L125.506 7.95043ZM121.624 7.07528C120.152 7.07528 118.817 7.37361 117.652 8.00609L118.607 9.7638C119.43 9.31673 120.425 9.07528 121.624 9.07528V7.07528ZM117.652 8.00609C116.484 8.64017 115.578 9.55674 114.947 10.7355L116.71 11.6793C117.159 10.841 117.786 10.2093 118.607 9.7638L117.652 8.00609ZM114.947 10.7355C114.314 11.9175 114.019 13.2869 114.019 14.8082H116.019C116.019 13.5455 116.263 12.5144 116.71 11.6793L114.947 10.7355ZM115.019 13.8082H106.262V15.8082H115.019V13.8082ZM107.262 14.8082C107.262 12.1085 107.871 9.81727 109.052 7.89594L107.349 6.84838C105.945 9.13159 105.262 11.7977 105.262 14.8082H107.262ZM109.052 7.89594C110.241 5.96259 111.906 4.46136 114.077 3.3895L113.191 1.59629C110.702 2.82557 108.745 4.57719 107.349 6.84838L109.052 7.89594ZM114.077 3.3895C116.247 2.3176 118.776 1.76704 121.688 1.76704V-0.232956C118.52 -0.232956 115.68 0.367055 113.191 1.59629L114.077 3.3895ZM121.688 1.76704C124.695 1.76704 127.262 2.30004 129.417 3.33102L130.28 1.52694C127.804 0.342006 124.93 -0.232956 121.688 -0.232956V1.76704ZM129.423 3.33417C131.604 4.3583 133.267 5.76354 134.448 7.54193L136.114 6.43534C134.71 4.32168 132.751 2.68715 130.273 1.52378L129.423 3.33417ZM134.448 7.54193C135.624 9.31137 136.22 11.3459 136.22 13.679H138.22C138.22 10.9836 137.524 8.55795 136.114 6.43534L134.448 7.54193ZM136.22 13.679C136.22 15.1908 135.921 16.6895 135.314 18.1812L137.166 18.9353C137.866 17.2167 138.22 15.4626 138.22 13.679H136.22ZM135.311 18.1883C134.726 19.6586 133.653 21.3489 132.044 23.2628L133.575 24.5497C135.262 22.5432 136.476 20.6681 137.169 18.9282L135.311 18.1883ZM132.047 23.2601C130.438 25.1596 128.151 27.4636 125.17 30.1766L126.516 31.6558C129.528 28.9142 131.886 26.5449 133.573 24.5524L132.047 23.2601ZM125.143 30.202L118.772 36.4449L120.172 37.8733L126.542 31.6304L125.143 30.202ZM118.472 37.1591V37.4574H120.472V37.1591H118.472ZM119.472 38.4574H137.796V36.4574H119.472V38.4574ZM136.796 37.4574V45H138.796V37.4574H136.796ZM137.796 44H106.688V46H137.796V44Z" fill="#D3A60D" mask="url(#path-1-outside-1_394_20)"/>
</svg>
