<svg width="90" height="90" viewBox="0 0 90 90" fill="none" xmlns="http://www.w3.org/2000/svg">
<g clip-path="url(#clip0_400_487)">
<path fill-rule="evenodd" clip-rule="evenodd" d="M32.2789 0.529087C27.5055 1.88886 20.6653 5.16641 20.7406 6.05767C20.763 6.32253 20.9101 7.26135 21.0675 8.14413C22.3601 15.3984 15.5656 22.2227 8.22857 21.0393C7.30929 20.8912 6.34294 20.75 6.08117 20.7259C5.49154 20.6714 4.04331 23.1271 2.40377 26.9617C1.3536 29.4177 0 33.5456 0 34.2921C0 34.4623 0.464914 34.8629 1.03294 35.182C2.59637 36.0609 4.54294 38.1849 5.39357 39.9405C7.49263 44.2728 6.77854 49.1829 3.5532 52.5932C2.80517 53.3841 1.69946 54.3207 1.09646 54.674C0.339943 55.1173 0.00128571 55.4883 0.00385714 55.8707C0.0156857 57.6267 4.4352 68.246 5.5332 69.1573C5.78289 69.3645 6.1524 69.3687 6.86109 69.1717C8.5194 68.7114 11.6645 68.8356 13.4334 69.4314C16.7377 70.5446 19.4593 73.2492 20.5938 76.5471C21.1778 78.2442 21.2876 81.3348 20.825 83.0528C20.5578 84.0448 20.5771 84.2097 20.998 84.5357C22.0132 85.3221 28.2824 88.172 30.6 88.9005C34.6649 90.1782 34.4643 90.188 35.3571 88.6665C37.5105 84.9963 42.4137 82.7488 46.675 83.4789C50.0845 84.0628 53.4572 86.3427 54.8979 89.0378C55.3582 89.8989 55.4881 89.9794 56.1837 89.8362C58.3676 89.3859 62.9889 87.6356 65.9571 86.1341C68.6705 84.7615 69.2889 84.3472 69.2409 83.934C69.2082 83.654 69.0565 82.6552 68.9035 81.7143C68.0377 76.3894 71.4477 71.0542 76.8464 69.2882C78.1331 68.8672 80.6608 68.8379 83.8286 69.2072C84.4167 69.2756 84.6257 68.9757 86.2838 65.682C87.9961 62.2805 89.4911 58.3565 89.8771 56.25C90.0435 55.3418 90.0087 55.2826 89.011 54.7735C86.5522 53.5194 84.2037 50.2138 83.5568 47.097C82.6766 42.8575 84.7731 37.8941 88.4283 35.5631C89.2869 35.0157 89.9918 34.4078 89.9946 34.2121C89.9977 34.0164 89.4749 32.2807 88.8334 30.3549C87.3859 26.0113 84.6648 20.6608 83.9358 20.7259C83.6648 20.75 82.6907 20.8912 81.7714 21.0393C74.1914 22.2618 67.4339 15.2104 68.9842 7.69618C69.3512 5.91727 69.3489 5.74164 68.9552 5.4323C67.9533 4.64467 62.1435 1.98632 59.6571 1.17786C55.3248 -0.231286 55.5429 -0.236428 54.6429 1.29743C51.813 6.12093 45.2584 7.9937 39.9677 5.49093C38.1916 4.65058 36.0072 2.65978 35.2075 1.1524C34.866 0.508516 34.4708 -0.00988547 34.3291 0.000143088C34.1874 0.0101717 33.2648 0.248286 32.2789 0.529087ZM51.4036 14.1196C52.7336 14.3922 53.911 14.7072 54.0203 14.8198C54.2384 15.0446 51.407 21.089 49.6484 24.1533C48.2323 26.6215 45.1723 31.3429 44.9853 31.3488C44.8002 31.3547 42.0393 27.1386 40.6509 24.7301C39.0608 21.9715 35.7416 15.1063 35.8856 14.8736C36.0453 14.6149 39.2652 13.8974 41.5566 13.6097C44.0311 13.2988 48.5375 13.5323 51.4036 14.1196ZM31.6188 19.589C33.6947 23.2454 36.982 28.0641 39.8111 31.5967L42.3741 34.7973L41.3085 36.063L40.2429 37.3287L34.9714 31.9428C32.0721 28.9805 28.5575 25.3218 27.1612 23.8124C24.9963 21.4718 24.6711 21.0095 24.9513 20.6716C25.3353 20.209 29.7658 17.2105 30.0654 17.2105C30.177 17.2105 30.8759 18.2807 31.6188 19.589ZM62.3921 18.733C63.6632 19.5703 64.855 20.4384 65.0404 20.6618C65.4259 21.126 63.9666 22.7663 54.8632 32.1017L49.7453 37.35L48.6525 36.0447L47.5596 34.7395L48.9299 33.1107C52.1082 29.3328 56.4807 23.0191 58.7389 18.9462C59.2683 17.9914 59.7867 17.2105 59.8911 17.2105C59.9958 17.2105 61.1211 17.8955 62.3921 18.733ZM29.3143 32.5373C32.4964 35.5392 35.5953 38.5048 36.2006 39.1276L37.3011 40.2601L36.0571 41.309L34.8128 42.3581L32.2565 40.3084C27.728 36.6781 23.4319 33.7852 17.4993 30.3714C17.0612 30.1194 17.6752 28.9491 19.6599 26.2538L20.8587 24.6254L22.1935 25.8524C22.9279 26.5271 26.1321 29.5354 29.3143 32.5373ZM71.36 27.7761C71.9861 28.7079 72.5649 29.6432 72.6459 29.854C72.7521 30.1315 72.1301 30.6126 70.4037 31.5885C66.8178 33.6153 61.9725 36.9239 58.3797 39.799L55.1739 42.3648L53.9064 41.3038L52.6392 40.2426L56.5084 36.4744C58.6365 34.4019 62.3276 30.8937 64.7103 28.6781L69.0429 24.6501L69.632 25.366C69.9562 25.7598 70.7336 26.8444 71.36 27.7761ZM22.8489 39.6491C24.4553 40.5177 27.0437 42.0565 28.601 43.0689L31.4324 44.9095L30.5661 45.5667C28.6959 46.9859 23.8351 49.779 19.6714 51.8271C17.2671 53.0097 15.1732 53.9784 15.0182 53.9797C14.6445 53.9828 13.9204 50.6175 13.6229 47.4943C13.2938 44.0393 13.8145 38.9127 14.7849 36.0558C14.9097 35.6883 18.4011 37.2443 22.8489 39.6491ZM75.7677 38.1677C76.4403 41.0791 76.4452 48.8762 75.7764 51.7269C75.52 52.8202 75.1989 53.7835 75.0628 53.8676C74.4015 54.2764 58.6489 45.756 58.6355 44.982C58.6227 44.2401 74.6486 35.4227 75.1112 35.9169C75.2107 36.0234 75.5061 37.0363 75.7677 38.1677ZM46.1268 38.8749L47.0389 39.9677L46.0196 40.9924L45 42.0174L43.9151 40.9325L42.8302 39.8476L43.8387 38.8147C44.3934 38.2467 44.9298 37.782 45.0309 37.782C45.1319 37.782 45.6251 38.2737 46.1268 38.8749ZM41.0184 43.9575L42.0269 44.9905L40.9685 46.0489L39.9101 47.107L38.7908 46.0602L37.6714 45.0131L38.6879 43.9691C39.2469 43.3947 39.7731 42.9249 39.8571 42.9249C39.9412 42.9249 40.4637 43.3895 41.0184 43.9575ZM52.1123 44.7909C52.2123 44.9527 51.7963 45.5007 51.1524 46.0551L50.0163 47.0335L48.9947 46.0121L47.9731 44.9905L48.9708 43.9689L49.9683 42.9472L50.9521 43.7261C51.4931 44.1548 52.0151 44.6338 52.1123 44.7909ZM33.2398 53.7354C30.9816 55.9332 27.3047 59.4499 25.0686 61.55L21.0029 65.3685L20.2693 64.4968C19.8658 64.0173 18.9926 62.7665 18.3286 61.7174C17.3461 60.1647 17.1913 59.77 17.4965 59.5944C23.8263 55.9502 27.8043 53.2736 32.2511 49.6661L34.802 47.5969L36.0738 48.6679L37.3454 49.7391L33.2398 53.7354ZM59.5286 51.0714C62.6521 53.5032 67.7343 56.9237 70.7143 58.5998C71.775 59.1963 72.6866 59.7276 72.7403 59.7806C72.8645 59.9032 69.5034 64.9625 69.1542 65.1783C68.8793 65.3482 64.9509 61.7351 57.2678 54.2451L52.6577 49.751L53.8969 48.6759L55.1363 47.6005L55.9183 48.2349C56.3482 48.5835 57.9729 49.86 59.5286 51.0714ZM46.089 49.032L47.025 49.9963L46.0144 51.1534L45.0041 52.3106L43.9431 51.1953L42.8824 50.0799L43.8647 49.0739C44.4052 48.5205 44.9159 48.0677 45 48.0677C45.0841 48.0677 45.5739 48.5018 46.089 49.032ZM41.6263 56.0391C37.8638 60.5921 33.578 66.7533 31.3863 70.7606C30.7869 71.8565 30.2115 72.7534 30.1076 72.7534C29.8337 72.7534 25.3486 69.7711 25.0141 69.3666C24.7004 68.9871 26.551 66.9011 35.3103 57.761L40.1907 52.6685L41.2804 53.9038L42.3702 55.1391L41.6263 56.0391ZM60.722 64.1391L65.3089 69.0249L64.6043 69.614C63.7023 70.3687 60.632 72.4343 60.121 72.6305C59.8348 72.7403 59.3686 72.1407 58.3776 70.3882C56.3354 66.7772 53.0177 61.9107 50.1688 58.3473L47.6172 55.1559L48.681 53.8853L49.7448 52.6148L52.9398 55.934C54.6974 57.7597 58.1991 61.452 60.722 64.1391ZM46.6138 60.9891C47.3778 62.1558 48.5007 63.9687 49.1091 65.0178C50.3967 67.2372 53.9897 74.5501 53.9959 74.9638C54.0013 75.3375 50.6366 76.0613 47.5097 76.3593C43.5824 76.7335 36 75.7839 36 74.9175C36 74.3981 40.195 66.1135 41.7831 63.4963C43.7305 60.2871 44.7159 58.8677 44.9961 58.8677C45.1219 58.8677 45.8499 59.8225 46.6138 60.9891Z" fill="#D3A60D"/>
</g>
<defs>
<clipPath id="clip0_400_487">
<rect width="90" height="90" fill="white"/>
</clipPath>
</defs>
</svg>
