<svg width="1600" height="873" viewBox="0 0 1600 873" fill="none" xmlns="http://www.w3.org/2000/svg">
<g clip-path="url(#clip0_36_396)">
<path d="M2730 0C2615.18 78.3752 2495.15 150.164 2366.52 202.892C2324.82 219.989 2281.96 235.131 2237.41 241.906C2146.54 255.72 2054.4 234.146 1962.54 231.251C1845.87 227.571 1728.55 255.238 1625.29 309.51C1547.59 350.35 1460.17 409.587 1372.27 424.453C1292.43 437.957 1206.53 364.48 1135.82 335.811C1063.39 306.45 982.389 300.196 905.901 315.3C865.831 323.214 826.856 336.984 790.92 356.433C756.556 375.034 726.619 409.653 685.879 382.445C672.414 373.451 663.104 359.593 651.531 348.264C611.312 308.896 540.978 305.819 497.476 341.528M2724.94 2.45723C2612.73 81.884 2493.93 154.426 2366.01 206.96C2323.42 224.483 2279.66 239.166 2234.32 246.726C2179.61 255.775 2124.33 252.421 2068.87 247.65C2031.02 244.396 1993.08 240.477 1955.17 239.382C1880.3 237.223 1805.17 246.565 1733.53 266.241C1691.65 277.747 1650.97 292.796 1612.2 311.237C1584.96 324.127 1556.64 339.059 1527.6 353.599C1486.74 373.988 1444.44 393.581 1401.46 406.128C1386.03 410.649 1370.52 414.263 1354.99 416.638C1290.79 426.412 1222.78 385.019 1161.6 354.567C1145.21 346.365 1129.3 338.949 1114.07 333.514C1051.49 310.971 983.247 305.315 917.192 315.133C905.818 316.821 894.505 318.969 883.287 321.57C843.283 330.841 804.341 345.817 768.09 365.941C746.621 377.862 726.708 395.606 704.802 401.213C691.314 404.666 677.135 403.454 661.361 393.592C647.58 384.974 637.745 371.658 625.74 360.716C584.076 322.677 513.178 319.323 468.426 354.573M2719.87 4.90859C2610.28 85.3925 2492.72 158.681 2365.5 211.022C2322.01 228.976 2277.34 243.2 2231.22 251.535C2175.81 261.42 2119.71 259.007 2063.38 254.9C2024.91 252.1 1986.33 248.508 1947.8 247.5C1871.67 245.497 1795.29 254.026 1722.46 271.93C1679.88 282.396 1638.54 296.094 1599.1 312.952C1571.32 324.702 1542.53 338.362 1513.06 351.6C1471.57 370.141 1428.69 387.83 1384.94 399.225C1369.26 403.343 1353.49 406.647 1337.68 408.817C1272.22 417.722 1202.89 378.327 1140.6 350.327C1123.94 342.767 1107.77 336.059 1092.31 331.222C1028.88 311.375 960.472 308.104 894.505 320.236C883.154 322.317 871.863 324.863 860.661 327.84C820.718 338.467 781.81 354.65 745.249 375.454C723.586 387.785 703.335 405.618 681.02 411.501C667.266 415.126 652.849 414.097 636.832 404.743C622.724 396.502 612.374 383.734 599.938 373.174C556.835 336.463 485.361 332.833 439.369 367.617M2714.81 7.36078C2607.83 88.8962 2491.5 162.943 2364.99 215.085C2320.61 233.465 2275.04 247.23 2228.14 256.351C2172.03 267.077 2115.1 265.599 2057.89 262.156C2018.82 259.815 1979.61 256.55 1940.43 255.62C1863.06 253.777 1785.42 261.487 1711.41 277.614C1668.13 287.045 1626.17 299.498 1586.01 314.663C1557.73 325.345 1528.43 337.654 1498.54 349.597C1456.4 366.289 1412.95 382.074 1368.43 392.313C1352.51 396.027 1336.47 399.021 1320.4 400.991C1253.67 409.028 1182.96 371.796 1119.62 346.077C1102.68 339.198 1086.27 333.132 1070.57 328.914C1006.33 311.658 937.714 310.877 871.847 325.328C860.512 327.808 849.243 330.741 838.064 334.1C798.187 346.083 759.312 363.472 722.441 384.958C700.585 397.698 680.002 415.619 657.271 421.779C643.252 425.581 628.596 424.74 612.33 415.879C597.896 408.02 587.032 395.789 574.164 385.611C529.616 350.228 457.578 346.315 410.335 380.646M2709.75 9.81885C2605.38 92.4059 2490.28 167.206 2364.49 219.159C2319.2 237.971 2272.75 251.365 2225.05 261.172C2168.26 272.844 2110.49 272.197 2052.4 269.424C2012.72 267.537 1972.88 264.603 1933.06 263.757C1854.45 262.074 1775.55 268.97 1700.35 283.321C1656.39 291.712 1613.76 302.847 1572.92 316.396C1544.1 325.96 1514.33 336.968 1484.02 347.622C1441.24 362.466 1397.21 376.346 1351.92 385.429C1335.74 388.738 1319.45 391.423 1303.11 393.188C1235.12 400.356 1163.07 365.172 1098.63 341.849C1081.42 335.623 1064.77 330.227 1048.83 326.629C983.789 311.963 914.956 313.673 849.177 330.437C837.859 333.31 826.613 336.636 815.455 340.377C775.645 353.716 736.798 372.312 699.616 394.472C677.566 407.622 656.651 425.626 633.506 432.069C619.221 436.048 604.322 435.395 587.818 427.032C573.051 419.555 561.678 407.866 548.378 398.07C502.386 364.016 429.778 359.826 381.295 393.692M2704.69 12.2694C2602.93 95.9135 2489.07 171.466 2363.98 223.22C2317.8 242.458 2270.45 255.415 2221.96 265.98C2164.47 278.51 2105.87 278.782 2046.91 276.673C2006.62 275.245 1966.15 272.638 1925.69 271.869C1845.83 270.347 1765.68 276.424 1689.29 289.004C1644.63 296.359 1601.34 306.167 1559.83 318.105C1530.48 326.545 1500.26 336.336 1469.5 345.617C1426.1 358.718 1381.45 370.479 1335.41 378.515C1318.98 381.382 1302.44 383.795 1285.82 385.356C1216.56 391.654 1143.19 358.513 1077.63 337.598C1060.17 332.024 1043.26 327.298 1027.08 324.32C961.247 312.227 892.192 316.445 826.502 335.528C815.206 338.799 803.982 342.512 792.835 346.636C753.092 361.336 714.272 381.138 676.781 403.974C654.537 417.534 633.284 435.626 609.729 442.345C595.179 446.502 580.036 446.037 563.294 438.172C548.196 431.077 536.313 419.93 522.582 410.516C475.15 377.79 401.972 373.323 352.238 406.73M2699.63 14.7274C2600.48 99.4232 2487.85 175.728 2363.47 227.289C2316.39 246.958 2268.15 259.467 2218.88 270.801C2160.68 284.19 2101.25 285.374 2041.42 283.935C2000.52 282.961 1959.41 280.686 1918.33 280C1837.21 278.638 1755.81 283.902 1678.24 294.7C1632.88 301.015 1588.92 309.499 1546.74 319.827C1516.85 327.144 1486.16 335.65 1454.98 343.625C1410.94 354.894 1365.71 364.718 1318.9 371.614C1302.23 374.071 1285.42 376.185 1268.54 377.536C1198.02 382.965 1123.32 351.867 1056.65 333.353C1038.92 328.433 1021.77 324.371 1005.33 322.024C938.715 312.505 869.434 319.229 803.832 340.626C792.553 344.29 781.351 348.396 770.226 352.896C730.549 368.952 691.763 389.961 653.956 413.478C631.519 427.447 609.934 445.628 585.963 452.624C571.153 456.957 555.75 456.686 538.776 449.314C523.34 442.606 510.953 431.991 496.796 422.958C447.92 391.561 374.172 386.812 323.198 419.765M2694.56 17.1788C2598.02 102.926 2486.63 179.984 2362.95 231.35C2314.98 251.447 2265.84 263.506 2215.78 275.611C2156.89 289.851 2096.63 291.96 2035.92 291.185C1994.42 290.67 1952.68 288.722 1910.95 288.113C1828.59 286.912 1745.93 291.356 1667.17 300.383C1621.12 305.663 1576.5 312.82 1533.64 321.537C1503.21 327.73 1472.05 334.952 1440.45 341.627C1395.76 351.058 1349.96 358.95 1302.38 364.706C1285.46 366.754 1268.39 368.564 1251.24 369.709C1179.45 374.27 1103.44 345.208 1035.65 329.102C1017.67 324.83 1000.27 321.437 983.573 319.716C916.179 312.759 846.659 322.001 781.152 345.717C769.889 349.774 758.709 354.279 747.607 359.155C707.996 376.567 669.237 398.783 631.12 422.974C608.489 437.353 586.567 455.623 562.187 462.895C547.111 467.4 531.453 467.334 514.252 460.443C498.473 454.123 485.588 444.044 470.999 435.394C420.684 405.319 346.366 400.299 294.142 432.787M2689.5 19.6301C2595.58 106.435 2485.42 184.245 2362.45 235.418C2313.58 255.946 2263.54 267.552 2212.7 280.431C2153.11 295.518 2092.02 298.556 2030.44 298.451C1988.33 298.39 1945.95 296.774 1903.58 296.249C1819.97 295.208 1736.07 298.833 1656.11 306.089C1609.37 310.329 1564.07 316.151 1520.55 323.268C1489.58 328.333 1457.95 334.277 1425.93 339.645C1380.59 347.244 1334.22 353.205 1285.87 357.815C1268.7 359.453 1251.38 360.959 1233.95 361.9C1160.9 365.591 1083.58 338.56 1014.66 324.868C996.419 321.243 978.775 318.52 961.833 317.424C893.658 313.018 823.906 324.79 758.493 350.825C747.252 355.28 736.094 360.173 725.003 365.431C685.458 384.199 646.727 407.621 608.301 432.493C585.476 447.282 563.222 465.634 538.427 473.189C523.085 477.871 507.167 478.01 489.745 471.601C473.622 465.673 460.24 456.12 445.219 447.857C393.459 419.111 318.571 413.814 265.107 445.843M2684.44 22.0874C2593.12 109.943 2484.2 188.507 2361.93 239.486C2312.17 260.44 2261.24 271.597 2209.6 285.246C2149.32 301.18 2087.4 305.148 2024.94 305.707C1982.22 306.106 1939.21 304.81 1896.2 304.368C1811.35 303.488 1726.19 306.299 1645.05 311.773C1597.61 314.977 1551.65 319.466 1507.45 324.984C1475.94 328.919 1443.85 333.585 1411.4 337.647C1365.42 343.409 1318.48 347.443 1269.35 350.908C1251.94 352.137 1234.35 353.338 1216.65 354.074C1142.33 356.896 1063.7 331.891 993.657 320.623C975.161 317.645 957.262 315.586 940.072 315.121C871.127 313.262 801.131 327.569 735.807 355.917C724.583 360.765 713.447 366.051 702.378 371.69C662.9 391.814 624.202 416.449 585.46 441.996C562.447 457.194 539.849 475.635 514.645 483.467C499.037 488.326 482.86 488.669 465.21 482.742C448.739 477.207 434.864 468.186 419.411 460.299C366.213 432.881 290.749 427.302 236.039 458.871M2679.38 24.5404C2590.68 113.448 2482.99 192.77 2361.43 243.549C2310.77 264.935 2258.94 275.639 2206.52 290.062C2145.53 306.843 2082.79 311.741 2019.45 312.964C1976.12 313.816 1932.48 312.853 1888.83 312.494C1802.72 311.774 1716.31 313.767 1633.99 317.469C1585.85 319.633 1539.22 322.782 1494.36 326.706C1462.3 329.507 1429.74 332.9 1396.87 335.661C1350.23 339.58 1302.73 341.694 1252.83 344.019C1235.18 344.838 1217.32 345.734 1199.36 346.266C1123.78 348.219 1043.85 325.234 972.665 316.39C953.908 314.06 935.766 312.665 918.321 312.831C848.607 313.506 778.368 330.359 713.132 361.026C701.924 366.273 690.811 371.946 679.764 377.968C640.352 399.447 601.682 425.288 562.635 451.511C539.429 467.119 516.499 485.648 490.879 493.757C475.006 498.793 458.568 499.347 440.697 493.895C423.878 488.759 409.493 480.291 393.626 472.758C338.927 446.785 262.954 440.813 206.994 471.923M2674.32 26.9909C2588.22 116.956 2481.77 197.024 2360.92 247.61C2309.37 269.422 2256.63 279.672 2203.43 294.87C2141.75 312.492 2078.18 318.326 2013.96 320.213C1970.02 321.525 1925.75 320.888 1881.46 320.606C1794.11 320.047 1706.44 321.22 1622.93 323.152C1574.1 324.281 1526.79 326.085 1481.27 328.415C1448.67 330.081 1415.64 332.196 1382.36 333.657C1335.07 335.732 1287 335.931 1236.32 337.105C1218.42 337.52 1200.31 338.106 1182.07 338.433C1105.22 339.518 1023.98 318.547 951.672 312.133C932.661 310.445 914.27 309.714 896.57 310.522C826.087 313.721 755.599 333.131 690.457 366.111C679.271 371.751 668.18 377.823 657.149 384.221C617.804 407.056 579.162 434.104 539.805 461.007C516.405 477.024 493.138 495.637 467.108 504.028C450.975 509.241 434.266 510.011 416.179 505.024C399.005 500.292 384.134 492.344 367.835 485.188C311.697 460.542 235.149 454.294 177.949 484.944M2669.25 29.449C2585.77 120.465 2480.55 201.292 2360.41 251.685C2307.96 273.928 2254.32 283.719 2200.33 299.697C2137.95 318.16 2073.55 324.924 2008.46 327.481C1963.92 329.246 1919.01 328.942 1874.09 328.743C1785.48 328.344 1696.57 328.704 1611.86 328.859C1562.34 328.947 1514.36 329.412 1468.17 330.148C1435.03 330.68 1401.52 331.515 1367.82 331.676C1319.88 331.908 1271.24 330.193 1219.8 330.215C1201.66 330.22 1183.28 330.503 1164.78 330.63C1086.67 330.846 1004.12 311.884 930.679 307.91C911.413 306.864 892.773 306.798 874.824 308.242C803.572 313.96 732.84 335.932 667.786 371.232C656.618 377.27 645.548 383.729 634.535 390.509C595.256 414.706 556.646 442.954 516.975 470.539C493.381 486.965 469.781 505.667 443.337 514.334C426.938 519.719 409.958 520.71 391.655 516.193C374.133 511.871 358.769 504.438 342.037 497.664C284.461 474.352 207.342 467.815 148.892 498.007M2664.19 31.9012C2583.32 123.969 2479.24 205.311 2359.9 255.747C2306.52 278.312 2252.02 287.748 2197.25 304.507C2134.17 323.806 2068.94 331.51 2002.98 334.737C1957.83 336.962 1912.28 336.984 1866.72 336.862C1776.87 336.624 1686.7 336.165 1600.81 334.543C1550.6 333.597 1501.94 332.706 1455.09 331.859C1421.4 331.25 1387.43 330.807 1353.31 329.678C1304.72 328.068 1255.52 324.437 1203.3 323.308C1184.91 322.91 1166.26 322.882 1147.49 322.804C1068.11 322.151 984.265 305.193 909.692 303.66C890.172 303.256 871.282 303.854 853.079 305.935C781.058 314.165 710.082 338.705 645.123 376.318C633.971 382.749 622.924 389.601 611.932 396.763C572.719 422.316 534.138 451.771 494.156 480.031C470.368 496.867 446.431 515.657 419.577 524.601C402.913 530.163 385.667 531.375 367.148 527.324C349.272 523.411 333.421 516.493 316.263 510.1C257.248 488.122 179.554 481.304 119.863 511.035M2659.13 34.3517C2580.87 127.477 2478.02 209.566 2359.39 259.808C2305.1 282.799 2249.71 291.776 2194.16 309.315C2130.37 329.45 2064.32 338.095 1997.48 341.986C1951.73 344.665 1905.55 345.019 1859.34 344.98C1768.24 344.897 1676.82 343.63 1589.74 340.231C1538.83 338.245 1489.49 336.003 1441.99 333.573C1407.75 331.819 1373.31 330.109 1338.78 327.679C1289.53 324.22 1239.77 318.685 1186.77 316.4C1168.14 315.597 1149.23 315.265 1130.19 314.977C1049.55 313.455 964.396 298.501 888.688 299.408C868.908 299.646 849.775 300.908 831.317 303.626C758.521 314.357 687.307 341.477 622.436 381.409C611.306 388.233 600.281 395.478 589.306 403.021C550.16 429.93 511.606 460.597 471.315 489.532C447.333 506.773 423.064 525.651 395.795 534.877C378.865 540.616 361.348 542.056 342.619 538.464C324.382 534.966 308.055 528.551 290.461 522.541C230.007 501.891 151.742 494.796 90.801 524.063M2654.07 36.8098C2578.42 130.986 2476.81 213.833 2358.88 263.877C2303.7 287.294 2247.41 295.812 2191.08 314.137C2126.59 335.107 2059.71 344.693 1992 349.248C1945.63 352.386 1898.82 353.067 1851.98 353.106C1759.64 353.183 1666.96 351.097 1578.69 345.927C1527.09 342.905 1477.08 339.308 1428.9 335.295C1394.13 332.401 1359.22 329.412 1324.26 325.687C1274.37 320.374 1224.03 312.941 1170.27 309.499C1151.39 308.292 1132.22 307.65 1112.91 307.158C1031 304.767 944.549 291.805 867.707 295.164C847.672 296.039 828.29 297.965 809.577 301.33C736.012 314.557 664.549 344.261 599.772 386.512C588.659 393.735 577.656 401.373 566.703 409.293C527.623 437.558 489.103 469.432 448.496 499.047C424.321 516.697 399.719 535.664 372.035 545.167C354.839 551.083 337.051 552.755 318.106 549.617C299.516 546.534 282.702 540.628 264.675 535C202.782 515.679 123.942 508.301 61.7611 537.114M2649.01 39.262C2575.97 134.49 2475.69 218.328 2358.37 267.94C2302.34 291.899 2245.1 299.841 2187.98 318.947C2122.79 340.753 2055.1 351.28 1986.5 356.499C1939.53 360.091 1892.09 361.098 1844.61 361.225C1751.01 361.463 1657.08 358.558 1567.63 351.612C1515.33 347.549 1464.65 342.596 1415.8 337.006C1380.49 332.96 1345.1 328.704 1309.73 323.69C1259.19 316.528 1208.29 307.191 1153.75 302.592C1134.62 300.981 1115.19 300.029 1095.61 299.332C1012.44 296.072 924.681 285.103 846.704 290.919C826.414 292.436 806.777 295.021 787.821 299.028C713.481 314.746 641.78 347.04 577.092 391.605C566.001 399.22 555.015 407.251 544.078 415.553C505.065 445.174 466.572 478.254 425.655 508.545C401.286 526.604 376.347 545.66 348.259 555.439C330.803 561.527 312.738 563.437 293.583 560.747C274.638 558.085 257.348 552.644 238.879 547.436C175.58 529.316 96.1369 521.789 32.7051 550.137M2643.94 41.7142C2573.51 137.999 2474.47 222.59 2357.86 272.008C2300.94 296.394 2242.8 303.876 2184.89 323.768C2119 346.404 2050.48 357.872 1981.01 363.766C1933.43 367.817 1885.35 369.151 1837.23 369.356C1742.39 369.754 1647.21 366.035 1556.56 357.313C1503.57 352.215 1452.21 345.9 1402.71 338.733C1366.85 333.542 1331 328.007 1295.2 321.703C1244.01 312.687 1192.54 301.452 1137.23 295.696C1117.86 293.682 1098.17 292.42 1078.32 291.518C993.884 287.389 904.816 278.401 825.716 286.68C805.166 288.833 785.286 292.077 766.075 296.731C690.954 314.934 619.021 349.824 554.422 396.708C543.347 404.722 532.388 413.14 521.469 421.818C482.522 452.795 444.062 487.082 402.829 518.054C378.267 536.523 352.996 555.661 324.493 565.723C306.771 571.988 288.435 574.135 269.07 571.894C249.77 569.658 231.993 564.71 213.093 559.884C148.355 543.092 68.3358 535.288 3.65866 563.177M2638.88 44.1723C2571.07 141.509 2473.26 226.852 2357.36 276.077C2299.54 300.894 2240.49 307.906 2181.81 328.583C2115.21 352.05 2045.87 364.464 1975.53 371.023C1927.34 375.528 1878.63 377.194 1829.87 377.481C1733.78 378.04 1637.35 373.502 1545.52 363.008C1491.82 356.871 1439.81 349.194 1389.63 340.455C1353.23 334.112 1316.91 327.31 1280.7 319.711C1228.85 308.836 1176.82 295.714 1120.73 288.801C1101.12 286.382 1081.16 284.81 1061.04 283.703C975.338 278.706 884.964 271.699 804.734 282.442C783.93 285.225 763.795 289.133 744.335 294.435C668.434 315.112 596.269 352.609 531.763 401.806C520.705 410.213 509.769 419.024 498.871 428.084C459.991 460.417 421.558 495.916 380.021 527.557C355.265 546.436 329.657 565.663 300.744 576.001C282.757 582.444 264.155 584.835 244.568 583.036C224.915 581.232 206.651 576.776 187.318 572.332C121.136 556.863 40.5523 548.782 -25.3701 576.217M2633.82 46.6227C2568.62 145.011 2472.04 231.107 2356.84 280.138C2298.12 305.381 2238.17 311.928 2178.71 333.397C2111.41 357.694 2041.24 371.054 1970.02 378.277C1921.23 383.242 1871.88 385.234 1822.49 385.599C1725.15 386.319 1627.46 380.967 1534.44 368.691C1480.06 361.518 1427.36 352.475 1376.52 342.164C1339.59 334.67 1302.79 326.595 1266.16 317.712C1213.66 304.982 1161.06 289.967 1104.2 281.892C1084.35 279.07 1064.13 277.188 1043.74 275.876C956.775 270.01 865.089 264.984 783.73 278.195C762.666 281.616 742.287 286.182 722.573 292.131C645.886 315.282 573.488 355.386 509.077 406.902C498.041 415.707 487.121 424.911 476.245 434.348C437.431 468.042 399.027 504.742 357.18 537.064C332.23 556.352 306.289 575.668 276.962 586.289C258.709 592.908 239.836 595.542 220.039 594.186C200.026 592.814 181.28 588.846 161.516 584.789C93.8944 570.648 12.7353 562.291 -54.4324 589.261M2628.76 49.0741C2566.16 148.519 2470.83 235.368 2356.34 284.2C2296.72 309.875 2235.87 315.952 2175.63 338.206C2107.62 363.333 2036.63 377.64 1964.54 385.527C1915.14 390.945 1865.16 393.27 1815.13 393.718C1716.54 394.598 1617.6 388.427 1523.39 374.38C1468.31 366.167 1414.95 355.762 1363.44 343.879C1325.96 335.234 1288.71 325.886 1251.65 315.714C1198.5 301.125 1145.33 284.222 1087.7 274.985C1067.59 271.764 1047.12 269.566 1026.45 268.05C938.223 261.314 845.225 258.265 762.743 273.944C741.424 277.995 720.791 283.226 700.833 289.828C623.355 315.454 550.735 358.164 486.412 411.993C475.393 421.192 464.501 430.789 453.637 440.607C414.884 475.658 376.518 513.564 334.355 546.567C309.217 566.264 282.934 585.663 253.196 596.566C234.678 603.363 215.534 606.246 195.526 605.322C175.159 604.386 155.926 600.905 135.73 597.225C66.6643 584.412 -15.0593 575.778 -83.4723 602.289M2623.7 51.5322C2563.71 152.029 2469.61 239.631 2355.82 288.274C2295.31 314.375 2233.56 319.982 2172.53 343.033C2103.82 368.985 2032.01 384.244 1959.04 392.8C1909.04 398.678 1858.42 401.329 1807.75 401.855C1707.92 402.895 1607.72 395.905 1512.33 380.087C1456.55 370.839 1402.52 359.061 1350.34 345.612C1312.32 335.816 1274.59 325.195 1237.11 313.733C1183.33 297.284 1129.58 278.494 1071.17 268.095C1050.82 264.47 1030.09 261.963 1009.15 260.241C919.66 252.637 825.345 251.558 741.74 269.711C720.161 274.399 699.273 280.288 679.072 287.538C600.802 315.626 527.961 360.954 463.727 417.102C452.724 426.699 441.854 436.684 431.012 446.884C392.325 483.29 353.987 522.403 311.515 556.081C286.183 576.188 259.567 595.676 229.415 606.856C210.636 613.824 191.22 616.962 170.992 616.475C150.276 615.976 130.55 612.977 109.929 609.684C39.4179 598.199 -42.8758 589.289 -112.534 615.335M2618.63 53.9835C2561.26 155.532 2468.39 243.892 2355.31 292.336C2293.91 318.869 2231.25 324.005 2169.45 347.842C2100.03 374.619 2027.4 390.829 1953.55 400.05C1902.94 406.381 1851.69 409.359 1800.38 409.973C1699.29 411.174 1597.85 403.371 1501.27 385.771C1444.8 375.482 1390.11 362.337 1337.25 347.322C1298.7 336.369 1260.49 324.481 1222.59 311.735C1168.16 293.426 1113.84 272.755 1054.67 261.187C1034.07 257.164 1013.07 254.347 991.864 252.42C901.103 243.947 805.476 244.833 720.753 265.465C698.913 270.784 677.777 277.332 657.326 285.235C578.259 315.786 505.203 363.732 441.063 422.199C430.082 432.189 419.229 442.567 408.409 453.149C369.788 490.911 331.478 531.231 288.696 565.589C263.17 586.106 236.217 605.682 205.655 617.138C186.61 624.283 166.929 627.676 146.484 627.621C125.414 627.566 105.202 625.047 84.1484 622.131C12.1989 611.975 -70.6704 602.782 -141.568 628.374M2613.57 56.4366C2558.82 159.042 2467.18 248.149 2354.81 296.399C2292.51 323.358 2228.89 327.902 2166.36 352.653C2096.18 380.121 2022.79 397.411 1948.06 407.301C1896.84 414.092 1844.96 417.396 1793.01 418.088C1690.68 419.45 1587.98 410.827 1490.21 391.456C1433.05 380.132 1377.69 365.615 1324.16 349.033C1285.07 336.924 1246.39 323.768 1208.07 309.732C1153 289.564 1098.07 267.127 1038.16 254.276C1017.3 249.887 996.054 246.721 974.58 244.59C882.556 235.248 785.607 238.104 699.766 261.216C677.666 267.166 656.281 274.377 635.581 282.928C555.717 315.942 482.439 366.506 418.393 427.287C407.429 437.67 396.604 448.445 385.794 459.404C347.241 498.522 308.963 540.054 265.866 575.088C240.146 596.014 212.861 615.673 181.884 627.412C162.574 634.734 142.627 638.381 121.966 638.758C100.542 639.145 79.8427 637.108 58.3575 634.573C-15.0366 625.746 -98.4704 616.276 -170.619 641.409M2608.51 58.8938C2556.36 162.551 2465.96 252.41 2354.3 300.467C2291.1 327.858 2226.59 331.942 2163.27 357.473C2092.39 385.777 2018.17 404.008 1942.57 414.563C1890.74 421.807 1838.23 425.444 1785.64 426.219C1682.06 427.741 1578.11 418.304 1479.15 397.156C1421.29 384.792 1365.28 368.908 1311.07 350.76C1271.44 337.494 1232.33 322.999 1193.55 307.745C1137.87 285.618 1082.33 261.382 1021.65 247.38C1000.55 242.587 979.035 239.111 957.29 236.775C863.999 226.564 765.732 231.385 678.773 256.977C656.413 263.557 634.773 271.427 613.836 280.637C533.169 316.108 459.681 369.295 395.723 432.395C384.776 443.176 373.972 454.34 363.185 465.68C324.698 506.154 286.449 548.893 243.041 584.602C217.128 605.938 189.51 625.685 158.118 637.701C138.542 645.2 118.33 649.102 97.4481 649.904C75.675 650.74 54.4831 649.174 32.5661 647.026C-42.267 639.527 -126.276 629.775 -199.67 654.448M2603.45 61.3443C2553.91 166.053 2464.75 256.671 2353.79 304.534C2289.7 332.351 2224.28 335.976 2160.19 362.287C2088.6 391.432 2013.56 410.599 1937.09 421.823C1884.65 429.527 1831.5 433.49 1778.27 434.342C1673.44 436.024 1568.24 425.769 1468.09 402.85C1409.54 389.451 1352.86 372.189 1297.98 352.48C1257.82 338.057 1218.22 322.3 1179.02 305.757C1122.7 281.776 1066.58 255.641 1005.12 240.482C983.778 235.285 962.005 231.499 939.994 228.959C845.441 217.879 745.846 224.659 657.775 252.736C635.155 259.947 613.26 268.476 592.079 278.339C510.604 316.267 436.911 372.078 373.042 437.491C362.117 448.665 351.33 460.222 340.565 471.944C302.144 513.774 263.923 557.719 220.21 594.109C194.104 615.854 166.149 635.69 134.347 647.982C114.505 655.659 94.0275 659.821 72.9296 661.049C50.8079 662.339 29.1234 661.243 6.77475 659.472C-69.5029 653.301 -154.077 643.272 -228.716 667.486M2598.39 63.7966C2551.46 169.562 2463.53 260.927 2353.28 308.597C2288.29 336.845 2221.97 340.005 2157.09 367.103C2084.81 397.084 2008.94 417.191 1931.59 429.079C1878.55 437.242 1824.76 441.532 1770.9 442.467C1664.83 444.31 1558.37 433.235 1457.03 408.54C1397.79 394.1 1340.45 375.471 1284.89 354.196C1244.19 338.616 1204.13 321.603 1164.5 303.759C1107.54 277.93 1050.84 249.891 988.621 233.581C967.031 227.98 944.992 223.884 922.71 221.139C826.889 209.19 725.972 217.935 636.793 248.491C613.908 256.334 591.764 265.521 570.339 276.037C488.057 316.417 414.159 374.857 350.379 442.589C339.47 454.162 328.711 466.105 317.962 478.209C279.608 521.401 241.419 566.547 197.392 603.618C171.091 625.772 142.804 645.691 110.587 658.266C90.4856 666.114 69.742 670.547 48.4228 672.197C25.9524 673.935 3.77531 673.309 -19.005 671.925C-96.7272 667.083 -181.871 656.777 -257.756 680.526M2593.32 66.2546C2549.01 173.072 2462.31 265.195 2352.77 312.665C2286.88 341.34 2219.66 344.041 2154 371.918C2081.01 402.735 2004.32 423.783 1926.1 436.335C1872.44 444.953 1818.03 449.574 1763.52 450.593C1656.2 452.591 1548.49 440.708 1445.97 414.236C1386.03 398.761 1328.06 378.665 1271.79 355.924C1230.59 339.121 1190.02 320.912 1149.97 301.773C1092.36 274.095 1035.09 244.147 972.094 226.686C950.255 220.68 927.962 216.275 905.408 213.325C808.326 200.507 706.019 211.05 615.789 244.258C592.627 252.687 570.245 262.577 548.577 273.746C465.481 316.584 391.378 377.647 327.698 447.692C316.805 459.658 306.068 472 295.337 484.481C257.049 529.029 218.888 575.381 174.55 613.127C148.056 635.685 119.431 655.699 86.8048 668.55C66.4376 676.575 45.4339 681.268 23.8877 683.344C1.07417 685.541 -21.601 685.381 -44.8131 684.379C-123.974 680.864 -209.688 670.277 -286.818 693.572M2588.27 68.7068C2546.56 176.576 2461.1 269.452 2352.26 316.728C2285.48 345.834 2217.35 348.076 2150.92 376.734C2077.22 408.386 1999.71 430.37 1920.61 443.592C1866.35 452.668 1811.3 457.616 1756.15 458.712C1647.58 460.871 1538.61 448.169 1434.9 419.926C1374.27 403.411 1315.64 381.964 1258.69 357.64C1216.96 339.691 1175.92 320.209 1135.45 299.781C1077.19 270.254 1019.34 238.403 955.58 219.784C933.497 213.37 910.938 208.66 888.119 205.505C789.769 191.818 686.145 204.354 594.797 240.013C571.375 249.084 548.716 259.583 526.832 271.444C442.828 316.568 368.621 380.426 305.028 452.79C294.159 465.154 283.438 477.884 272.729 490.741C234.507 536.645 196.379 584.209 151.726 622.63C125.038 645.598 96.0813 665.7 63.0398 678.828C42.4069 687.03 21.1431 691.989 -0.624451 694.48C-23.7811 697.131 -46.9545 697.435 -70.5927 696.815C-151.198 694.629 -237.482 683.765 -315.858 706.601M2583.2 71.1581C2544.1 180.084 2459.88 273.707 2351.75 320.79C2284.08 350.322 2215.05 352.105 2147.82 381.543C2073.43 414.037 1995.09 436.955 1915.11 450.842C1860.25 460.372 1804.56 465.647 1748.78 466.831C1638.96 469.15 1528.74 455.629 1423.84 425.609C1362.51 408.059 1303.22 385.257 1245.6 359.349C1203.33 340.261 1161.81 319.506 1120.92 297.777C1062.02 266.402 1003.6 232.646 939.069 212.871C916.737 206.052 893.918 201.033 870.828 197.673C771.216 183.117 666.27 197.651 573.804 235.757C550.121 245.464 527.208 256.627 505.081 269.136C420.285 316.766 345.856 383.192 282.352 457.876C271.499 470.633 260.806 483.756 250.114 496.994C211.958 544.254 173.858 593.025 128.895 632.127C102.014 655.505 72.7191 675.689 39.2681 689.1C18.3695 697.479 -3.14894 702.704 -25.1434 705.615C-48.6432 708.725 -72.3146 709.495 -96.3845 709.257C-178.429 708.393 -265.283 697.258 -344.904 719.629M2578.14 73.6153C2541.66 183.593 2458.67 277.974 2351.24 324.863C2282.67 354.828 2212.74 356.145 2144.73 386.364C2069.64 419.693 1990.47 443.552 1909.62 458.108C1854.15 468.098 1797.83 473.699 1741.41 474.961C1630.34 477.441 1518.87 463.106 1412.78 431.31C1350.76 412.719 1290.8 388.566 1232.5 361.076C1189.69 340.842 1147.71 318.814 1106.39 295.79C1046.84 262.566 987.846 226.901 922.544 205.975C899.968 198.752 876.889 193.428 853.527 189.858C752.648 174.433 646.385 190.965 552.8 231.523C528.858 241.872 505.696 253.7 483.319 266.844C397.727 316.982 323.082 385.982 259.667 462.984C248.83 476.134 238.159 489.65 227.489 503.27C189.4 551.886 151.327 601.864 106.054 641.641C78.9792 665.428 49.3526 685.701 15.4865 699.388C-5.67776 707.945 -27.4453 713.479 -49.6777 716.767C-73.5152 720.381 -97.6902 721.566 -122.192 721.715C-205.681 722.18 -293.105 710.767 -373.971 732.679M2573.08 76.0675C2539.21 187.097 2457.45 282.231 2350.73 328.926C2281.27 359.316 2210.44 360.174 2141.65 391.179C2065.84 425.344 1985.86 450.144 1904.13 465.365C1737.65 496.369 1563.5 487.625 1401.72 437C1292.9 402.946 1190.4 351.197 1091.87 293.792C1031.68 258.72 972.111 221.151 906.039 199.068C784.572 158.472 648.432 174.323 531.819 227.272C415.205 280.222 316.911 367.984 237.008 468.076C164.494 558.905 99.363 665.81 -8.26807 709.667C-131.363 759.821 -274.398 712.107 -403 745.708M2320.31 873.267C2321.66 732.937 2272.05 592.658 2182.76 484.396C2157.35 453.596 2127.56 424.473 2089.99 410.963C1981.44 371.933 1865.52 457.254 1774.25 505.698C1664.1 564.155 1555.21 625.417 1440.52 674.747C1376.14 702.442 1300.52 725.947 1238.24 693.802C1175.17 661.248 1151.18 585.446 1125.1 519.435C1094.72 442.516 1052.89 368.419 991.476 313.028C930.064 257.638 847.046 222.671 764.835 231.687C700.457 238.749 641.795 271.414 588.226 307.815C447.476 403.464 327.902 530.089 240.461 676.086M2323.83 867.199C2325.03 743.175 2281.4 621.791 2204.04 517.685C2196.86 508.016 2189.46 498.508 2181.75 489.259C2156.38 458.88 2126.85 430.128 2089.81 416.513C1982.69 377.09 1868.55 457.95 1777.4 504.657C1696.6 546.066 1616.36 589.79 1533.28 629.367C1504.45 643.154 1475.38 656.432 1445.94 668.956C1382.07 696.12 1307.35 719.31 1245.53 688.665C1182.94 657.633 1158.16 584.764 1131.37 521.338C1100.14 447.435 1057.82 376.216 996.529 322.962C975.187 304.421 951.306 288.26 925.797 275.436C878.067 251.427 824.636 239.085 771.542 244.697C707.767 251.438 649.533 282.781 596.306 317.521C488.548 387.805 393.326 475.047 314.823 575.544C291.395 605.53 269.462 636.69 249.144 668.94M2327.34 861.14C2328.5 741.25 2282.55 626.59 2203 522.114C2195.77 512.633 2188.42 503.246 2180.74 494.136C2155.4 464.183 2126.13 435.796 2089.61 422.071C1983.93 382.249 1871.57 458.654 1780.55 503.628C1700.59 543.134 1621.06 585.701 1538.02 624.443C1509.41 637.903 1480.55 650.898 1451.34 663.179C1387.99 689.817 1314.16 712.686 1252.81 683.541C1190.7 654.025 1165.14 584.09 1137.63 523.254C1105.57 452.367 1062.76 384.026 1001.58 332.914C980.279 315.12 956.514 299.607 931.176 287.304C883.784 264.258 830.846 252.38 778.256 257.727C715.084 264.152 657.281 294.167 604.393 327.241C497.276 394.138 402.679 476.586 323.95 572.462C300.455 601.07 278.378 630.863 257.834 661.807M2330.86 855.074C2331.98 739.318 2283.73 631.383 2201.96 526.536C2194.7 517.232 2187.39 507.973 2179.73 499.007C2154.44 469.474 2125.41 441.464 2089.44 427.627C1985.19 387.413 1874.63 459.363 1783.71 502.593C1704.62 540.201 1625.69 581.411 1542.78 619.517C1514.34 632.589 1485.74 645.363 1456.76 657.401C1393.92 683.508 1320.98 706.061 1260.11 678.416C1198.47 650.416 1172.14 583.42 1143.91 525.169C1110.99 457.298 1067.7 391.835 1006.65 342.86C985.382 325.813 961.738 310.947 936.573 299.159C889.512 277.076 837.077 265.663 784.98 270.749C722.412 276.86 665.04 305.545 612.49 336.954C506.01 400.469 412.044 478.119 333.087 569.379C309.527 596.609 287.311 625.035 266.539 654.678M2334.38 849.014C2335.46 737.392 2284.94 636.17 2200.9 530.964C2193.62 521.843 2186.35 512.705 2178.72 503.883C2153.46 474.776 2124.69 447.131 2089.24 433.184C1986.44 392.577 1877.69 460.082 1786.86 501.564C1708.64 537.284 1630.36 577.26 1547.52 614.591C1519.28 627.321 1490.91 639.829 1462.16 651.623C1399.84 677.204 1327.8 699.442 1267.39 673.291C1206.23 646.813 1179.11 582.751 1150.16 527.084C1116.4 462.23 1072.63 399.639 1011.69 352.805C990.463 336.5 966.941 322.288 941.942 311.014C895.219 289.899 843.282 278.952 791.678 283.767C729.707 289.556 672.767 316.919 620.559 346.662C514.722 406.79 421.381 479.647 342.192 566.285C318.559 592.137 296.205 619.196 275.207 647.533M2337.89 842.948C2338.93 735.461 2286.17 640.947 2199.86 535.386C2192.54 526.442 2185.31 517.437 2177.71 508.753C2152.49 480.067 2123.97 452.793 2089.06 438.741C1987.69 397.74 1880.77 460.807 1790.01 500.534C1712.67 534.384 1635.04 573.115 1552.27 609.671C1524.23 622.057 1496.08 634.3 1467.58 645.85C1405.77 670.9 1334.61 692.822 1274.68 668.171C1213.99 643.21 1186.1 582.086 1156.43 529.004C1121.83 467.161 1077.57 407.454 1016.75 362.762C995.555 347.204 972.149 333.639 947.321 322.88C900.935 302.728 849.491 292.246 798.391 296.801C737.023 302.274 680.515 328.315 628.645 356.392C523.449 413.138 430.734 481.196 351.318 563.219C327.619 587.693 305.121 613.384 283.896 640.415M2341.41 836.883C2342.41 733.53 2287.44 645.707 2198.82 539.803C2191.48 531.036 2184.28 522.159 2176.7 513.619C2151.52 485.359 2123.25 458.45 2088.87 444.287C1988.94 402.894 1883.87 461.527 1793.16 499.489C1716.73 531.479 1639.72 568.954 1557.02 604.729C1529.18 616.772 1501.26 628.749 1472.99 640.051C1411.69 664.575 1341.44 686.176 1281.97 663.025C1221.76 639.58 1193.08 581.395 1162.69 530.898C1127.24 472.071 1082.5 415.242 1021.8 372.686C1000.65 357.876 977.363 344.958 952.701 334.719C906.648 315.531 855.707 305.513 805.099 309.802C744.335 314.961 688.253 339.672 636.726 366.083C532.172 419.442 440.082 482.708 360.44 560.109C336.669 583.205 314.032 607.53 292.586 633.254M2344.93 830.822C2345.88 731.604 2288.72 650.467 2197.77 544.23C2190.4 535.635 2183.23 526.89 2175.69 518.495C2150.54 490.656 2122.53 464.117 2088.68 449.849C1990.19 408.058 1886.97 462.28 1796.31 498.465C1720.79 528.606 1644.41 564.819 1561.76 599.814C1534.12 611.52 1506.42 623.22 1478.4 634.284C1417.62 658.276 1348.25 679.562 1289.25 657.911C1229.52 635.988 1200.06 580.731 1168.96 532.824C1132.67 477.013 1087.44 423.062 1026.86 382.648C1005.74 368.579 982.576 356.315 958.086 346.59C912.37 328.365 861.928 318.818 811.812 322.841C751.651 327.679 696.001 351.068 644.806 375.813C540.894 425.79 449.43 484.258 369.555 557.043C345.717 578.761 322.937 601.718 301.264 626.137M2348.44 824.756C2349.36 729.672 2290.04 655.204 2196.73 548.652C2189.35 540.228 2182.2 531.622 2174.68 523.365C2149.57 495.952 2121.81 469.784 2088.5 455.405C1991.44 413.221 1890.1 463.032 1799.46 497.429C1724.87 525.739 1649.09 560.673 1566.51 594.882C1539.08 606.245 1511.6 617.679 1483.81 628.499C1423.54 651.966 1355.08 672.931 1296.54 652.785C1237.28 632.379 1207.05 580.061 1175.22 534.738C1138.09 481.944 1092.37 430.871 1031.91 392.593C1010.84 379.272 987.79 367.655 963.465 358.445C918.087 341.188 868.143 332.1 818.52 335.864C758.962 340.386 703.744 362.446 652.886 385.531C549.617 432.121 458.778 485.796 378.676 553.96C354.766 574.299 331.847 595.884 309.947 619.008M2351.96 818.689C2352.84 727.74 2291.38 659.924 2195.68 553.074C2188.29 544.822 2181.16 536.348 2173.67 528.234C2148.6 501.242 2121.1 475.446 2088.31 460.956C1992.69 418.379 1893.24 463.795 1802.62 496.394C1728.97 522.888 1653.79 556.538 1571.26 589.956C1544.03 600.987 1516.78 612.144 1489.22 622.721C1429.47 645.656 1361.89 666.306 1303.83 647.66C1245.05 628.77 1214.03 579.391 1181.49 536.653C1143.51 486.875 1097.31 438.679 1036.96 402.544C1015.93 389.969 992.998 379 968.845 370.305C923.799 354.011 874.353 345.394 825.234 348.886C766.279 353.087 711.487 373.825 660.973 395.244C558.345 438.452 468.131 487.328 387.802 550.876C363.827 569.838 340.764 590.056 318.642 611.873M2355.48 812.63C2356.32 725.815 2292.76 664.641 2194.63 557.497C2187.23 549.411 2180.13 541.076 2172.66 533.101C2147.62 506.535 2120.38 481.103 2088.12 466.509C1993.94 423.538 1896.39 464.572 1805.76 495.355C1733.07 520.05 1658.48 552.4 1576 585.021C1548.97 595.714 1521.94 606.6 1494.62 616.933C1435.39 639.343 1368.71 659.671 1311.11 642.525C1252.8 625.152 1221.01 578.711 1187.74 538.558C1148.92 491.796 1102.23 446.479 1042.01 412.48C1021.01 400.647 998.195 390.325 974.214 382.151C929.505 366.82 880.558 358.667 831.931 361.9C773.574 365.785 719.219 385.195 669.042 404.948C567.057 444.769 477.468 488.846 396.907 547.779C372.865 565.362 349.658 584.213 327.31 604.724M2358.99 806.563C2359.8 723.882 2294.15 669.327 2193.59 561.918C2186.17 553.998 2179.09 545.807 2171.65 537.97C2146.65 511.824 2119.66 486.764 2087.94 472.058C1995.19 428.695 1899.56 465.367 1808.92 494.318C1737.19 517.232 1663.18 548.264 1580.75 580.093C1553.93 590.454 1527.12 601.064 1500.04 611.153C1441.32 633.032 1375.53 653.05 1318.41 637.398C1260.58 621.547 1228.01 578.034 1194.02 540.477C1154.35 496.726 1107.18 454.292 1047.08 422.43C1026.12 411.344 1003.43 401.669 979.61 394.015C935.239 379.647 886.789 371.96 838.655 374.926C780.902 378.496 726.973 396.578 677.139 414.67C575.796 451.11 486.833 490.389 406.044 544.7C381.93 560.905 358.585 578.389 336.015 597.594M2362.51 800.504C2363.27 721.957 2295.57 674 2192.54 566.347C2185.12 558.593 2178.06 550.523 2170.64 542.847C2145.72 517.078 2118.94 492.438 2087.75 477.622C1996.45 433.86 1902.73 466.188 1812.07 493.296C1741.32 514.449 1667.87 544.153 1585.5 575.174C1558.88 585.203 1532.3 595.531 1505.45 605.377C1447.24 626.729 1382.35 646.427 1325.69 632.275C1268.34 617.94 1234.99 577.366 1200.28 542.393C1159.77 501.659 1112.12 462.103 1052.13 432.382C1031.21 422.044 1008.63 413.017 984.989 405.877C940.95 392.478 892.999 385.255 845.368 387.956C788.218 391.205 734.721 407.964 685.225 424.39C584.523 457.443 496.186 491.929 415.17 541.624C390.99 556.451 367.501 572.568 344.704 590.472M2366.03 794.437C2366.75 720.025 2297.03 678.643 2191.5 570.768C2184.07 563.175 2177.03 555.255 2169.63 547.717C2144.76 522.368 2118.22 498.099 2087.56 483.173C1997.69 439.018 1905.93 467.023 1815.22 492.255C1745.46 511.665 1672.57 540.024 1590.25 570.243C1563.84 579.939 1537.48 589.99 1510.86 599.593C1453.17 620.414 1389.17 639.796 1332.98 627.144C1276.1 614.325 1241.97 576.69 1206.55 544.302C1165.19 506.584 1117.06 469.906 1057.18 442.322C1036.3 432.725 1013.85 424.351 990.364 417.726C946.663 405.29 899.209 398.532 852.071 400.967C795.524 403.901 742.459 419.331 693.301 434.092C593.241 463.763 505.529 493.45 424.281 538.524C400.029 551.973 376.401 566.723 353.378 583.321M2369.54 788.371C2370.22 718.092 2298.51 683.263 2190.45 575.19C2183.02 567.757 2175.99 559.98 2168.62 552.586C2143.78 527.658 2117.5 503.76 2087.37 488.728C1998.94 444.18 1909.13 467.879 1818.37 491.224C1749.6 508.913 1677.27 535.911 1594.99 565.316C1568.79 574.68 1542.65 584.454 1516.27 593.813C1459.09 614.109 1395.99 633.17 1340.27 622.018C1283.86 610.721 1248.95 576.02 1212.81 546.216C1170.6 511.514 1121.98 477.714 1062.23 452.272C1041.38 443.422 1019.05 435.696 995.738 429.586C952.374 418.113 905.419 411.82 858.773 413.995C802.83 416.613 750.19 430.715 701.37 443.815C601.952 470.099 514.865 494.993 433.391 535.451C409.072 547.522 385.301 560.905 362.056 576.197M2373.06 782.311C2373.7 716.167 2300.02 687.863 2189.41 579.612C2181.98 572.34 2174.96 564.708 2167.62 557.457C2142.82 532.95 2116.78 509.423 2087.19 494.28C2000.2 449.339 1912.36 468.76 1821.52 490.184C1753.77 506.168 1681.98 531.793 1599.74 560.385C1573.74 569.423 1547.82 578.915 1521.68 588.03C1465.02 607.794 1402.81 626.54 1347.55 616.888C1291.63 607.108 1255.94 575.34 1219.07 548.126C1176.03 516.44 1126.92 485.519 1067.29 462.213C1046.48 454.11 1024.27 447.031 1001.12 441.441C958.091 430.931 911.634 425.109 865.492 427.018C810.152 429.315 757.944 442.094 709.461 453.529C610.686 476.431 524.224 496.527 442.523 532.364C418.132 543.051 394.223 555.066 370.75 569.058M2376.58 776.245C2377.17 714.235 2301.55 692.429 2188.36 584.034C2180.92 576.917 2173.91 569.434 2166.6 562.328C2141.83 538.247 2116.03 515.145 2087 499.837C2001.35 454.675 1915.58 469.673 1824.67 489.155C1757.92 503.462 1686.67 527.692 1604.49 555.459C1578.69 564.171 1552.99 573.38 1527.09 582.252C1470.94 601.49 1409.62 619.915 1354.84 611.763C1299.38 603.5 1262.91 574.67 1225.34 550.041C1181.44 521.372 1131.85 493.328 1072.34 472.164C1051.57 464.803 1029.48 458.377 1006.5 453.302C963.808 443.76 917.849 438.397 872.2 440.041C817.458 442.022 765.681 453.474 717.542 463.242C619.408 482.757 533.572 498.06 451.638 529.281C427.181 538.59 403.128 549.238 379.428 561.929M2380.1 770.185C2380.66 712.309 2303.11 696.973 2187.32 588.462C2179.88 581.499 2172.88 574.172 2165.6 567.204C2140.87 543.543 2115.32 520.813 2086.82 505.399C2002.61 459.838 1918.82 470.614 1827.83 488.131C1762.11 500.783 1691.4 523.602 1609.25 550.545C1583.67 558.935 1558.18 567.857 1532.51 576.485C1476.88 595.192 1416.45 613.301 1362.13 606.654C1307.15 599.913 1269.91 574.017 1231.61 551.972C1186.87 526.32 1136.8 501.154 1077.4 482.126C1056.67 475.512 1034.69 469.734 1011.89 465.174C969.531 456.595 924.07 451.702 878.913 453.081C824.774 454.741 773.43 464.875 725.628 472.977C628.136 489.111 542.92 499.615 460.765 526.215C436.235 534.146 412.049 543.427 388.123 554.812M2383.61 764.119C2384.13 710.373 2304.7 701.484 2186.26 592.885C2178.84 586.077 2171.84 578.899 2164.58 572.075C2139.88 548.84 2114.59 526.475 2086.62 510.951C2003.84 464.997 1922.05 471.583 1830.97 487.091C1766.28 498.11 1696.09 519.501 1613.98 545.608C1588.61 553.678 1563.34 562.306 1537.91 570.696C1482.79 588.878 1423.26 606.671 1369.41 601.519C1314.91 596.294 1276.88 573.336 1237.86 553.877C1192.28 531.235 1141.72 508.947 1082.44 492.061C1061.75 486.194 1039.89 481.064 1017.26 477.018C975.232 469.402 930.269 464.975 885.61 466.087C832.074 467.432 781.161 476.238 733.697 482.674C636.847 495.421 552.257 501.127 469.875 523.116C445.279 529.668 420.949 537.583 396.796 547.661M2387.13 758.053C2387.61 708.441 2306.32 705.956 2185.22 597.301C2177.8 590.643 2170.8 583.625 2163.58 576.939C2138.92 554.126 2113.88 532.132 2086.44 516.502C2005.11 470.15 1925.31 472.579 1834.13 486.056C1770.47 495.465 1700.81 515.417 1618.74 540.682C1593.58 548.431 1568.52 556.771 1543.33 564.913C1488.73 582.563 1430.09 600.041 1376.71 596.388C1322.68 592.68 1283.87 572.656 1244.14 555.786C1197.71 536.161 1146.67 516.751 1087.51 502.007C1066.85 496.882 1045.11 492.404 1022.65 488.879C980.96 482.226 936.496 478.263 892.335 479.116C839.402 480.145 788.916 487.622 741.794 492.393C645.587 501.758 561.622 502.665 479.007 520.033C454.345 525.208 429.871 531.755 405.491 540.528M2390.65 751.993C2391.08 706.515 2307.96 710.4 2184.18 601.729C2176.76 595.22 2169.76 588.357 2162.57 581.815C2137.94 559.428 2113.15 537.799 2086.25 522.059C2006.35 475.308 1928.57 473.62 1837.28 485.021C1774.65 492.841 1705.52 511.333 1623.48 535.751C1598.53 543.179 1573.7 551.231 1548.74 559.129C1494.65 576.253 1436.9 593.41 1383.99 591.257C1330.44 589.071 1290.86 571.98 1250.4 557.696C1203.12 541.086 1151.6 524.555 1092.56 511.947C1071.94 507.569 1050.32 503.739 1028.03 500.728C986.677 495.044 942.711 491.546 899.043 492.128C846.713 492.836 796.658 498.99 749.875 502.101C654.309 508.078 570.969 504.193 488.128 516.939C463.394 520.736 438.781 525.916 414.18 533.382M2394.16 745.926C2394.56 704.583 2309.63 714.805 2183.13 606.15C2175.72 599.786 2168.72 593.083 2161.55 586.685C2136.96 564.724 2112.47 543.41 2086.06 527.615C2007.69 480.311 1931.82 474.699 1840.43 483.991C1778.83 490.251 1710.23 507.259 1628.22 530.83C1603.48 537.942 1578.87 545.702 1554.14 553.356C1500.57 569.949 1443.72 586.79 1391.28 586.137C1338.2 585.468 1297.84 571.316 1256.67 559.616C1208.55 546.023 1156.53 532.369 1097.61 521.903C1077.04 518.272 1055.53 515.09 1033.41 512.594C992.389 507.873 948.926 504.84 905.751 505.161C854.019 505.554 804.396 510.38 757.95 511.825C663.026 514.42 580.312 505.736 497.243 513.867C472.443 516.285 447.687 520.093 422.859 526.264M2397.68 739.866C2398.04 702.657 2311.32 719.178 2182.09 610.578C2174.69 604.363 2167.69 597.821 2160.55 591.561C2135.99 570.026 2111.75 549.078 2085.88 533.171C2008.95 485.469 1935.08 475.817 1843.59 482.962C1783.03 487.688 1714.96 503.196 1632.98 525.904C1608.45 532.701 1584.05 540.167 1559.56 547.578C1506.5 563.645 1450.54 580.166 1398.57 581.012C1345.97 581.859 1304.82 570.646 1262.93 561.531C1213.97 550.954 1161.47 540.178 1102.67 531.849C1082.12 528.96 1060.75 526.425 1038.79 524.449C998.106 520.691 955.136 518.123 912.464 518.184C861.336 518.261 812.144 521.759 766.036 521.538C671.754 520.746 589.665 507.27 506.364 510.779C481.492 511.819 456.597 514.26 431.548 519.125M2401.19 733.801C2401.52 700.727 2313.04 723.501 2181.04 614.996C2173.65 608.925 2166.64 602.543 2159.54 596.427C2135.01 575.319 2111.03 554.735 2085.69 538.724C2010.2 490.628 1938.33 476.975 1846.73 481.922C1787.2 485.138 1719.67 499.124 1637.72 520.974C1613.4 527.455 1589.22 534.623 1564.96 541.796C1512.42 557.331 1457.35 573.536 1405.85 575.883C1353.73 578.252 1311.81 569.967 1269.19 563.441C1219.38 555.881 1166.4 547.983 1107.72 541.796C1087.21 539.654 1065.95 537.766 1044.17 536.311C1003.82 533.516 961.351 531.418 919.172 531.208C868.647 530.964 819.887 533.14 774.116 531.252C680.476 527.079 599.013 508.804 515.485 507.697C490.546 507.359 465.508 508.433 440.231 511.992M2404.71 727.734C2405 698.794 2314.79 727.784 2179.99 619.417C2172.62 613.484 2165.59 607.285 2158.53 601.297C2134 580.658 2110.31 560.396 2085.5 544.28C2011.44 495.791 1941.58 478.18 1849.88 480.892C1791.38 482.619 1724.39 495.077 1642.47 516.048C1618.37 522.219 1594.39 529.087 1570.38 536.016C1518.35 551.026 1464.17 566.911 1413.14 570.757C1361.49 574.642 1318.79 569.296 1275.46 565.355C1224.8 560.806 1171.34 555.792 1112.77 551.74C1092.3 550.346 1071.16 549.106 1049.54 548.165C1009.54 546.338 967.566 544.7 925.88 544.23C875.958 543.671 827.625 544.518 782.197 540.97C689.199 533.41 608.361 510.342 524.606 504.613C499.595 502.898 474.419 502.604 448.915 504.857M2408.23 721.674C2408.47 696.868 2316.57 732.029 2178.95 623.844C2171.58 618.055 2164.56 612.022 2157.52 606.167C2133.03 585.955 2109.59 566.063 2085.32 549.83C2012.7 500.949 1944.81 479.43 1853.04 479.851C1795.56 480.117 1729.11 491.02 1647.22 511.116C1623.33 516.977 1599.57 523.547 1575.79 530.227C1524.27 544.705 1471 560.28 1420.43 565.62C1369.26 571.022 1325.78 568.615 1281.72 567.259C1230.22 565.726 1176.28 563.589 1117.82 561.674C1097.4 561.021 1076.38 560.435 1054.92 560.008C1015.25 559.145 973.776 557.977 932.588 557.236C883.269 556.361 835.367 555.88 790.277 550.666C697.921 539.724 617.709 511.858 533.721 501.513C508.644 498.42 483.323 496.759 457.599 497.711M2411.75 715.607C2411.95 694.935 2318.36 736.223 2177.91 628.266C2170.55 622.615 2163.52 616.748 2156.51 611.037C2132.05 591.245 2108.87 571.724 2085.13 555.386C2013.95 506.112 1948.03 480.73 1856.19 478.821C1799.71 477.648 1733.82 486.984 1651.97 506.189C1628.28 511.746 1604.74 518.011 1581.2 524.448C1530.2 538.401 1477.81 553.654 1427.71 560.5C1377.01 567.419 1332.75 567.95 1287.99 569.179C1235.64 570.662 1181.21 571.403 1122.88 571.63C1102.49 571.724 1081.58 571.785 1060.3 571.874C1020.96 571.974 979.992 571.271 939.301 570.269C890.586 569.073 843.11 567.269 798.363 560.39C706.649 546.061 627.062 513.395 542.848 498.436C517.704 493.964 492.24 490.936 466.288 490.582M2415.26 709.548C2415.42 693.011 2320.19 740.376 2176.86 632.695C2169.52 627.183 2162.48 621.482 2155.5 615.914C2131.08 596.549 2108.16 577.393 2084.94 560.945C2015.2 511.272 1951.24 482.082 1859.34 477.793C1803.86 475.203 1738.55 482.957 1656.72 501.271C1633.25 506.523 1609.92 512.484 1586.61 518.677C1536.12 532.098 1484.63 547.036 1435 555.382C1384.78 563.823 1339.74 567.282 1294.25 571.101C1241.06 575.6 1186.14 579.22 1127.93 581.583C1107.58 582.424 1086.8 583.133 1065.68 583.736C1026.68 584.799 986.201 584.561 946.004 583.293C897.886 581.782 850.848 578.65 806.438 570.11C715.367 552.399 636.405 514.936 551.964 495.354C526.748 489.504 501.145 485.11 474.967 483.449M2418.78 703.482C2418.91 691.079 2322.04 744.471 2175.82 637.111C2168.49 631.732 2161.45 626.208 2154.49 620.779C2130.11 601.834 2107.44 583.049 2084.76 566.496C2016.45 516.43 1954.43 483.477 1862.5 476.752C1808 472.767 1743.28 478.927 1661.46 496.334C1638.21 501.282 1615.1 506.932 1592.02 512.888C1542.05 525.783 1491.45 540.4 1442.3 550.246C1392.55 560.203 1346.73 566.601 1300.52 573.004C1246.49 580.52 1191.09 587.018 1133 591.523C1112.68 593.106 1092.02 594.467 1071.07 595.591C1032.4 597.622 992.422 597.849 952.723 596.316C905.209 594.484 858.602 590.029 814.524 579.823C724.095 558.731 645.758 516.468 561.085 492.271C535.803 485.043 510.056 479.276 483.656 476.315M2422.3 697.416C2422.38 689.148 2323.91 748.517 2174.77 641.533C2167.46 636.287 2160.41 630.935 2153.48 625.649C2129.14 607.13 2106.72 588.717 2084.57 572.047C2017.7 521.588 1957.59 484.921 1865.65 475.717C1812.12 470.36 1747.99 474.915 1666.21 491.408C1643.17 496.057 1620.27 501.398 1597.43 507.109C1547.98 519.474 1498.28 533.775 1449.58 545.121C1400.32 556.594 1353.71 565.931 1306.79 574.919C1251.91 585.452 1196.02 594.827 1138.05 601.469C1117.77 603.799 1097.23 605.808 1076.45 607.446C1038.12 610.44 998.637 611.132 959.436 609.339C912.525 607.191 866.344 601.408 822.61 589.536C732.822 565.057 655.111 518.002 570.211 489.183C544.857 480.577 518.972 473.443 492.345 469.181M2425.81 691.355C2425.85 687.221 2325.81 752.512 2173.72 645.961C2166.42 640.847 2159.37 635.672 2152.47 630.525C2128.16 612.427 2105.99 594.384 2084.38 577.609C2018.95 526.757 1960.71 486.426 1868.79 474.688C1816.21 467.974 1752.72 471.013 1670.95 486.482C1648.13 490.86 1625.43 495.863 1602.84 501.331C1553.89 513.169 1505.09 527.15 1456.86 539.996C1408.07 552.991 1360.69 565.261 1313.04 576.834C1257.32 590.382 1200.95 602.636 1143.09 611.419C1122.86 614.497 1102.43 617.153 1081.82 619.306C1043.82 623.263 1004.84 624.42 966.133 622.361C919.825 619.898 874.076 612.792 830.68 599.254C741.534 571.393 664.449 519.54 579.321 486.105C553.901 476.121 527.872 467.62 501.023 462.052M2429.33 685.29C2429.33 685.29 2327.73 756.453 2172.68 650.383C2017.62 544.313 1964.25 429.869 1675.71 481.556C1476.32 517.277 1288.22 604.889 1087.21 631.162C1004.5 641.971 917.827 636.879 838.771 608.968C750.268 577.72 673.808 521.073 588.448 483.017C562.955 471.655 536.793 461.787 509.713 454.913" stroke="#2EA7E0" stroke-width="0.552088" stroke-miterlimit="10"/>
</g>
<defs>
<clipPath id="clip0_36_396">
<rect width="1600" height="873" fill="white"/>
</clipPath>
</defs>
</svg>
