<svg width="113" height="110" viewBox="0 0 113 110" fill="none" xmlns="http://www.w3.org/2000/svg">
<g filter="url(#filter0_d_17_8)">
<path d="M57.6286 38V39.6694C56.6171 40.0371 55.7795 40.7696 55.2802 41.7231C54.8459 42.5633 54.715 43.5276 54.9099 44.4531C55.1423 45.529 55.7791 46.4747 56.6887 47.0946C57.362 47.5506 58.1687 47.8199 59.0314 47.8199C59.2306 47.8199 59.4186 47.8578 59.587 47.9265C59.7536 47.9943 59.905 48.0948 60.0322 48.222C60.1594 48.3492 60.2599 48.5006 60.3277 48.6672C60.3964 48.8356 60.4343 49.0235 60.4343 49.2227C60.4404 49.4991 60.3627 49.7708 60.2115 50.0022C60.0602 50.2335 59.8425 50.4137 59.587 50.519C59.4186 50.5877 59.2306 50.6256 59.0314 50.6256C58.8322 50.6256 58.6442 50.5877 58.4759 50.519C58.3093 50.4512 58.1579 50.3507 58.0307 50.2235C57.9035 50.0963 57.803 49.9449 57.7352 49.7783C57.6639 49.6018 57.6277 49.4131 57.6286 49.2227H54.8229C54.8231 50.3142 55.2553 51.3613 56.0251 52.1351C56.4756 52.5945 57.0236 52.9469 57.6286 53.1661V54.8341H60.4343V53.1647C62.0616 52.5755 63.24 51.0324 63.24 49.2227C63.24 47.2097 61.7796 45.4982 59.8731 45.1012C59.5963 45.0434 59.3142 45.0143 59.0314 45.0142C58.8322 45.0142 58.6442 44.9763 58.4759 44.9076C58.3092 44.8399 58.1578 44.7394 58.0306 44.6122C57.9034 44.485 57.8029 44.3336 57.7352 44.1669C57.6639 43.9904 57.6277 43.8017 57.6286 43.6114C57.6286 43.4108 57.6665 43.2242 57.7352 43.0558C57.8032 42.8894 57.9039 42.7382 58.0312 42.6111C58.1629 42.4811 58.3192 42.3786 58.4909 42.3095C58.6626 42.2404 58.8464 42.206 59.0314 42.2085C59.8311 42.2085 60.4343 42.8118 60.4343 43.6114H63.24C63.2403 43.171 63.1702 42.7334 63.0323 42.3151C62.8258 41.7073 62.485 41.1538 62.0353 40.6958C61.5855 40.2377 61.0383 39.8869 60.4343 39.6694V38H57.6286ZM48.5325 57.6398C47.6694 57.6416 46.811 57.7672 45.9836 58.013L45.9555 58.0228L38 61.0754L40.7832 68.8892L47.6993 66.2378L57.7114 71.751L75 64.5881L73.9254 62.0012L57.8811 68.6437L47.9181 63.1586L42.461 65.246L41.5618 62.7139L46.8884 60.67C46.901 60.6643 47.5562 60.4455 48.5325 60.4455C49.5187 60.4455 50.6677 60.6643 51.6497 61.5537L51.6693 61.5636L51.6749 61.5692C53.1198 62.8247 54.2113 63.7015 55.7291 64.1785C57.247 64.6554 58.9697 64.7087 61.8455 64.6975L61.8315 61.8918C59.009 61.9031 57.5346 61.8035 56.5708 61.4976C55.6057 61.2016 54.9211 60.67 53.5295 59.4635L53.5126 59.4537C51.8896 57.9961 49.962 57.6342 48.5325 57.6398Z" fill="#D3A60D"/>
</g>
<defs>
<filter id="filter0_d_17_8" x="0.590836" y="0.590836" width="111.818" height="108.569" filterUnits="userSpaceOnUse" color-interpolation-filters="sRGB">
<feFlood flood-opacity="0" result="BackgroundImageFix"/>
<feColorMatrix in="SourceAlpha" type="matrix" values="0 0 0 0 0 0 0 0 0 0 0 0 0 0 0 0 0 0 127 0" result="hardAlpha"/>
<feOffset/>
<feGaussianBlur stdDeviation="18.7046"/>
<feComposite in2="hardAlpha" operator="out"/>
<feColorMatrix type="matrix" values="0 0 0 0 1 0 0 0 0 0.780392 0 0 0 0 0.152941 0 0 0 1 0"/>
<feBlend mode="normal" in2="BackgroundImageFix" result="effect1_dropShadow_17_8"/>
<feBlend mode="normal" in="SourceGraphic" in2="effect1_dropShadow_17_8" result="shape"/>
</filter>
</defs>
</svg>
