<svg width="103" height="103" viewBox="0 0 103 103" fill="none" xmlns="http://www.w3.org/2000/svg">
<path d="M51.5001 43.2302C52.5219 43.2302 53.3501 42.4914 53.3501 41.5802C53.3501 40.6689 52.5219 39.9302 51.5001 39.9302C50.4784 39.9302 49.6501 40.6689 49.6501 41.5802C49.6501 42.4914 50.4784 43.2302 51.5001 43.2302Z" fill="#D3A60D"/>
<path d="M40.4001 59.4006H62.6001V62.7006H40.4001V59.4006ZM47.8001 50.8701L52.9653 55.4802L60.2395 48.9875L62.6001 51.1506V44.5507H55.2001L57.6236 46.6544L52.9635 50.8107L47.8001 46.2007L40.4001 52.8006L43.016 55.1337L47.8001 50.8701Z" fill="#D3A60D"/>
<path d="M64.45 36.3001H58.3487C58.1655 36.0571 57.9678 35.8231 57.7567 35.5989L57.7382 35.5791C56.3785 34.1676 54.4664 33.2718 52.3917 33.0744C51.8024 32.9752 51.1976 32.9752 50.6083 33.0744C48.5336 33.2718 46.6215 34.1676 45.2618 35.5791L45.2433 35.5989C45.0322 35.8225 44.8346 36.0561 44.6513 36.2985V36.3001H38.55C37.0785 36.3014 35.6677 36.8233 34.6272 37.7514C33.5867 38.6794 33.0015 39.9377 33 41.2501V64.35C33.0015 65.6624 33.5867 66.9207 34.6272 67.8487C35.6677 68.7768 37.0785 69.2987 38.55 69.3H64.45C65.9215 69.2987 67.3323 68.7768 68.3728 67.8487C69.4133 66.9207 69.9985 65.6624 70 64.35V41.2501C69.9985 39.9377 69.4133 38.6794 68.3728 37.7514C67.3323 36.8233 65.9215 36.3014 64.45 36.3001ZM66.3 64.35C66.3 64.7876 66.1051 65.2073 65.7581 65.5167C65.4112 65.8262 64.9407 66 64.45 66H38.55C38.0593 66 37.5888 65.8262 37.2419 65.5167C36.8949 65.2073 36.7 64.7876 36.7 64.35V41.2501C36.7 40.8125 36.8949 40.3928 37.2419 40.0834C37.5888 39.7739 38.0593 39.6001 38.55 39.6001H46.9675C47.1798 38.6676 47.747 37.8293 48.5731 37.2271C49.3991 36.6249 50.4331 36.296 51.5 36.296C52.5669 36.296 53.6009 36.6249 54.4269 37.2271C55.253 37.8293 55.8202 38.6676 56.0325 39.6001H64.45C64.9407 39.6001 65.4112 39.7739 65.7581 40.0834C66.1051 40.3928 66.3 40.8125 66.3 41.2501V64.35Z" fill="#D3A60D"/>
<g filter="url(#filter0_d_17_12)">
<path d="M51.5001 43.2302C52.5219 43.2302 53.3501 42.4914 53.3501 41.5802C53.3501 40.6689 52.5219 39.9302 51.5001 39.9302C50.4784 39.9302 49.6501 40.6689 49.6501 41.5802C49.6501 42.4914 50.4784 43.2302 51.5001 43.2302Z" fill="#D3A60D"/>
</g>
<g filter="url(#filter1_d_17_12)">
<path d="M40.4001 59.4006H62.6001V62.7006H40.4001V59.4006ZM47.8001 50.8701L52.9653 55.4802L60.2395 48.9875L62.6001 51.1506V44.5507H55.2001L57.6236 46.6544L52.9635 50.8107L47.8001 46.2007L40.4001 52.8006L43.016 55.1337L47.8001 50.8701Z" fill="#D3A60D"/>
</g>
<g filter="url(#filter2_d_17_12)">
<path d="M64.45 36.3001H58.3487C58.1655 36.0571 57.9678 35.8231 57.7567 35.5989L57.7382 35.5791C56.3785 34.1676 54.4664 33.2718 52.3917 33.0744C51.8024 32.9752 51.1976 32.9752 50.6083 33.0744C48.5336 33.2718 46.6215 34.1676 45.2618 35.5791L45.2433 35.5989C45.0322 35.8225 44.8346 36.0561 44.6513 36.2985V36.3001H38.55C37.0785 36.3014 35.6677 36.8233 34.6272 37.7514C33.5867 38.6794 33.0015 39.9377 33 41.2501V64.35C33.0015 65.6624 33.5867 66.9207 34.6272 67.8487C35.6677 68.7768 37.0785 69.2987 38.55 69.3H64.45C65.9215 69.2987 67.3323 68.7768 68.3728 67.8487C69.4133 66.9207 69.9985 65.6624 70 64.35V41.2501C69.9985 39.9377 69.4133 38.6794 68.3728 37.7514C67.3323 36.8233 65.9215 36.3014 64.45 36.3001ZM66.3 64.35C66.3 64.7876 66.1051 65.2073 65.7581 65.5167C65.4112 65.8262 64.9407 66 64.45 66H38.55C38.0593 66 37.5888 65.8262 37.2419 65.5167C36.8949 65.2073 36.7 64.7876 36.7 64.35V41.2501C36.7 40.8125 36.8949 40.3928 37.2419 40.0834C37.5888 39.7739 38.0593 39.6001 38.55 39.6001H46.9675C47.1798 38.6676 47.747 37.8293 48.5731 37.2271C49.3991 36.6249 50.4331 36.296 51.5 36.296C52.5669 36.296 53.6009 36.6249 54.4269 37.2271C55.253 37.8293 55.8202 38.6676 56.0325 39.6001H64.45C64.9407 39.6001 65.4112 39.7739 65.7581 40.0834C66.1051 40.3928 66.3 40.8125 66.3 41.2501V64.35Z" fill="#D3A60D"/>
</g>
<defs>
<filter id="filter0_d_17_12" x="16.6501" y="6.93018" width="69.7" height="69.3" filterUnits="userSpaceOnUse" color-interpolation-filters="sRGB">
<feFlood flood-opacity="0" result="BackgroundImageFix"/>
<feColorMatrix in="SourceAlpha" type="matrix" values="0 0 0 0 0 0 0 0 0 0 0 0 0 0 0 0 0 0 127 0" result="hardAlpha"/>
<feOffset/>
<feGaussianBlur stdDeviation="16.5"/>
<feComposite in2="hardAlpha" operator="out"/>
<feColorMatrix type="matrix" values="0 0 0 0 1 0 0 0 0 0.780392 0 0 0 0 0.152941 0 0 0 1 0"/>
<feBlend mode="normal" in2="BackgroundImageFix" result="effect1_dropShadow_17_12"/>
<feBlend mode="normal" in="SourceGraphic" in2="effect1_dropShadow_17_12" result="shape"/>
</filter>
<filter id="filter1_d_17_12" x="7.40015" y="11.5507" width="88.2" height="84.1499" filterUnits="userSpaceOnUse" color-interpolation-filters="sRGB">
<feFlood flood-opacity="0" result="BackgroundImageFix"/>
<feColorMatrix in="SourceAlpha" type="matrix" values="0 0 0 0 0 0 0 0 0 0 0 0 0 0 0 0 0 0 127 0" result="hardAlpha"/>
<feOffset/>
<feGaussianBlur stdDeviation="16.5"/>
<feComposite in2="hardAlpha" operator="out"/>
<feColorMatrix type="matrix" values="0 0 0 0 1 0 0 0 0 0.780392 0 0 0 0 0.152941 0 0 0 1 0"/>
<feBlend mode="normal" in2="BackgroundImageFix" result="effect1_dropShadow_17_12"/>
<feBlend mode="normal" in="SourceGraphic" in2="effect1_dropShadow_17_12" result="shape"/>
</filter>
<filter id="filter2_d_17_12" x="0" y="0" width="103" height="102.3" filterUnits="userSpaceOnUse" color-interpolation-filters="sRGB">
<feFlood flood-opacity="0" result="BackgroundImageFix"/>
<feColorMatrix in="SourceAlpha" type="matrix" values="0 0 0 0 0 0 0 0 0 0 0 0 0 0 0 0 0 0 127 0" result="hardAlpha"/>
<feOffset/>
<feGaussianBlur stdDeviation="16.5"/>
<feComposite in2="hardAlpha" operator="out"/>
<feColorMatrix type="matrix" values="0 0 0 0 1 0 0 0 0 0.780392 0 0 0 0 0.152941 0 0 0 1 0"/>
<feBlend mode="normal" in2="BackgroundImageFix" result="effect1_dropShadow_17_12"/>
<feBlend mode="normal" in="SourceGraphic" in2="effect1_dropShadow_17_12" result="shape"/>
</filter>
</defs>
</svg>
