<svg width="350" height="130" viewBox="0 0 350 130" fill="none" xmlns="http://www.w3.org/2000/svg">
<path fill-rule="evenodd" clip-rule="evenodd" d="M125.529 2.05756C106.966 7.34556 80.365 20.0916 80.658 23.5576C80.745 24.5876 81.317 28.2386 81.929 31.6716C86.956 59.8826 60.533 86.4216 32 81.8196C28.425 81.2436 24.667 80.6946 23.649 80.6006C21.356 80.3886 15.724 89.9386 9.348 104.851C5.264 114.402 0 130.455 0 133.358C0 134.02 1.808 135.578 4.017 136.819C10.097 140.237 17.667 148.497 20.975 155.324C29.138 172.172 26.361 191.267 13.818 204.529C10.909 207.605 6.609 211.247 4.264 212.621C1.322 214.345 0.00499999 215.788 0.015 217.275C0.061 224.104 17.248 265.401 21.518 268.945C22.489 269.751 23.926 269.767 26.682 269.001C33.131 267.211 45.362 267.694 52.241 270.011C65.091 274.34 75.675 284.858 80.087 297.683C82.358 304.283 82.785 316.302 80.986 322.983C79.947 326.841 80.022 327.482 81.659 328.75C85.607 331.808 109.987 342.891 119 345.724C134.808 350.693 134.028 350.731 137.5 344.814C145.874 330.541 164.942 321.801 181.514 324.64C194.773 326.911 207.889 335.777 213.492 346.258C215.282 349.607 215.787 349.92 218.492 349.363C226.985 347.612 244.957 340.805 256.5 334.966C267.052 329.628 269.457 328.017 269.27 326.41C269.143 325.321 268.553 321.437 267.958 317.778C264.591 297.07 277.852 276.322 298.847 269.454C303.851 267.817 313.681 267.703 326 269.139C328.287 269.405 329.1 268.239 335.548 255.43C342.207 242.202 348.021 226.942 349.522 218.75C350.169 215.218 350.034 214.988 346.154 213.008C336.592 208.131 327.459 195.276 324.943 183.155C321.52 166.668 329.673 147.366 343.888 138.301C347.227 136.172 349.968 133.808 349.979 133.047C349.991 132.286 347.958 125.536 345.463 118.047C339.834 101.155 329.252 80.3476 326.417 80.6006C325.363 80.6946 321.575 81.2436 318 81.8196C288.522 86.5736 262.243 59.1516 268.272 29.9296C269.699 23.0116 269.69 22.3286 268.159 21.1256C264.263 18.0626 241.669 7.72456 232 4.58056C215.152 -0.899444 216 -0.919444 212.5 5.04556C201.495 23.8036 176.005 31.0866 155.43 21.3536C148.523 18.0856 140.028 10.3436 136.918 4.48156C135.59 1.97756 134.053 -0.0384435 133.502 0.000556453C132.951 0.0395565 129.363 0.965556 125.529 2.05756ZM199.903 54.9096C205.075 55.9696 209.654 57.1946 210.079 57.6326C210.927 58.5066 199.916 82.0126 193.077 93.9296C187.57 103.528 175.67 121.889 174.943 121.912C174.223 121.935 163.486 105.539 158.087 96.1726C151.903 85.4446 138.995 58.7466 139.555 57.8416C140.176 56.8356 152.698 54.0456 161.609 52.9266C171.232 51.7176 188.757 52.6256 199.903 54.9096ZM122.962 76.1796C131.035 90.3986 143.819 109.138 154.821 122.876L164.788 135.323L160.644 140.245L156.5 145.167L136 124.222C124.725 112.702 111.057 98.4736 105.627 92.6036C97.208 83.5016 95.943 81.7036 97.033 80.3896C98.526 78.5906 115.756 66.9296 116.921 66.9296C117.355 66.9296 120.073 71.0916 122.962 76.1796ZM242.636 72.8506C247.579 76.1066 252.214 79.4826 252.935 80.3516C254.434 82.1566 248.759 88.5356 213.357 124.84L193.454 145.25L189.204 140.174L184.954 135.098L190.283 128.764C202.643 114.072 219.647 89.5186 228.429 73.6796C230.488 69.9666 232.504 66.9296 232.91 66.9296C233.317 66.9296 237.693 69.5936 242.636 72.8506ZM114 126.534C126.375 138.208 138.426 149.741 140.78 152.163L145.06 156.567L140.222 160.646L135.383 164.726L125.442 156.755C107.831 142.637 91.124 131.387 68.053 118.111C66.349 117.131 68.737 112.58 76.455 102.098L81.117 95.7656L86.308 100.537C89.164 103.161 101.625 114.86 114 126.534ZM277.511 108.018C279.946 111.642 282.197 115.279 282.512 116.099C282.925 117.178 280.506 119.049 273.792 122.844C259.847 130.726 241.004 143.593 227.032 154.774L214.565 164.752L209.636 160.626L204.708 156.499L219.755 141.845C228.031 133.785 242.385 120.142 251.651 111.526L268.5 95.8616L270.791 98.6456C272.052 100.177 275.075 104.395 277.511 108.018ZM88.857 154.191C95.104 157.569 105.17 163.553 111.226 167.49L122.237 174.648L118.868 177.204C111.595 182.723 92.692 193.585 76.5 201.55C67.15 206.149 59.007 209.916 58.404 209.921C56.951 209.933 54.135 196.846 52.978 184.7C51.698 171.264 53.723 151.327 57.497 140.217C57.982 138.788 71.56 144.839 88.857 154.191ZM294.652 148.43C297.268 159.752 297.287 190.074 294.686 201.16C293.689 205.412 292.44 209.158 291.911 209.485C289.339 211.075 228.079 177.94 228.027 174.93C227.977 172.045 290.3 137.755 292.099 139.677C292.486 140.091 293.635 144.03 294.652 148.43ZM179.382 151.18L182.929 155.43L178.965 159.415L175 163.401L170.781 159.182L166.562 154.963L170.484 150.946C172.641 148.737 174.727 146.93 175.12 146.93C175.513 146.93 177.431 148.842 179.382 151.18ZM159.516 170.946L163.438 174.963L159.322 179.079L155.206 183.194L150.853 179.123L146.5 175.051L150.453 170.991C152.627 168.757 154.673 166.93 155 166.93C155.327 166.93 157.359 168.737 159.516 170.946ZM202.659 174.187C203.048 174.816 201.43 176.947 198.926 179.103L194.508 182.908L190.535 178.936L186.562 174.963L190.442 170.99L194.321 167.017L198.147 170.046C200.251 171.713 202.281 173.576 202.659 174.187ZM129.266 208.971C120.484 217.518 106.185 231.194 97.489 239.361L81.678 254.211L78.825 250.821C77.256 248.956 73.86 244.092 71.278 240.012C67.457 233.974 66.855 232.439 68.042 231.756C92.658 217.584 108.128 207.175 125.421 193.146L135.341 185.099L140.287 189.264L145.232 193.43L129.266 208.971ZM231.5 198.611C243.647 208.068 263.411 221.37 275 227.888C279.125 230.208 282.67 232.274 282.879 232.48C283.362 232.957 270.291 252.632 268.933 253.471C267.864 254.132 252.587 240.081 222.708 210.953L204.78 193.476L209.599 189.295L214.419 185.113L217.46 187.58C219.132 188.936 225.45 193.9 231.5 198.611ZM179.235 190.68L182.875 194.43L178.945 198.93L175.016 203.43L170.89 199.093L166.765 194.755L170.585 190.843C172.687 188.691 174.673 186.93 175 186.93C175.327 186.93 177.232 188.618 179.235 190.68ZM161.88 217.93C147.248 235.636 130.581 259.596 122.058 275.18C119.727 279.442 117.489 282.93 117.085 282.93C116.02 282.93 98.578 271.332 97.277 269.759C96.057 268.283 103.254 260.171 137.318 224.626L156.297 204.822L160.535 209.626L164.773 214.43L161.88 217.93ZM236.141 249.43L253.979 268.43L251.239 270.721C247.731 273.656 235.791 281.689 233.804 282.452C232.691 282.879 230.878 280.547 227.024 273.732C219.082 259.689 206.18 240.764 195.101 226.906L185.178 214.495L189.315 209.554L193.452 204.613L205.877 217.521C212.712 224.621 226.33 238.98 236.141 249.43ZM181.276 237.18C184.247 241.717 188.614 248.767 190.98 252.847C195.987 261.478 209.96 289.917 209.984 291.526C210.005 292.979 196.92 295.794 184.76 296.953C169.487 298.408 140 294.715 140 291.346C140 289.326 156.314 257.108 162.49 246.93C170.063 234.45 173.895 228.93 174.985 228.93C175.474 228.93 178.305 232.643 181.276 237.18Z" fill="#E0E0E0" fill-opacity="0.7"/>
</svg>
