<svg width="301" height="136" viewBox="0 0 301 136" fill="none" xmlns="http://www.w3.org/2000/svg">
<path fill-rule="evenodd" clip-rule="evenodd" d="M140.83 0.420691C131.235 2.17977 122.239 6.1598 114.353 12.1338L109.561 15.7654L111.396 17.9842C116.412 24.0501 141.443 51.1999 153.879 64.063C168.469 79.1552 173.974 86.3086 178.196 95.6635L180.411 100.572L181.803 98.8161C182.569 97.85 186.062 92.7581 189.566 87.4995C200.241 71.4829 208.126 53.5416 210.434 40.0191L211.338 34.7181L206.707 30.4091C185.231 10.4286 181.952 7.87218 173.277 4.35187C170.98 3.41954 167.191 2.1338 164.856 1.49309C159.972 0.154207 145.747 -0.480759 140.83 0.420691ZM71.6042 51.5066C63.9367 58.6421 57.0686 65.0636 56.3415 65.7768C55.0854 67.0094 55.0754 67.342 56.1392 72.5103C59.6129 89.3879 69.3 105.098 87.6897 123.68C100.158 136.278 106.662 141.646 120.933 151.121C126.634 154.906 132.675 159.124 134.355 160.495C136.037 161.865 137.537 162.859 137.689 162.705C137.842 162.55 138.978 159.865 140.214 156.736C141.45 153.608 144.05 147.951 145.991 144.166C153.336 129.843 153.569 119.363 146.828 106.468C144.701 102.399 141.516 98.6401 130.942 87.7229C119.027 75.4215 101.357 56.3551 89.8344 43.3677L85.5449 38.533L71.6042 51.5066ZM237.124 66.312C234.269 74.3548 227.019 89.367 221.755 98.1373C213.036 112.662 203.883 124.723 190.684 139.08C178.762 152.047 172.674 161.905 169.246 173.791C166.591 182.997 166.308 188.87 166.55 229.795L166.77 266.998L209.445 266.761C251.47 266.528 252.2 266.499 257.453 264.889C266.609 262.083 274.777 257.337 281.567 250.879C290.809 242.089 295.794 233.827 299.144 221.749C300.575 216.591 300.671 214.314 300.921 179.694C301.248 134.531 300.84 130.716 294.241 117.155C290.464 109.394 286.34 104.857 264.862 84.8382C253.921 74.6407 243.652 65.0384 242.042 63.5006L239.114 60.705L237.124 66.312ZM20.1085 99.7549C9.45059 110.146 3.86288 119.922 1.24273 132.764C-0.359379 140.617 -0.435878 211.096 1.14979 218.583C5.90322 241.028 20.3894 257.206 42.2928 264.532L48.3696 266.564L89.6557 266.782L130.942 267V240.542C130.942 219.101 130.734 213.282 129.847 209.861C126.876 198.4 119.306 189.679 102.517 178.379C68.7931 155.677 44.9115 129.927 31.9266 102.264C29.5674 97.2373 27.4763 93.1222 27.2797 93.1186C27.0831 93.1151 23.856 96.1017 20.1085 99.7549Z" fill="#E9E9E1"/>
</svg>
