<svg width="423" height="289" viewBox="0 0 423 289" fill="none" xmlns="http://www.w3.org/2000/svg">
<g clip-path="url(#clip0_2144_1241)">
<path fill-rule="evenodd" clip-rule="evenodd" d="M151.711 -69.5133C129.276 -63.1224 97.1268 -47.7179 97.4809 -43.529C97.5861 -42.2841 98.2774 -37.8716 99.0171 -33.7226C105.093 0.372398 73.1585 32.4467 38.6743 26.8848C34.3536 26.1887 29.8118 25.5252 28.5815 25.4116C25.8103 25.1554 19.0036 36.6972 11.2977 54.7199C6.36192 66.263 0 85.6642 0 89.1727C0 89.9727 2.1851 91.8557 4.85483 93.3555C12.2029 97.4864 21.3518 107.469 25.3498 115.72C35.2154 136.082 31.8592 159.16 16.7 175.188C13.1843 178.905 7.98745 183.307 5.15335 184.968C1.59773 187.051 0.00604284 188.795 0.0181286 190.592C0.0737229 198.846 20.8454 248.756 26.006 253.039C27.1796 254.013 28.9163 254.033 32.2471 253.107C40.0412 250.944 54.8232 251.527 63.137 254.328C78.6671 259.559 91.4586 272.271 96.7909 287.771C99.5355 295.748 100.052 310.274 97.8774 318.348C96.6217 323.011 96.7123 323.785 98.6907 325.318C103.462 329.014 132.927 342.408 143.82 345.832C162.925 351.838 161.982 351.883 166.179 344.732C176.299 327.482 199.344 316.92 219.373 320.351C235.397 323.095 251.249 333.81 258.02 346.478C260.184 350.525 260.794 350.903 264.063 350.23C274.328 348.114 296.048 339.887 309.999 332.83C322.751 326.379 325.658 324.432 325.432 322.49C325.279 321.174 324.565 316.48 323.846 312.057C319.777 287.03 335.804 261.955 361.178 253.654C367.226 251.676 379.106 251.538 393.994 253.274C396.758 253.595 397.741 252.186 405.534 236.705C413.582 220.718 420.608 202.276 422.422 192.375C423.204 188.106 423.041 187.828 418.352 185.435C406.795 179.541 395.758 164.005 392.717 149.356C388.58 129.43 398.433 106.102 415.613 95.1466C419.649 92.5736 422.961 89.7165 422.975 88.7968C422.989 87.8771 420.532 79.7192 417.517 70.6682C410.714 50.253 397.925 25.1058 394.498 25.4116C393.224 25.5252 388.646 26.1887 384.326 26.8848C348.699 32.6304 316.939 -0.511063 324.226 -35.8279C325.951 -44.1888 325.94 -45.0143 324.089 -46.4682C319.381 -50.1701 292.074 -62.6643 280.389 -66.4641C260.027 -73.087 261.051 -73.1112 256.821 -65.9021C243.521 -43.2316 212.715 -34.4296 187.848 -46.1926C179.501 -50.1423 169.234 -59.499 165.475 -66.5837C163.87 -69.61 162.013 -72.0465 161.347 -71.9993C160.681 -71.9522 156.344 -70.8331 151.711 -69.5133ZM241.597 -5.63783C247.848 -4.35674 253.382 -2.87624 253.895 -2.34689C254.92 -1.2906 241.613 27.1181 233.347 41.5206C226.692 53.121 212.31 75.3116 211.431 75.3394C210.561 75.3672 197.585 55.5514 191.059 44.2315C183.586 31.2659 167.985 -1.00054 168.662 -2.0943C169.413 -3.31012 184.546 -6.68203 195.316 -8.03442C206.946 -9.49558 228.126 -8.3982 241.597 -5.63783ZM148.608 20.0685C158.365 37.2532 173.816 59.9011 187.112 76.5044L199.158 91.5475L194.15 97.4961L189.141 103.445L164.366 78.1312C150.739 64.2084 134.22 47.0124 127.658 39.9181C117.483 28.9176 115.954 26.7446 117.271 25.1566C119.076 22.9824 139.899 8.88921 141.307 8.88921C141.832 8.88921 145.117 13.9193 148.608 20.0685ZM293.243 16.0452C299.217 19.9803 304.819 24.0604 305.69 25.1106C307.502 27.2921 300.643 35.0016 257.857 78.8781L233.803 103.545L228.667 97.4103L223.53 91.2756L229.971 83.6205C244.909 65.8642 265.459 36.1896 276.073 17.0471C278.561 12.5596 280.998 8.88921 281.488 8.88921C281.98 8.88921 287.269 12.1088 293.243 16.0452ZM137.777 80.9254C152.733 95.0342 167.298 108.973 170.143 111.9L175.315 117.222L169.468 122.152L163.62 127.083L151.606 117.45C130.321 100.387 110.13 86.7906 82.2469 70.7456C80.1875 69.5612 83.0736 64.061 92.4013 51.3927L98.0357 43.7396L104.309 49.5061C107.761 52.6774 122.821 66.8165 137.777 80.9254ZM335.392 58.5475C338.335 62.9273 341.055 67.3229 341.436 68.3139C341.935 69.618 339.012 71.8792 330.897 76.4657C314.044 85.9917 291.271 101.542 274.384 115.055L259.317 127.115L253.36 122.128L247.404 117.14L265.59 99.4298C275.592 89.6887 292.94 73.2002 304.138 62.7871L324.501 43.8556L327.27 47.2203C328.794 49.0711 332.448 54.1688 335.392 58.5475ZM107.39 114.351C114.94 118.433 127.105 125.665 134.425 130.424L147.732 139.075L143.66 142.164C134.871 148.834 112.025 161.961 92.4557 171.588C81.1556 177.146 71.3142 181.698 70.5854 181.705C68.8294 181.719 65.426 165.902 64.0277 151.223C62.4807 134.985 64.9281 110.889 69.4892 97.4622C70.0754 95.7352 86.4854 103.048 107.39 114.351ZM356.108 107.388C359.27 121.072 359.293 157.718 356.149 171.116C354.944 176.255 353.435 180.782 352.795 181.178C349.687 183.099 275.65 143.053 275.587 139.415C275.526 135.929 350.848 94.4868 353.022 96.8096C353.49 97.31 354.879 102.071 356.108 107.388ZM216.796 110.712L221.083 115.848L216.292 120.664L211.5 125.482L206.401 120.383L201.302 115.284L206.042 110.429C208.649 107.759 211.17 105.575 211.645 105.575C212.12 105.575 214.438 107.886 216.796 110.712ZM192.786 134.6L197.527 139.455L192.552 144.43L187.578 149.403L182.317 144.483L177.056 139.562L181.833 134.655C184.461 131.955 186.933 129.747 187.329 129.747C187.724 129.747 190.18 131.931 192.786 134.6ZM244.928 138.517C245.398 139.278 243.443 141.853 240.416 144.459L235.077 149.057L230.275 144.257L225.473 139.455L230.163 134.654L234.851 129.852L239.475 133.513C242.018 135.527 244.471 137.779 244.928 138.517ZM156.227 180.556C145.614 190.886 128.332 207.414 117.822 217.285L98.7137 235.232L95.2656 231.135C93.3694 228.881 89.2651 223.003 86.1446 218.072C81.5266 210.774 80.799 208.919 82.2336 208.094C111.984 190.966 130.68 178.386 151.58 161.431L163.569 151.705L169.547 156.739L175.523 161.774L156.227 180.556ZM279.784 168.036C294.465 179.465 318.351 195.541 332.357 203.419C337.342 206.223 341.627 208.72 341.879 208.969C342.463 209.545 326.666 233.324 325.025 234.338C323.733 235.137 305.269 218.155 269.159 182.952L247.491 161.83L253.315 156.777L259.141 151.722L262.816 154.704C264.837 156.343 272.472 162.342 279.784 168.036ZM216.618 158.45L221.018 162.983L216.268 168.421L211.519 173.86L206.533 168.618L201.547 163.375L206.164 158.647C208.705 156.047 211.105 153.918 211.5 153.918C211.895 153.918 214.198 155.958 216.618 158.45ZM195.644 191.384C177.96 212.783 157.816 241.74 147.516 260.575C144.699 265.726 141.994 269.941 141.506 269.941C140.218 269.941 119.139 255.924 117.566 254.023C116.092 252.239 124.79 242.435 165.959 199.477L188.896 175.542L194.018 181.348L199.14 187.154L195.644 191.384ZM285.393 229.454L306.952 252.417L303.64 255.186C299.401 258.733 284.97 268.441 282.569 269.363C281.224 269.879 279.033 267.061 274.375 258.825C264.776 241.853 249.183 218.98 235.793 202.232L223.801 187.233L228.801 181.261L233.801 175.289L248.817 190.89C257.078 199.471 273.536 216.824 285.393 229.454ZM219.085 214.649C222.676 220.132 227.953 228.653 230.813 233.584C236.864 244.015 253.752 278.385 253.781 280.33C253.806 282.086 237.992 285.488 223.296 286.889C204.837 288.647 169.2 284.184 169.2 280.112C169.2 277.671 188.917 238.733 196.381 226.433C205.533 211.35 210.165 204.678 211.482 204.678C212.073 204.678 215.494 209.166 219.085 214.649Z" fill="#E9E9E1" fill-opacity="0.8"/>
</g>
<defs>
<clipPath id="clip0_2144_1241">
<rect width="423" height="289" fill="white"/>
</clipPath>
</defs>
</svg>
